{
  "accessors": [
    {
      "bufferView": 2,
      "componentType": 5126,
      "count": 16528,
      "max": [
        0.49766108393669128,
        0.49663060903549194,
        0.36965745687484741
      ],
      "min": [
        -0.4977649450302124,
        -0.49729564785957336,
        -0.36965745687484741
      ],
      "type": "VEC3"
    },
    {
      "bufferView": 2,
      "byteOffset": 198336,
      "componentType": 5126,
      "count": 16528,
      "max": [
        0.99914681911468506,
        0.99906367063522339,
        0.99999731779098511
      ],
      "min": [
        -0.99914681911468506,
        -1,
        -0.99999731779098511
      ],
      "type": "VEC3"
    },
    {
      "bufferView": 3,
      "componentType": 5126,
      "count": 16528,
      "max": [
        0.99945521354675293,
        0.98391908407211304,
        0.94558262825012207,
        -1
      ],
      "min": [
        -0.99999648332595825,
        -0.99990028142929077,
        -0.99495643377304077,
        -1
      ],
      "type": "VEC4"
    },
    {
      "bufferView": 3,
      "byteOffset": 264448,
      "componentType": 5126,
      "count": 16528,
      "max": [
        1,
        1,
        1,
        1
      ],
      "min": [
        1,
        1,
        1,
        1
      ],
      "type": "VEC4"
    },
    {
      "bufferView": 1,
      "componentType": 5126,
      "count": 16528,
      "max": [
        0.99998235702514648,
        0.99982225894927979
      ],
      "min": [
        0.00021645426750183105,
        0.15556973218917847
      ],
      "type": "VEC2"
    },
    {
      "bufferView": 0,
      "componentType": 5125,
      "count": 96420,
      "max": [
        16527
      ],
      "min": [
        0
      ],
      "type": "SCALAR"
    },
    {
      "bufferView": 2,
      "byteOffset": 396672,
      "componentType": 5126,
      "count": 16528,
      "max": [
        0.49766108393669128,
        0.49663060903549194,
        0.36965745687484741
      ],
      "min": [
        -0.4977649450302124,
        -0.49729564785957336,
        -0.36965745687484741
      ],
      "type": "VEC3"
    },
    {
      "bufferView": 2,
      "byteOffset": 595008,
      "componentType": 5126,
      "count": 16528,
      "max": [
        0.99914681911468506,
        0.99906367063522339,
        0.99999731779098511
      ],
      "min": [
        -0.99914681911468506,
        -1,
        -0.99999731779098511
      ],
      "type": "VEC3"
    },
    {
      "bufferView": 3,
      "byteOffset": 528896,
      "componentType": 5126,
      "count": 16528,
      "max": [
        0.99945521354675293,
        0.98391908407211304,
        0.94558262825012207,
        -1
      ],
      "min": [
        -0.99999648332595825,
        -0.99990028142929077,
        -0.99495643377304077,
        -1
      ],
      "type": "VEC4"
    },
    {
      "bufferView": 3,
      "byteOffset": 793344,
      "componentType": 5126,
      "count": 16528,
      "max": [
        1,
        1,
        1,
        1
      ],
      "min": [
        1,
        1,
        1,
        1
      ],
      "type": "VEC4"
    },
    {
      "bufferView": 1,
      "byteOffset": 132224,
      "componentType": 5126,
      "count": 16528,
      "max": [
        0.99998235702514648,
        0.99982225894927979
      ],
      "min": [
        0.00021645426750183105,
        0.15556973218917847
      ],
      "type": "VEC2"
    },
    {
      "bufferView": 0,
      "byteOffset": 385680,
      "componentType": 5125,
      "count": 96420,
      "max": [
        16527
      ],
      "min": [
        0
      ],
      "type": "SCALAR"
    },
    {
      "bufferView": 2,
      "byteOffset": 793344,
      "componentType": 5126,
      "count": 16528,
      "max": [
        0.49766108393669128,
        0.49663060903549194,
        0.36965745687484741
      ],
      "min": [
        -0.4977649450302124,
        -0.49729564785957336,
        -0.36965745687484741
      ],
      "type": "VEC3"
    },
    {
      "bufferView": 2,
      "byteOffset": 991680,
      "componentType": 5126,
      "count": 16528,
      "max": [
        0.99914681911468506,
        0.99906367063522339,
        0.99999731779098511
      ],
      "min": [
        -0.99914681911468506,
        -1,
        -0.99999731779098511
      ],
      "type": "VEC3"
    },
    {
      "bufferView": 3,
      "byteOffset": 1057792,
      "componentType": 5126,
      "count": 16528,
      "max": [
        0.99945521354675293,
        0.98391908407211304,
        0.94558262825012207,
        -1
      ],
      "min": [
        -0.99999648332595825,
        -0.99990028142929077,
        -0.99495643377304077,
        -1
      ],
      "type": "VEC4"
    },
    {
      "bufferView": 3,
      "byteOffset": 1322240,
      "componentType": 5126,
      "count": 16528,
      "max": [
        1,
        1,
        1,
        1
      ],
      "min": [
        1,
        1,
        1,
        1
      ],
      "type": "VEC4"
    },
    {
      "bufferView": 1,
      "byteOffset": 264448,
      "componentType": 5126,
      "count": 16528,
      "max": [
        0.99998235702514648,
        0.99982225894927979
      ],
      "min": [
        0.00021645426750183105,
        0.15556973218917847
      ],
      "type": "VEC2"
    },
    {
      "bufferView": 0,
      "byteOffset": 771360,
      "componentType": 5125,
      "count": 96420,
      "max": [
        16527
      ],
      "min": [
        0
      ],
      "type": "SCALAR"
    }
  ],
  "asset": {
    "extras": {
      "author": "jlwande2 (https://sketchfab.com/jlwande2)",
      "license": "CC-BY-4.0 (http://creativecommons.org/licenses/by/4.0/)",
      "source": "https://sketchfab.com/models/6905d09cd32e4951ab69a5066d4b45db",
      "title": "Clouds"
    },
    "generator": "Sketchfab-3.18.5",
    "version": "2.0"
  },
  "bufferViews": [
    {
      "buffer": 0,
      "byteLength": 1157040,
      "byteOffset": 0,
      "name": "floatBufferViews",
      "target": 34963
    },
    {
      "buffer": 0,
      "byteLength": 396672,
      "byteOffset": 1157040,
      "byteStride": 8,
      "name": "floatBufferViews",
      "target": 34962
    },
    {
      "buffer": 0,
      "byteLength": 1190016,
      "byteOffset": 1553712,
      "byteStride": 12,
      "name": "floatBufferViews",
      "target": 34962
    },
    {
      "buffer": 0,
      "byteLength": 1586688,
      "byteOffset": 2743728,
      "byteStride": 16,
      "name": "floatBufferViews",
      "target": 34962
    }
  ],
  "buffers": [
    {
      "byteLength": 4330416,
      "uri": "scene.bin"
    }
  ],
  "images": [
    {
      "uri": "textures/Material_187_0_baseColor.png"
    },
    {
      "uri": "textures/Material_187_1_baseColor.png"
    },
    {
      "uri": "textures/Material_187_baseColor.png"
    }
  ],
  "materials": [
    {
      "doubleSided": true,
      "emissiveFactor": [
        0,
        0,
        0
      ],
      "name": "Material_187",
      "pbrMetallicRoughness": {
        "baseColorFactor": [
          1,
          1,
          1,
          1
        ],
        "baseColorTexture": {
          "index": 2,
          "texCoord": 0
        },
        "metallicFactor": 0,
        "roughnessFactor": 0
      }
    },
    {
      "doubleSided": true,
      "emissiveFactor": [
        0,
        0,
        0
      ],
      "name": "Material_187_0",
      "pbrMetallicRoughness": {
        "baseColorFactor": [
          1,
          1,
          1,
          1
        ],
        "baseColorTexture": {
          "index": 0,
          "texCoord": 0
        },
        "metallicFactor": 0,
        "roughnessFactor": 0
      }
    },
    {
      "doubleSided": true,
      "emissiveFactor": [
        0,
        0,
        0
      ],
      "name": "Material_187_1",
      "pbrMetallicRoughness": {
        "baseColorFactor": [
          1,
          1,
          1,
          1
        ],
        "baseColorTexture": {
          "index": 1,
          "texCoord": 0
        },
        "metallicFactor": 0,
        "roughnessFactor": 0
      }
    }
  ],
  "meshes": [
    {
      "name": "root_Material_187_0",
      "primitives": [
        {
          "attributes": {
            "COLOR_0": 3,
            "NORMAL": 1,
            "POSITION": 0,
            "TANGENT": 2,
            "TEXCOORD_0": 4
          },
          "indices": 5,
          "material": 0,
          "mode": 4
        }
      ]
    },
    {
      "name": "root_Material_187_0",
      "primitives": [
        {
          "attributes": {
            "COLOR_0": 9,
            "NORMAL": 7,
            "POSITION": 6,
            "TANGENT": 8,
            "TEXCOORD_0": 10
          },
          "indices": 11,
          "material": 1,
          "mode": 4
        }
      ]
    },
    {
      "name": "root_Material_187_0",
      "primitives": [
        {
          "attributes": {
            "COLOR_0": 15,
            "NORMAL": 13,
            "POSITION": 12,
            "TANGENT": 14,
            "TEXCOORD_0": 16
          },
          "indices": 17,
          "material": 2,
          "mode": 4
        }
      ]
    }
  ],
  "nodes": [
    {
      "children": [
        1
      ],
      "name": "RootNode (gltf orientation matrix)",
      "rotation": [
        -0.70710678118654746,
        -0,
        -0,
        0.70710678118654757
      ]
    },
    {
      "children": [
        2
      ],
      "name": "RootNode (model correction matrix)"
    },
    {
      "children": [
        3
      ],
      "matrix": [
        1,
        0,
        0,
        0,
        0,
        0,
        1,
        0,
        0,
        -1,
        0,
        0,
        0,
        0,
        0,
        1
      ],
      "name": "8ab0335bfa324e8086c09176cc84cc07.fbx"
    },
    {
      "children": [
        4,
        7,
        10
      ],
      "name": "RootNode"
    },
    {
      "children": [
        5
      ],
      "name": "root"
    },
    {
      "children": [
        6
      ],
      "matrix": [
        0.5008242130279541,
        0.040536250919103622,
        -0.023065218701958656,
        0,
        -0.025460918378320631,
        0.33381137231266561,
        0.033817894727305994,
        0,
        0.0090156574189629059,
        -0.016251094048483173,
        0.16719984993660525,
        0,
        -0.040626674890518188,
        0.0023081093095242977,
        0.17476071417331696,
        1
      ],
      "name": ""
    },
    {
      "mesh": 0,
      "name": "root_Material_187_0"
    },
    {
      "children": [
        8
      ],
      "name": "root"
    },
    {
      "children": [
        9
      ],
      "matrix": [
        0.3646700382232666,
        0.029516058042645454,
        -0.01679470390081406,
        0,
        -0.018539109870691361,
        0.24306136343821505,
        0.024624155831440061,
        0,
        0.0065646585994401149,
        -0.011833066940859156,
        0.12174485622414022,
        0,
        0.18656004965305328,
        -0.037316381931304932,
        0.28184071183204651,
        1
      ],
      "name": ""
    },
    {
      "mesh": 1,
      "name": "root_Material_187_0"
    },
    {
      "children": [
        11
      ],
      "name": "root"
    },
    {
      "children": [
        12
      ],
      "matrix": [
        0.4022277295589447,
        4.4420599782638775e-18,
        -0.020105110481381416,
        0,
        -1.9454569046604953e-17,
        0.26941317319869995,
        -3.2968819887953073e-16,
        0,
        0.0067243186329401022,
        1.6511156030067833e-16,
        0.13452835382641301,
        0,
        -0.34962061047554016,
        -0.17470619082450867,
        0.32548877596855164,
        1
      ],
      "name": ""
    },
    {
      "mesh": 2,
      "name": "root_Material_187_0"
    }
  ],
  "samplers": [
    {
      "magFilter": 9729,
      "minFilter": 9987,
      "wrapS": 10497,
      "wrapT": 10497
    }
  ],
  "scene": 0,
  "scenes": [
    {
      "name": "OSG_Scene",
      "nodes": [
        0
      ]
    }
  ],
  "textures": [
    {
      "sampler": 0,
      "source": 0
    },
    {
      "sampler": 0,
      "source": 1
    },
    {
      "sampler": 0,
      "source": 2
    }
  ]
}

