# Created by Kenney (www.kenney.nl)

mtllib building_dock.mtl

g building_dock

v 0.5 0 0.2886751
v 0.5 0 -0.2886751
v 1.198373E-13 0 0.5773503
v -1.349974E-13 0 -0.5773503
v -0.5 0 0.2886751
v -0.5 0 -0.2886751
v 0.5 0.1 0.2886751
v 1.198373E-13 0.1 0.5773503
v 0.5 0.1 -0.2886751
v -1.349974E-13 0.1 -0.5773503
v 0.5 0.2 0.2886751
v 1.198373E-13 0.2 0.5773503
v 0.5 0.2 -0.2886751
v -1.349974E-13 0.2 -0.5773503
v -0.5 0.1 -0.2886751
v -0.5 0.1 0.2886751

vn 0 -1 0
vn 0.5 0 0.8660254
vn 1 0 0
vn 0.5 0 -0.8660254
vn 0 1 0
vn -1 0 0
vn -0.5 0 -0.8660254
vn -0.5 0 0.8660254

vt 19.68504 11.36516
vt 19.68504 -11.36516
vt 4.718004E-12 22.73033
vt -5.31486E-12 -22.73033
vt -19.68504 11.36516
vt -19.68504 -11.36516
vt 11.36516 0
vt -11.36516 0
vt 11.36516 3.937008
vt -11.36516 3.937008
vt -4.718004E-12 22.73033
vt 5.31486E-12 -22.73033
vt 11.36516 7.874016
vt -11.36516 7.874016
vt -22.73033 3.937008
vt -22.73033 7.874016
vt 22.73033 3.937008
vt 22.73033 7.874016

usemtl dirt

f 3/3/1 2/2/1 1/1/1
f 2/2/1 3/3/1 4/4/1
f 4/4/1 3/3/1 5/5/1
f 4/4/1 5/5/1 6/6/1
f 7/9/2 3/8/2 1/7/2
f 3/8/2 7/9/2 8/10/2
f 7/10/3 2/7/3 9/9/3
f 2/7/3 7/10/3 1/8/3
f 10/9/4 2/8/4 4/7/4
f 2/8/4 10/9/4 9/10/4

usemtl grass

f 13/6/5 12/11/5 11/5/5
f 12/11/5 13/6/5 14/12/5
f 14/13/4 9/10/4 10/9/4
f 9/10/4 14/13/4 13/14/4
f 11/14/3 9/9/3 13/13/3
f 9/9/3 11/14/3 7/10/3
f 11/13/2 8/10/2 7/9/2
f 8/10/2 11/13/2 12/14/2
f 8/17/6 14/16/6 10/15/6
f 14/16/6 8/17/6 12/18/6

usemtl water

f 15/9/7 4/8/7 6/7/7
f 4/8/7 15/9/7 10/10/7
f 5/7/6 15/10/6 6/8/6
f 15/10/6 5/7/6 16/9/6
f 8/9/8 5/8/8 3/7/8
f 5/8/8 8/9/8 16/10/8
f 10/12/5 16/1/5 8/11/5
f 16/1/5 10/12/5 15/2/5

g building

v 0.4460021 0.294 0.335562
v 0.1360021 0.294 0.335562
v 0.4460021 0.422 0.239562
v 0.1360021 0.422 0.239562
v 0.4460021 0.422 0.04756199
v 0.4460021 0.4321052 0.03408831
v 0.1360021 0.422 0.04756199
v 0.1360021 0.4321052 0.03408831
v 0.1360021 0.294 -0.04843801
v 0.4460021 0.294 -0.04843801
v 0.4460021 0.4321052 0.2530357
v 0.1360021 0.4321052 0.2530357
v 0.4460021 0.276 0.311562
v 0.1360021 0.276 0.311562
v 0.4460021 0.276 -0.02443801
v 0.1360021 0.276 -0.02443801
v 0.1660021 0.3 0.293562
v 0.1360021 0.5 0.143562
v 0.1660021 0.5 0.143562
v 0.4160021 0.3 0.293562
v 0.4460021 0.5 0.143562
v 0.4160021 0.5 0.143562
v 0.4160021 0.3 -0.006438017
v 0.1660021 0.3 -0.006438017
v 0.4460021 0.5780702 0.143562
v 0.1360021 0.5780702 0.143562
v 0.4160021 0.2 0.293562
v 0.1660021 0.2 0.293562
v 0.4160021 0.265 0.293562
v 0.1660021 0.265 0.293562
v 0.4160021 0.265 -0.006438017
v 0.4160021 0.2 -0.006438017
v 0.1660021 0.2 -0.006438017
v 0.1660021 0.265 -0.006438017
v 0.1660021 0.2 0.243562
v 0.1660021 0.2 0.193562
v 0.1660021 0.2 0.09356199
v 0.1660021 0.2 0.04356199
v 0.1660021 0.325 0.09356199
v 0.1660021 0.325 0.193562
v 0.1660021 0.265 0.04356199
v 0.1660021 0.265 0.243562

vn 0 0.6 0.8
vn 0 -0.8 -0.6
vn 0 0.6 -0.8
vn 0 -0.8 0.6
vn 0 -0.6 -0.8
vn 0 -0.6 0.8
vn 0 0 1
vn 0 0 -1

vt 6.102362 -1.574803
vt -6.102362 -1.574803
vt 6.102362 4.72441
vt -6.102362 4.72441
vt -6.102362 8.267716
vt -6.102362 8.930792
vt 6.102362 8.267716
vt 6.102362 8.930792
vt 6.102362 7.086614
vt -6.102362 7.086614
vt 4.92126 -0.3937008
vt 6.102362 9.448819
vt 4.92126 9.448819
vt -4.92126 -0.3937008
vt -6.102362 9.448819
vt -4.92126 9.448819
vt 4.309988 9.138002
vt 3.779528 8.740157
vt 1.421085E-14 14.88465
vt 1.421085E-14 11.81102
vt 6.614173 2.992126
vt 7.559055 3.700787
vt -4.309988 9.138002
vt -3.779528 8.740157
vt -6.614173 2.992126
vt -7.559055 3.700787
vt 6.102362 11.90772
vt -6.102362 11.90772
vt -1.421085E-14 11.81102
vt -1.421085E-14 14.88465
vt 4.92126 0
vt -4.92126 0
vt 4.92126 2.559055
vt -4.92126 2.559055
vt 5.905512 2.559055
vt 5.905512 0
vt -5.905512 2.559055
vt -5.905512 0
vt 4.92126 5.905512
vt 4.92126 -5.905512
vt -4.92126 5.905512
vt -4.92126 -5.905512
vt -4.92126 3.937008
vt -4.92126 1.968504
vt -4.92126 -1.968504
vt -4.92126 -3.937008
vt -1.968504 4.92126
vt 1.968504 4.92126
vt -1.968504 0
vt 1.968504 0
vt -3.937008 0
vt -3.937008 2.559055
vt 3.937008 0
vt 3.937008 2.559055
vt 4.92126 3.937008
vt 5.905512 3.937008
vt -5.905512 3.937008

usemtl roof

f 19/21/9 18/20/9 17/19/9
f 18/20/9 19/21/9 20/22/9
f 23/25/10 22/24/10 21/23/10
f 22/24/10 23/25/10 24/26/10
f 23/21/11 26/20/11 25/19/11
f 26/20/11 23/21/11 21/22/11
f 28/24/12 19/25/12 27/26/12
f 19/25/12 28/24/12 20/23/12
f 18/23/12 29/27/12 17/25/12
f 29/27/12 18/23/12 30/28/12
f 32/27/10 26/23/10 31/28/10
f 26/23/10 32/27/10 25/25/10
f 30/19/13 33/29/13 29/20/13
f 33/29/13 30/19/13 34/30/13
f 33/29/13 34/30/13 35/31/13
f 36/32/13 29/20/13 33/29/13
f 29/20/13 36/32/13 37/33/13
f 37/33/13 36/32/13 38/34/13
f 31/19/14 39/29/14 32/20/14
f 39/29/14 31/19/14 37/30/14
f 39/29/14 37/30/14 38/31/14
f 40/32/14 32/20/14 39/29/14
f 32/20/14 40/32/14 34/33/14
f 34/33/14 40/32/14 35/34/14
f 41/37/3 21/36/3 22/35/3
f 37/38/3 21/36/3 41/37/3
f 31/39/3 21/36/3 37/38/3
f 21/36/3 31/39/3 26/40/3
f 37/38/3 41/37/3 27/41/3
f 37/38/3 27/41/3 19/42/3
f 19/42/3 29/43/3 37/38/3
f 29/43/3 19/42/3 17/44/3
f 42/45/11 22/22/11 24/21/11
f 22/22/11 42/45/11 41/46/11
f 41/45/9 28/22/9 27/21/9
f 28/22/9 41/45/9 42/46/9
f 32/43/6 23/42/6 25/44/6
f 23/42/6 32/43/6 34/47/6
f 42/48/6 23/42/6 34/47/6
f 23/42/6 42/48/6 24/41/6
f 42/48/6 34/47/6 30/39/6
f 42/48/6 30/39/6 20/36/6
f 20/36/6 30/39/6 18/40/6
f 28/35/6 42/48/6 20/36/6

usemtl wood

f 45/51/15 44/50/15 43/49/15
f 44/50/15 45/51/15 46/52/15
f 45/55/3 48/54/3 47/53/3
f 48/54/3 45/55/3 43/56/3
f 50/51/16 48/50/16 49/49/16
f 48/50/16 50/51/16 47/52/16
f 44/59/1 48/58/1 43/57/1
f 48/58/1 44/59/1 49/60/1
f 49/60/1 44/59/1 51/61/1
f 49/60/1 51/61/1 52/62/1
f 49/60/1 52/62/1 53/63/1
f 49/60/1 53/63/1 54/64/1
f 53/67/6 56/66/6 55/65/6
f 56/66/6 53/67/6 52/68/6
f 54/69/6 50/55/6 49/56/6
f 50/55/6 54/69/6 57/70/6
f 44/54/6 58/72/6 51/71/6
f 58/72/6 44/54/6 46/53/6

usemtl dirt

f 36/73/15 46/52/15 45/51/15
f 46/52/15 36/73/15 33/61/15
f 40/73/16 47/52/16 50/51/16
f 47/52/16 40/73/16 39/61/16
f 38/38/3 47/53/3 39/74/3
f 47/53/3 38/38/3 45/55/3
f 45/55/3 38/38/3 36/75/3
f 53/67/6 57/70/6 54/69/6
f 57/70/6 53/67/6 55/65/6
f 35/47/6 57/70/6 55/65/6
f 40/75/6 57/70/6 35/47/6
f 57/70/6 40/75/6 50/55/6
f 35/47/6 55/65/6 56/66/6
f 35/47/6 56/66/6 33/74/6
f 33/74/6 56/66/6 58/72/6
f 58/72/6 56/66/6 51/71/6
f 51/71/6 56/66/6 52/68/6
f 33/74/6 58/72/6 46/53/6

g dock

v -0.125 0.2 -0.1125
v -0.125 0.2 0.1125
v -0.15 0.2 -0.1125
v -0.15 0.2 0.1125
v -0.2 0.2 -0.1125
v -0.2 0.2 0.1125
v -0.225 0.2 -0.1125
v -0.225 0.2 0.1125
v -0.05 0.2 -0.1125
v -0.05 0.2 0.1125
v -0.075 0.2 -0.1125
v -0.075 0.2 0.1125
v 0 0.175 0.1125
v -0.275 0.175 0.1125
v 0 0.2 0.1125
v -0.275 0.2 0.1125
v -0.2375 0.25 0.0625
v -0.2375 0.2 0.0625
v -0.2375 0.25 0.0875
v -0.2375 0.2 0.0875
v -0.275 0.175 -0.1125
v -0.275 0.2 -0.1125
v -0.2375 0.2 -0.0875
v -0.2625 0.2 -0.0875
v -0.2625 0.2 -0.0625
v -0.2625 0.2 0.0625
v -0.2625 0.2 0.0875
v -0.2375 0.2 -0.0625
v -0.2625 0.175 0.0625
v -0.2625 0.175 0.0875
v -0.2625 0.09999999 0.0625
v -0.2625 0.09999999 0.0875
v 0 0.2 -0.1125
v 0 0.175 -0.1125
v -0.2375 0.175 0.0625
v -0.2375 0.09999999 0.0625
v -0.2375 0.175 0.0875
v -0.2375 0.09999999 0.0875
v -0.2625 0.25 0.0625
v -0.2625 0.25 0.0875
v -0.2625 0.175 -0.0625
v -0.2625 0.175 -0.0875
v -0.2375 0.175 -0.0875
v -0.2375 0.175 -0.0625
v -0.2375 0.25 -0.08750001
v -0.2375 0.25 -0.06250001
v -0.2625 0.25 -0.08750001
v -0.2625 0.25 -0.06250001
v -0.2375 0.09999999 -0.0625
v -0.2625 0.09999999 -0.0625
v -0.2375 0.09999999 -0.0875
v -0.2625 0.09999999 -0.0875


vt -0.492126 -4.429134
vt -0.492126 4.429134
vt 0.492126 -4.429134
vt 0.492126 4.429134
vt 2.46063 -4.429134
vt 2.46063 4.429134
vt 3.444882 -4.429134
vt 3.444882 4.429134
vt -3.444882 -4.429134
vt -3.444882 4.429134
vt -2.46063 -4.429134
vt -2.46063 4.429134
vt 5.413386 2.952756
vt -5.413386 2.952756
vt 5.413386 3.937008
vt -5.413386 3.937008
vt 3.444882 3.937008
vt 2.46063 3.937008
vt 0.492126 3.937008
vt -0.492126 3.937008
vt -2.46063 3.937008
vt -3.444882 3.937008
vt -2.46063 5.905512
vt -3.444882 5.905512
vt -4.429134 2.952756
vt -4.429134 3.937008
vt 4.429134 2.952756
vt 4.429134 3.937008
vt 3.937008 -3.444882
vt 5.413386 -4.429134
vt 4.92126 -3.444882
vt 4.92126 -2.46063
vt 4.92126 2.46063
vt 4.92126 3.444882
vt 3.937008 3.444882
vt 5.413386 4.429134
vt 3.937008 -2.46063
vt 3.937008 2.46063
vt 2.46063 2.952756
vt 3.444882 2.952756
vt 2.46063 0
vt 3.444882 2.933056E-08
vt -5.413386 -4.429134
vt -5.413386 4.429134
vt -2.46063 2.952756
vt -2.46063 0
vt -3.444882 2.952756
vt -3.444882 2.933056E-08
vt -3.937008 3.444882
vt -3.937008 2.46063
vt -4.92126 3.444882
vt -4.92126 2.46063
vt -4.92126 -2.46063
vt -4.92126 -3.444882
vt -3.937008 -3.444882
vt -3.937008 -2.46063
vt 3.937008 3.937008
vt 3.937008 5.905512
vt 4.92126 3.937008
vt 3.937008 3.937008
vt -3.937008 1.613181E-07
vt -4.92126 1.613181E-07
vt -3.937008 2.952756
vt -4.92126 2.952756
vt 3.444882 5.866112E-08
vt 2.46063 8.799167E-08
vt -3.444882 5.905512
vt -2.46063 5.905512
vt -3.444882 5.866112E-08
vt -2.46063 8.799167E-08
vt 4.92126 1.613181E-07
vt 3.937008 1.613181E-07
vt 4.92126 2.952756
vt 3.937008 2.952756
vt 3.444882 5.905512
vt 2.46063 5.905512
vt -3.937008 3.937008
vt -4.92126 3.937008
vt -3.937008 5.905512
vt -3.937008 -7.33264E-08
vt -4.92126 -7.33264E-08
vt -3.937008 2.952756
vt -4.92126 2.952756
vt 4.92126 -7.33264E-08
vt 3.937008 -7.33264E-08
vt 4.92126 2.952756
vt 3.937008 2.952756
vt -3.937008 3.937008
vt 2.46063 5.905512
vt 3.444882 5.905512

usemtl wood

f 61/78/5 60/77/5 59/76/5
f 60/77/5 61/78/5 62/79/5
f 65/82/5 64/81/5 63/80/5
f 64/81/5 65/82/5 66/83/5
f 69/86/5 68/85/5 67/84/5
f 68/85/5 69/86/5 70/87/5

usemtl dirt

f 73/90/15 72/89/15 71/88/15
f 72/89/15 73/90/15 74/91/15
f 74/91/15 73/90/15 68/92/15
f 74/91/15 68/92/15 70/93/15
f 74/91/15 70/93/15 60/94/15
f 74/91/15 60/94/15 62/95/15
f 74/91/15 62/95/15 64/96/15
f 74/91/15 64/96/15 66/97/15
f 77/99/3 76/96/3 75/98/3
f 76/96/3 77/99/3 78/97/3
f 72/102/6 80/101/6 79/100/6
f 80/101/6 72/102/6 74/103/6
f 65/82/5 81/104/5 66/83/5
f 81/104/5 65/82/5 80/105/5
f 81/104/5 80/105/5 82/106/5
f 82/106/5 80/105/5 83/107/5
f 83/107/5 80/105/5 84/108/5
f 84/108/5 80/105/5 85/109/5
f 78/110/5 66/83/5 81/104/5
f 66/83/5 78/110/5 74/111/5
f 74/111/5 78/110/5 85/109/5
f 74/111/5 85/109/5 80/105/5
f 78/110/5 81/104/5 86/112/5
f 78/110/5 86/112/5 76/113/5
f 83/107/5 76/113/5 86/112/5
f 76/113/5 83/107/5 84/108/5
f 89/116/6 88/115/6 87/114/6
f 88/115/6 89/116/6 90/117/6
f 73/101/3 92/102/3 91/103/3
f 92/102/3 73/101/3 71/100/3
f 67/84/5 73/119/5 91/118/5
f 73/119/5 67/84/5 68/85/5
f 95/122/3 94/121/3 93/120/3
f 94/121/3 95/122/3 96/123/3
f 59/76/5 70/87/5 69/86/5
f 70/87/5 59/76/5 60/77/5
f 90/126/1 94/125/1 96/124/1
f 94/125/1 90/126/1 89/127/1
f 80/90/16 92/89/16 79/88/16
f 92/89/16 80/90/16 91/91/16
f 91/91/16 80/90/16 65/92/16
f 91/91/16 65/92/16 63/93/16
f 91/91/16 63/93/16 61/94/16
f 91/91/16 61/94/16 59/95/16
f 91/91/16 59/95/16 69/96/16
f 91/91/16 69/96/16 67/97/16
f 97/108/5 77/110/5 75/113/5
f 77/110/5 97/108/5 98/109/5
f 71/111/1 95/124/1 92/105/1
f 95/124/1 71/111/1 72/119/1
f 95/124/1 72/119/1 88/126/1
f 88/126/1 72/119/1 87/127/1
f 87/127/1 72/119/1 99/128/1
f 99/128/1 72/119/1 100/129/1
f 101/130/1 92/105/1 95/124/1
f 92/105/1 101/130/1 79/118/1
f 79/118/1 101/130/1 100/129/1
f 79/118/1 100/129/1 72/119/1
f 101/130/1 95/124/1 93/125/1
f 101/130/1 93/125/1 102/131/1
f 87/127/1 102/131/1 93/125/1
f 102/131/1 87/127/1 99/128/1
f 97/57/16 76/132/16 84/73/16
f 76/132/16 97/57/16 75/133/16
f 63/80/5 62/79/5 61/78/5
f 62/79/5 63/80/5 64/81/5
f 105/106/5 104/112/5 103/104/5
f 104/112/5 105/106/5 106/107/5
f 105/57/16 81/135/16 82/134/16
f 81/135/16 105/57/16 103/133/16
f 102/138/15 108/137/15 107/136/15
f 108/137/15 102/138/15 99/139/15
f 108/128/1 109/130/1 107/131/1
f 109/130/1 108/128/1 110/129/1
f 102/114/3 109/140/3 101/115/3
f 109/140/3 102/114/3 107/141/3
f 82/97/6 106/143/6 105/142/6
f 106/143/6 82/97/6 83/96/6
f 110/144/6 99/120/6 100/122/6
f 99/120/6 110/144/6 108/145/6
f 100/148/16 109/147/16 110/146/16
f 109/147/16 100/148/16 101/149/16
f 104/151/3 81/92/3 103/150/3
f 81/92/3 104/151/3 86/93/3
f 104/154/15 83/153/15 86/152/15
f 83/153/15 104/154/15 106/59/15
f 95/157/15 90/156/15 96/155/15
f 90/156/15 95/157/15 88/158/15
f 87/161/16 94/160/16 89/159/16
f 94/160/16 87/161/16 93/162/16
f 77/154/15 85/61/15 78/163/15
f 85/61/15 77/154/15 98/59/15
f 84/93/6 98/165/6 97/164/6
f 98/165/6 84/93/6 85/92/6

g path

v 0.1097988 0.22 0.06039989
v 0.0854699 0.22 0.08394271
v 0.1015746 0.22 0.02755901
v 0.06902146 0.22 0.01826096
v 0.05291676 0.22 0.07464465
v 0.04469254 0.22 0.04180378
v 0.04480711 0.2 0.08249226
v 0.03384149 0.2 0.03870443
v 0.1206499 0.2 0.06349924
v 0.08821131 0.2 0.09488967
v 0.06628006 0.2 0.007313997
v 0.1096843 0.2 0.01971141

vn -0.2971229 0.7345532 0.07440737
vn 0.2130001 0.7345532 0.2201123
vn -0.08412276 0.7345532 0.2945196
vn -0.2130001 0.7345532 -0.2201123
vn 0.2971229 0.7345532 -0.07440737
vn 0.08412276 0.7345532 -0.2945196

vt -2.839211 0.8109553
vt -0.7172976 2.864306
vt -2.121913 -2.053351
vt 0.7172976 -2.864306
vt 2.121913 2.053351
vt 2.839211 -0.8109553
vt 1.476378 -1.344079
vt 1.968504 -2.504495
vt -1.476378 -1.344079
vt -1.968504 -2.504495
vt 3.785615 1.081274
vt 2.829218 -2.737802
vt 0.9563968 3.819075
vt -0.9563968 -3.819075
vt -2.829218 2.737802
vt -3.785615 -1.081274

usemtl dirt

f 113/168/5 112/167/5 111/166/5
f 112/167/5 113/168/5 114/169/5
f 112/167/5 114/169/5 115/170/5
f 115/170/5 114/169/5 116/171/5
f 116/174/17 117/173/17 115/172/17
f 117/173/17 116/174/17 118/175/17
f 111/172/18 120/175/18 119/173/18
f 120/175/18 111/172/18 112/174/18
f 112/172/19 117/175/19 120/173/19
f 117/175/19 112/172/19 115/174/19
f 121/175/20 116/172/20 114/174/20
f 116/172/20 121/175/20 118/173/20
f 122/173/21 111/174/21 119/175/21
f 111/174/21 122/173/21 113/172/21
f 121/173/22 113/174/22 122/175/22
f 113/174/22 121/173/22 114/172/22
f 120/178/1 122/177/1 119/176/1
f 122/177/1 120/178/1 121/179/1
f 121/179/1 120/178/1 117/180/1
f 121/179/1 117/180/1 118/181/1

g path

v 0.16778 0.22 -0.1081855
v 0.1278965 0.22 -0.06959069
v 0.1542976 0.22 -0.162023
v 0.1009318 0.22 -0.1772657
v 0.07453068 0.22 -0.08483341
v 0.06104835 0.22 -0.1386709
v 0.06123618 0.2 -0.07196848
v 0.04325975 0.2 -0.1437518
v 0.1855686 0.2 -0.1031046
v 0.1323906 0.2 -0.05164485
v 0.09643773 0.2 -0.1952115
v 0.1675921 0.2 -0.1748879

vn -0.4870866 0.7345532 0.1219793
vn 0.3491805 0.7345532 0.3608398
vn -0.1379062 0.7345532 0.4828191
vn -0.3491805 0.7345532 -0.3608398
vn 0.4870866 0.7345532 -0.1219793
vn 0.1379062 0.7345532 -0.4828191


usemtl dirt

f 125/168/5 124/167/5 123/166/5
f 124/167/5 125/168/5 126/169/5
f 124/167/5 126/169/5 127/170/5
f 127/170/5 126/169/5 128/171/5
f 128/174/23 129/173/23 127/172/23
f 129/173/23 128/174/23 130/175/23
f 123/172/24 132/175/24 131/173/24
f 132/175/24 123/172/24 124/174/24
f 124/172/25 129/175/25 132/173/25
f 129/175/25 124/172/25 127/174/25
f 133/175/26 128/172/26 126/174/26
f 128/172/26 133/175/26 130/173/26
f 134/173/27 123/174/27 131/175/27
f 123/174/27 134/173/27 125/172/27
f 133/173/28 125/174/28 134/175/28
f 125/174/28 133/173/28 126/172/28
f 132/178/1 134/177/1 131/176/1
f 134/177/1 132/178/1 133/179/1
f 133/179/1 132/178/1 129/180/1
f 133/179/1 129/180/1 130/181/1

g tree

v 0.2611352 0.24928 -0.1942728
v 0.3678295 0.24928 -0.2558728
v 0.2821719 0.31088 -0.1886361
v 0.3621927 0.31088 -0.2348361
v 0.3227352 0.24928 -0.08757853
v 0.3283719 0.31088 -0.1086153
v 0.4294295 0.24928 -0.1491785
v 0.4083927 0.31088 -0.1548153
v 0.3495099 0.43408 -0.1875033
v 0.3610599 0.43408 -0.1674981
v 0.3295047 0.43408 -0.1759533
v 0.3410547 0.43408 -0.1559481
v 0.4294295 0.31088 -0.1491785
v 0.3227352 0.31088 -0.08757853
v 0.2611352 0.31088 -0.1942728
v 0.3678295 0.31088 -0.2558728
v 0.3705265 0.24928 -0.1649615
v 0.3385182 0.24928 -0.1464815
v 0.3200382 0.24928 -0.1784898
v 0.3520465 0.24928 -0.1969698
v 0.3705265 0.2 -0.1649615
v 0.3385182 0.2 -0.1464815
v 0.3200382 0.2 -0.1784898
v 0.3520465 0.2 -0.1969698

vn -0.2988039 0.1494019 -0.5175435
vn -0.5175435 0.1494019 0.2988039
vn 0.2988039 0.1494019 0.5175435
vn 0.5175435 0.1494019 -0.2988039
vn 0 0.616 0
vn 0.2853517 0.2318482 0.4942436
vn -0.4942436 0.2318482 0.2853517
vn 0.4942436 0.2318482 -0.2853517
vn 0 -0.616 0
vn -0.2853517 0.2318482 -0.4942436
vn 0.308 0 0.5334716
vn -0.308 0 -0.5334716
vn 0.5334716 0 -0.308
vn -0.5334716 0 0.308

vt 3.937008 2.100702
vt -3.937008 2.100702
vt 2.952756 6.158877
vt -2.952756 6.158877
vt -0.738189 -0.738189
vt -0.738189 0.738189
vt 0.738189 -0.738189
vt 0.738189 0.738189
vt 3.937008 5.083712
vt -3.937008 5.083712
vt 0.738189 13.58269
vt -0.738189 13.58269
vt 3.937008 -3.937008
vt 2.952756 2.952756
vt 2.952756 -2.952756
vt -2.952756 2.952756
vt -2.952756 -2.952756
vt -3.937008 -3.937008
vt 1.181102 1.181102
vt -1.181102 1.181102
vt -1.181102 -1.181102
vt 1.181102 -1.181102
vt 1.181102 0
vt -1.181102 0
vt 1.181102 3.149606
vt -1.181102 3.149606

usemtl foliage

f 137/184/29 136/183/29 135/182/29
f 136/183/29 137/184/29 138/185/29
f 139/182/30 137/185/30 135/183/30
f 137/185/30 139/182/30 140/184/30
f 142/184/31 139/183/31 141/182/31
f 139/183/31 142/184/31 140/185/31
f 138/184/32 141/183/32 136/182/32
f 141/183/32 138/184/32 142/185/32
f 145/188/33 144/187/33 143/186/33
f 144/187/33 145/188/33 146/189/33
f 144/192/34 148/191/34 147/190/34
f 148/191/34 144/192/34 146/193/34
f 148/190/35 145/193/35 149/191/35
f 145/193/35 148/190/35 146/192/35
f 143/192/36 147/191/36 150/190/36
f 147/191/36 143/192/36 144/193/36
f 147/132/37 142/195/37 150/194/37
f 142/195/37 147/132/37 148/163/37
f 150/194/37 142/195/37 138/196/37
f 142/195/37 148/163/37 140/197/37
f 140/197/37 148/163/37 137/198/37
f 138/196/37 149/199/37 150/194/37
f 149/199/37 138/196/37 137/198/37
f 149/199/37 137/198/37 148/163/37
f 145/192/38 150/191/38 149/190/38
f 150/191/38 145/192/38 143/193/38
f 141/132/37 151/200/37 136/194/37
f 151/200/37 141/132/37 139/163/37
f 151/200/37 139/163/37 152/201/37
f 152/201/37 139/163/37 153/202/37
f 154/203/37 136/194/37 151/200/37
f 136/194/37 154/203/37 135/199/37
f 135/199/37 154/203/37 153/202/37
f 135/199/37 153/202/37 139/163/37

usemtl wood

f 151/206/39 156/205/39 155/204/39
f 156/205/39 151/206/39 152/207/39
f 153/206/40 158/205/40 157/204/40
f 158/205/40 153/206/40 154/207/40
f 156/201/37 158/203/37 155/200/37
f 158/203/37 156/201/37 157/202/37
f 151/207/41 158/204/41 154/206/41
f 158/204/41 151/207/41 155/205/41
f 156/204/42 153/207/42 157/205/42
f 153/207/42 156/204/42 152/206/42

g tree

v 0.02707849 0.2616 -0.3450034
v 0.1758311 0.2616 -0.3848615
v 0.05065483 0.3386 -0.3313915
v 0.1622193 0.3386 -0.3612852
v 0.06693663 0.2616 -0.1962508
v 0.08054844 0.3386 -0.2198271
v 0.2156892 0.2616 -0.2361089
v 0.1921129 0.3386 -0.2497207
v 0.1315927 0.4926 -0.3082384
v 0.1390661 0.4926 -0.2803473
v 0.1037016 0.4926 -0.300765
v 0.111175 0.4926 -0.2728739
v 0.2156892 0.3386 -0.2361089
v 0.06693663 0.3386 -0.1962508
v 0.02707849 0.3386 -0.3450034
v 0.1758311 0.3386 -0.3848615
v 0.1496755 0.2616 -0.274222
v 0.1050497 0.2616 -0.2622645
v 0.09309225 0.2616 -0.3068903
v 0.137718 0.2616 -0.3188477
v 0.1496755 0.2 -0.274222
v 0.1050497 0.2 -0.2622645
v 0.09309225 0.2 -0.3068903
v 0.137718 0.2 -0.3188477

vn -0.1933404 0.1867524 -0.7215561
vn -0.7215561 0.1867524 0.1933404
vn 0.1933404 0.1867524 0.7215561
vn 0.7215561 0.1867524 -0.1933404
vn 0 0.77 0
vn 0.1846361 0.2898103 0.6890715
vn -0.6890715 0.2898103 0.1846361
vn 0.6890715 0.2898103 -0.1846361
vn 0 -0.77 0
vn -0.1846361 0.2898103 -0.6890715
vn 0.1992907 0 0.7437629
vn -0.1992907 0 -0.7437629
vn 0.7437629 0 -0.1992907
vn -0.7437629 0 0.1992907


usemtl foliage

f 161/184/43 160/183/43 159/182/43
f 160/183/43 161/184/43 162/185/43
f 163/182/44 161/185/44 159/183/44
f 161/185/44 163/182/44 164/184/44
f 166/184/45 163/183/45 165/182/45
f 163/183/45 166/184/45 164/185/45
f 162/184/46 165/183/46 160/182/46
f 165/183/46 162/184/46 166/185/46
f 169/188/47 168/187/47 167/186/47
f 168/187/47 169/188/47 170/189/47
f 168/192/48 172/191/48 171/190/48
f 172/191/48 168/192/48 170/193/48
f 172/190/49 169/193/49 173/191/49
f 169/193/49 172/190/49 170/192/49
f 167/192/50 171/191/50 174/190/50
f 171/191/50 167/192/50 168/193/50
f 171/132/51 166/195/51 174/194/51
f 166/195/51 171/132/51 172/163/51
f 174/194/51 166/195/51 162/196/51
f 166/195/51 172/163/51 164/197/51
f 164/197/51 172/163/51 161/198/51
f 162/196/51 173/199/51 174/194/51
f 173/199/51 162/196/51 161/198/51
f 173/199/51 161/198/51 172/163/51
f 169/192/52 174/191/52 173/190/52
f 174/191/52 169/192/52 167/193/52
f 165/132/51 175/200/51 160/194/51
f 175/200/51 165/132/51 163/163/51
f 175/200/51 163/163/51 176/201/51
f 176/201/51 163/163/51 177/202/51
f 178/203/51 160/194/51 175/200/51
f 160/194/51 178/203/51 159/199/51
f 159/199/51 178/203/51 177/202/51
f 159/199/51 177/202/51 163/163/51

usemtl wood

f 175/206/53 180/205/53 179/204/53
f 180/205/53 175/206/53 176/207/53
f 177/206/54 182/205/54 181/204/54
f 182/205/54 177/206/54 178/207/54
f 180/201/51 182/203/51 179/200/51
f 182/203/51 180/201/51 181/202/51
f 175/207/55 182/204/55 178/206/55
f 182/204/55 175/207/55 179/205/55
f 180/204/56 177/207/56 181/205/56
f 177/207/56 180/204/56 176/206/56

