# Created by Kenney (www.kenney.nl)

mtllib building_farm.mtl

g building_farm

v 0.5 0 0.2886751
v 0.5 0 -0.2886751
v 1.198373E-13 0 0.5773503
v -1.349974E-13 0 -0.5773503
v -0.5 0 0.2886751
v -0.5 0 -0.2886751
v 0.5 0.1 0.2886751
v 1.198373E-13 0.1 0.5773503
v 0.5 0.1 -0.2886751
v -1.349974E-13 0.1 -0.5773503
v -0.5 0.1 -0.2886751
v -0.5 0.1 0.2886751
v 0.4 0.2 0.2309401
v 9.384849E-14 0.2 0.4618802
v 0.4 0.2 -0.2309401
v -1.093696E-13 0.2 -0.4618802
v -0.4 0.2 0.2309401
v -0.4 0.2 -0.2309401
v 0.5 0.2 -0.2886751
v -1.349974E-13 0.2 -0.5773503
v -0.5 0.2 -0.2886751
v -0.5 0.2 0.2886751
v 0.5 0.2 0.2886751
v 1.198373E-13 0.2 0.5773503

vn 0 -1 0
vn 0.5 0 0.8660254
vn 1 0 0
vn 0.5 0 -0.8660254
vn -0.5 0 -0.8660254
vn -1 0 0
vn -0.5 0 0.8660254
vn 0 1 0

vt 19.68504 11.36516
vt 19.68504 -11.36516
vt 4.718004E-12 22.73033
vt -5.31486E-12 -22.73033
vt -19.68504 11.36516
vt -19.68504 -11.36516
vt 11.36516 0
vt -11.36516 0
vt 11.36516 3.937008
vt -11.36516 3.937008
vt -15.74803 9.092131
vt -3.694822E-12 18.18426
vt -15.74803 -9.092131
vt 4.305889E-12 -18.18426
vt 15.74803 9.092131
vt 15.74803 -9.092131
vt 5.31486E-12 -22.73033
vt -4.718004E-12 22.73033
vt -11.36516 7.874016
vt 11.36516 7.874016

usemtl dirt

f 3/3/1 2/2/1 1/1/1
f 2/2/1 3/3/1 4/4/1
f 4/4/1 3/3/1 5/5/1
f 4/4/1 5/5/1 6/6/1
f 7/9/2 3/8/2 1/7/2
f 3/8/2 7/9/2 8/10/2
f 7/10/3 2/7/3 9/9/3
f 2/7/3 7/10/3 1/8/3
f 10/9/4 2/8/4 4/7/4
f 2/8/4 10/9/4 9/10/4
f 11/9/5 4/8/5 6/7/5
f 4/8/5 11/9/5 10/10/5
f 5/7/6 11/10/6 6/8/6
f 11/10/6 5/7/6 12/9/6
f 8/9/7 5/8/7 3/7/7
f 5/8/7 8/9/7 12/10/7
f 15/13/8 14/12/8 13/11/8
f 14/12/8 15/13/8 16/14/8
f 14/12/8 16/14/8 17/15/8
f 17/15/8 16/14/8 18/16/8

usemtl grass

f 19/6/8 15/13/8 13/11/8
f 15/13/8 19/6/8 20/17/8
f 15/13/8 20/17/8 16/14/8
f 16/14/8 20/17/8 18/16/8
f 18/16/8 20/17/8 21/2/8
f 18/16/8 21/2/8 22/1/8
f 13/11/8 23/5/8 19/6/8
f 23/5/8 13/11/8 24/18/8
f 24/18/8 13/11/8 14/12/8
f 24/18/8 14/12/8 22/1/8
f 22/1/8 14/12/8 17/15/8
f 22/1/8 17/15/8 18/16/8
f 12/9/6 21/19/6 11/10/6
f 21/19/6 12/9/6 22/20/6
f 24/20/7 12/10/7 8/9/7
f 12/10/7 24/20/7 22/19/7
f 21/20/5 10/10/5 11/9/5
f 10/10/5 21/20/5 20/19/5
f 20/20/4 9/10/4 10/9/4
f 9/10/4 20/20/4 19/19/4
f 23/19/3 9/9/3 19/20/3
f 9/9/3 23/19/3 7/10/3
f 23/20/2 8/10/2 7/9/2
f 8/10/2 23/20/2 24/19/2

g fence

v 0.375 0.2 -0.1809401
v 0.375 0.2 0.1809401
v 0.375 0.3 -0.1809401
v 0.375 0.3 0.1809401
v 0.35 0.325 0.1809401
v 0.35 0.2 0.1809401
v 0.4 0.325 0.1809401
v 0.4 0.2 0.1809401
v 0.35 0.2 0.2309401
v 0.35 0.325 0.2309401
v 0.4 0.2 0.2309401
v 0.4 0.325 0.2309401
v 0.35 0.325 -0.2309401
v 0.35 0.2 -0.2309401
v 0.4 0.325 -0.2309401
v 0.4 0.2 -0.2309401
v 0.35 0.2 -0.1809401
v 0.35 0.325 -0.1809401
v 0.4 0.325 -0.1809401
v 0.4 0.2 -0.1809401

vn 1 0 -1.192093E-07
vn -1 0 1.192093E-07
vn -1.192093E-07 0 -1
vn 1.192093E-07 0 1

vt 7.123626 0
vt -7.123626 0
vt 7.123626 3.937008
vt -7.123626 3.937008
vt 0.984252 4.92126
vt 0.984252 1.15116E-14
vt -0.984252 4.92126
vt -1.831644E-12 1.741636E-15
vt -0.984252 1.15116E-14
vt 9.092131 9.769963E-15
vt 7.123626 9.769963E-15
vt 9.092131 4.92126
vt 7.123626 4.92126
vt -7.123626 1.818989E-12
vt -7.123626 -0.984252
vt -7.123626 0.984252
vt -9.092131 0.984252
vt -9.092131 -0.984252
vt -7.123626 9.769963E-15
vt -9.092131 9.769963E-15
vt -7.123626 4.92126
vt -9.092131 4.92126
vt -0.984252 9.769963E-15
vt 0.984252 9.769963E-15
vt 7.123626 0.984252
vt 9.092131 0.984252
vt 7.123626 -0.984252
vt 9.092131 -0.984252
vt -0.984252 -3.94371E-15
vt -1.697118E-12 -1.371367E-14
vt 0.984252 -3.94371E-15
vt 7.123626 -1.790568E-12
vt 9.092131 8.348877E-15
vt 7.123626 8.348877E-15

usemtl dirt

f 27/23/9 26/22/9 25/21/9
f 26/22/9 27/23/9 28/24/9
f 25/21/10 26/22/10 27/23/10
f 28/24/10 27/23/10 26/22/10
f 31/27/11 30/26/11 29/25/11
f 30/26/11 31/27/11 26/28/11
f 26/28/11 31/27/11 32/29/11
f 34/32/10 30/31/10 33/30/10
f 30/31/10 34/32/10 29/33/10
f 32/36/1 30/35/1 26/34/1
f 30/35/1 32/36/1 35/37/1
f 30/35/1 35/37/1 33/38/1
f 31/41/9 35/40/9 32/39/9
f 35/40/9 31/41/9 36/42/9
f 35/44/12 34/27/12 33/43/12
f 34/27/12 35/44/12 36/25/12
f 29/47/8 36/46/8 31/45/8
f 36/46/8 29/47/8 34/48/8
f 39/27/11 38/44/11 37/25/11
f 38/44/11 39/27/11 40/43/11
f 25/50/12 42/27/12 41/49/12
f 42/27/12 25/50/12 43/25/12
f 43/25/12 25/50/12 44/51/12
f 42/41/10 38/40/10 41/39/10
f 38/40/10 42/41/10 37/42/10
f 44/45/1 38/48/1 40/46/1
f 38/48/1 44/45/1 25/52/1
f 38/48/1 25/52/1 41/47/1
f 39/32/9 44/54/9 40/53/9
f 44/54/9 39/32/9 43/33/9
f 37/38/8 43/36/8 39/37/8
f 43/36/8 37/38/8 42/35/8

g grain

v -0.09820504 0.28 0.2299038
v -0.1665063 0.28 0.2116025
v 0.2482051 0.28 0.02990378
v 0.2665063 0.28 -0.03839749
v 0.06650631 0.28 -0.3848076
v -0.3665064 0.28 -0.1348076
v -0.3482051 0.28 -0.2031088
v -0.001794953 0.28 -0.4031089
v -0.3482051 0.2 -0.2031088
v -0.3665064 0.2 -0.1348076
v -0.001794953 0.2 -0.4031089
v 0.06650631 0.2 -0.3848076
v 0.2665063 0.2 -0.03839749
v 0.2482051 0.2 0.02990378
v -0.09820504 0.2 0.2299038
v -0.1665063 0.2 0.2116025

vn -0.9659258 0 -0.258819
vn -0.5000001 0 -0.8660253
vn 0.258819 0 -0.9659259
vn 0.8660253 0 -0.5000001
vn 0.9659258 0 0.258819
vn 0.5000001 0 0.8660253
vn -0.258819 0 0.9659259
vn -0.8660253 0 0.5000001

vt -9.84252 7.874016
vt -7.874016 9.84252
vt -9.84252 -7.874016
vt -7.874016 -9.84252
vt 7.874016 -9.84252
vt 7.874016 9.84252
vt 9.84252 7.874016
vt 9.84252 -7.874016
vt -1.391943 0
vt -1.391943 3.149606
vt 1.391943 0
vt 1.391943 3.149606
vt -7.874016 8.812395E-16
vt -7.874016 3.149606
vt 7.874016 8.812395E-16
vt 7.874016 3.149606
vt -1.391943 -6.158507E-29
vt 1.391943 -6.158507E-29
vt 7.874016 7.5139E-29
vt -7.874016 7.5139E-29
vt 1.391943 1.451502E-16
vt -1.391943 1.451502E-16
vt 7.874016 7.631758E-16
vt -7.874016 7.631758E-16
vt 7.874016 6.507229E-29
vt -7.874016 6.507229E-29

usemtl sand

f 47/57/8 46/56/8 45/55/8
f 46/56/8 47/57/8 48/58/8
f 46/56/8 48/58/8 49/59/8
f 46/56/8 49/59/8 50/60/8
f 50/60/8 49/59/8 51/61/8
f 51/61/8 49/59/8 52/62/8
f 54/65/13 51/64/13 53/63/13
f 51/64/13 54/65/13 50/66/13
f 53/69/14 52/68/14 55/67/14
f 52/68/14 53/69/14 51/70/14
f 55/72/15 49/64/15 56/71/15
f 49/64/15 55/72/15 52/66/15
f 49/70/16 57/74/16 56/73/16
f 57/74/16 49/70/16 48/68/16
f 48/66/17 58/76/17 57/75/17
f 58/76/17 48/66/17 47/64/17
f 45/68/18 58/77/18 47/70/18
f 58/77/18 45/68/18 59/78/18
f 45/66/19 60/63/19 59/65/19
f 60/63/19 45/66/19 46/64/19
f 46/70/20 54/80/20 60/79/20
f 54/80/20 46/70/20 50/68/20
f 60/60/1 58/62/1 59/61/1
f 58/62/1 60/60/1 57/59/1
f 57/59/1 60/60/1 54/56/1
f 57/59/1 54/56/1 56/58/1
f 56/58/1 54/56/1 53/55/1
f 56/58/1 53/55/1 55/57/1

g grainBundle

v 0.3410895 0.2 0.1758011
v 0.3410895 0.2 0.07580109
v 0.2410895 0.2 0.1758011
v 0.2410895 0.2 0.07580109
v 0.3410895 0.4 0.07580109
v 0.3410895 0.4 0.1758011
v 0.2410895 0.4 0.07580109
v 0.2410895 0.4 0.1758011
v 0.2660895 0.3 0.1008011
v 0.3160895 0.3 0.1008011
v 0.3160895 0.3 0.1508011
v 0.2660895 0.3 0.1508011

vn 0 0.2425356 -0.9701425
vn 0.9701425 0.2425356 0
vn 0 0.2425356 0.9701425
vn -0.9701425 0.2425356 0
vn 0 -0.2425356 0.9701425
vn 0.9701425 -0.2425356 0
vn -0.9701425 -0.2425356 0
vn 0 -0.2425356 -0.9701425

vt 1.968504 1.968504
vt 1.968504 -1.968504
vt -1.968504 1.968504
vt -1.968504 -1.968504
vt 1.968504 -0.4774323
vt -1.968504 -0.4774323
vt 0.984252 3.580743
vt -0.984252 3.580743
vt 0.984252 4.058175
vt -0.984252 4.058175
vt 1.968504 8.116349
vt -1.968504 8.116349

usemtl sand

f 63/83/1 62/82/1 61/81/1
f 62/82/1 63/83/1 64/84/1
f 67/82/8 66/83/8 65/84/8
f 66/83/8 67/82/8 68/81/8
f 69/87/21 62/86/21 64/85/21
f 62/86/21 69/87/21 70/88/21
f 70/87/22 61/86/22 62/85/22
f 61/86/22 70/87/22 71/88/22
f 71/87/23 63/86/23 61/85/23
f 63/86/23 71/87/23 72/88/23
f 63/85/24 69/88/24 64/86/24
f 69/88/24 63/85/24 72/87/24
f 66/91/25 72/90/25 71/89/25
f 72/90/25 66/91/25 68/92/25
f 66/92/26 70/89/26 65/91/26
f 70/89/26 66/92/26 71/90/26
f 69/90/27 68/91/27 67/92/27
f 68/91/27 69/90/27 72/89/27
f 67/91/28 70/90/28 69/89/28
f 70/90/28 67/91/28 65/92/28

g grainBundle

v 0.1633373 0.2 0.2953926
v 0.2133373 0.2 0.2087901
v 0.07673472 0.2 0.2453926
v 0.1267347 0.2 0.1587901
v 0.2133373 0.3 0.2087901
v 0.1633373 0.3 0.2953926
v 0.1267347 0.3 0.1587901
v 0.07673472 0.3 0.2453926
v 0.1358854 0.25 0.1929407
v 0.1791866 0.25 0.2179407
v 0.1541866 0.25 0.261242
v 0.1108854 0.25 0.236242

vn 0 -0.5 0
vn 0 0.5 0
vn 0.4850713 0.1212678 -0.8401681
vn 0.8401681 0.1212678 0.4850713
vn -0.4850713 0.1212678 0.8401681
vn -0.8401681 0.1212678 -0.4850713
vn -0.4850713 -0.1212678 0.8401681
vn 0.8401681 -0.1212678 0.4850713
vn -0.8401681 -0.1212678 -0.4850713
vn 0.4850713 -0.1212678 -0.8401681


usemtl sand

f 75/83/29 74/82/29 73/81/29
f 74/82/29 75/83/29 76/84/29
f 79/82/30 78/83/30 77/84/30
f 78/83/30 79/82/30 80/81/30
f 81/87/31 74/86/31 76/85/31
f 74/86/31 81/87/31 82/88/31
f 82/87/32 73/86/32 74/85/32
f 73/86/32 82/87/32 83/88/32
f 83/87/33 75/86/33 73/85/33
f 75/86/33 83/87/33 84/88/33
f 75/85/34 81/88/34 76/86/34
f 81/88/34 75/85/34 84/87/34
f 78/91/35 84/90/35 83/89/35
f 84/90/35 78/91/35 80/92/35
f 78/92/36 82/89/36 77/91/36
f 82/89/36 78/92/36 83/90/36
f 81/90/37 80/91/37 79/92/37
f 80/91/37 81/90/37 84/89/37
f 79/91/38 82/90/38 81/89/38
f 82/90/38 79/91/38 77/92/38

