# Created by Kenney (www.kenney.nl)

mtllib dirt_lumber.mtl

g dirt_lumber

v 0.5 0 0.2886751
v 0.5 0 -0.2886751
v 1.198373E-13 0 0.5773503
v -1.349974E-13 0 -0.5773503
v -0.5 0 0.2886751
v -0.5 0 -0.2886751
v 0.5 0.1 0.2886751
v 1.198373E-13 0.1 0.5773503
v 0.5 0.1 -0.2886751
v -1.349974E-13 0.1 -0.5773503
v -0.5 0.1 0.2886751
v -0.5 0.1 -0.2886751

vn 0 -1 0
vn 0 1 0
vn -1 0 0
vn -0.5 0 0.8660254
vn 0.5 0 0.8660254
vn 1 0 0
vn 0.5 0 -0.8660254
vn -0.5 0 -0.8660254

vt 19.68504 11.36516
vt 19.68504 -11.36516
vt 4.718004E-12 22.73033
vt -5.31486E-12 -22.73033
vt -19.68504 11.36516
vt -19.68504 -11.36516
vt -4.718004E-12 22.73033
vt 5.31486E-12 -22.73033
vt -11.36516 0
vt -11.36516 3.937008
vt 11.36516 0
vt 11.36516 3.937008

usemtl dirt

f 3/3/1 2/2/1 1/1/1
f 2/2/1 3/3/1 4/4/1
f 4/4/1 3/3/1 5/5/1
f 4/4/1 5/5/1 6/6/1
f 9/6/2 8/7/2 7/5/2
f 8/7/2 9/6/2 10/8/2
f 8/7/2 10/8/2 11/1/2
f 11/1/2 10/8/2 12/2/2
f 5/11/3 12/10/3 6/9/3
f 12/10/3 5/11/3 11/12/3
f 8/12/4 5/9/4 3/11/4
f 5/9/4 8/12/4 11/10/4
f 7/12/5 3/9/5 1/11/5
f 3/9/5 7/12/5 8/10/5
f 7/10/6 2/11/6 9/12/6
f 2/11/6 7/10/6 1/9/6
f 10/12/7 2/9/7 4/11/7
f 2/9/7 10/12/7 9/10/7
f 12/12/8 4/9/8 6/11/8
f 4/9/8 12/12/8 10/10/8

g log

v -0.2383908 0.1 0.3277383
v 0.0109046 0.1 0.4946269
v -0.210576 0.1 0.286189
v 0.03871938 0.1 0.4530777
v 0.0109046 0.15 0.4946269
v -0.2383908 0.15 0.3277383
v 0.03871938 0.15 0.4530777
v -0.210576 0.15 0.286189

vn 0 -0.5 0
vn 0 0.5 0
vn -0.2781478 0 0.4154923
vn 0.2781478 0 -0.4154923
vn 0.4154923 0 0.2781478
vn -0.4154923 0 -0.2781478

vt 1.968504 11.81102
vt 1.968504 -11.81102
vt -1.968504 11.81102
vt -1.968504 -11.81102
vt 11.81102 3.937008
vt 11.81102 0
vt -11.81102 3.937008
vt -11.81102 0
vt 1.968504 0
vt -1.968504 0
vt 1.968504 3.937008
vt -1.968504 3.937008

usemtl wood

f 15/15/9 14/14/9 13/13/9
f 14/14/9 15/15/9 16/16/9
f 19/14/10 18/15/10 17/16/10
f 18/15/10 19/14/10 20/13/10
f 18/19/11 14/18/11 17/17/11
f 14/18/11 18/19/11 13/20/11
f 15/18/12 19/19/12 16/20/12
f 19/19/12 15/18/12 20/17/12

usemtl dirt

f 19/23/13 14/22/13 16/21/13
f 14/22/13 19/23/13 17/24/13
f 18/23/14 15/22/14 13/21/14
f 15/22/14 18/23/14 20/24/14

g tree

v -0.3006842 0.18 -0.267015
v -0.1592628 0.18 -0.4084364
v -0.2653289 0.28 -0.267015
v -0.1592628 0.28 -0.373081
v -0.1592628 0.18 -0.1255936
v -0.1592628 0.28 -0.160949
v -0.01784149 0.18 -0.267015
v -0.05319683 0.28 -0.267015
v -0.1592628 0.48 -0.2935315
v -0.1327463 0.48 -0.267015
v -0.1857793 0.48 -0.267015
v -0.1592628 0.48 -0.2404985
v -0.01784149 0.28 -0.267015
v -0.1592628 0.28 -0.1255936
v -0.3006842 0.28 -0.267015
v -0.1592628 0.28 -0.4084364
v -0.1168364 0.18 -0.267015
v -0.1592628 0.18 -0.2245886
v -0.2016892 0.18 -0.267015
v -0.1592628 0.18 -0.3094414
v -0.1168364 0.1 -0.267015
v -0.1592628 0.1 -0.2245886
v -0.2016892 0.1 -0.267015
v -0.1592628 0.1 -0.3094414

vn -0.6859944 0.2425356 -0.6859943
vn -0.6859943 0.2425356 0.6859944
vn 0.6859944 0.2425356 0.6859943
vn 0.6859943 0.2425356 -0.6859944
vn 0.6551108 0.376377 0.6551107
vn -0.6551107 0.376377 0.6551108
vn 0.6551107 0.376377 -0.6551108
vn -0.6551108 0.376377 -0.6551107
vn 0.7071068 0 0.7071067
vn -0.7071068 0 -0.7071067
vn 0.7071067 0 -0.7071068
vn -0.7071067 0 0.7071068

vt 3.937008 2.100702
vt -3.937008 2.100702
vt 2.952756 6.158877
vt -2.952756 6.158877
vt -0.738189 -0.738189
vt -0.738189 0.738189
vt 0.738189 -0.738189
vt 0.738189 0.738189
vt 3.937008 5.083712
vt -3.937008 5.083712
vt 0.738189 13.58269
vt -0.738189 13.58269
vt 3.937008 -3.937008
vt 2.952756 2.952756
vt 3.937008 3.937008
vt -3.937008 3.937008
vt 2.952756 -2.952756
vt -2.952756 2.952756
vt -2.952756 -2.952756
vt -3.937008 -3.937008
vt 1.181102 1.181102
vt -1.181102 1.181102
vt -1.181102 -1.181102
vt 1.181102 -1.181102
vt 1.181102 0
vt -1.181102 0
vt 1.181102 3.149606
vt -1.181102 3.149606

usemtl foliage

f 23/27/15 22/26/15 21/25/15
f 22/26/15 23/27/15 24/28/15
f 25/25/16 23/28/16 21/26/16
f 23/28/16 25/25/16 26/27/16
f 28/27/17 25/26/17 27/25/17
f 25/26/17 28/27/17 26/28/17
f 24/27/18 27/26/18 22/25/18
f 27/26/18 24/27/18 28/28/18
f 31/31/2 30/30/2 29/29/2
f 30/30/2 31/31/2 32/32/2
f 30/35/19 34/34/19 33/33/19
f 34/34/19 30/35/19 32/36/19
f 34/33/20 31/36/20 35/34/20
f 31/36/20 34/33/20 32/35/20
f 29/35/21 33/34/21 36/33/21
f 33/34/21 29/35/21 30/36/21
f 33/39/1 28/38/1 36/37/1
f 28/38/1 33/39/1 34/40/1
f 36/37/1 28/38/1 24/41/1
f 28/38/1 34/40/1 26/42/1
f 26/42/1 34/40/1 23/43/1
f 24/41/1 35/44/1 36/37/1
f 35/44/1 24/41/1 23/43/1
f 35/44/1 23/43/1 34/40/1
f 31/35/22 36/34/22 35/33/22
f 36/34/22 31/35/22 29/36/22
f 27/39/1 37/45/1 22/37/1
f 37/45/1 27/39/1 25/40/1
f 37/45/1 25/40/1 38/46/1
f 38/46/1 25/40/1 39/47/1
f 40/48/1 22/37/1 37/45/1
f 22/37/1 40/48/1 21/44/1
f 21/44/1 40/48/1 39/47/1
f 21/44/1 39/47/1 25/40/1

usemtl wood

f 37/51/23 42/50/23 41/49/23
f 42/50/23 37/51/23 38/52/23
f 39/51/24 44/50/24 43/49/24
f 44/50/24 39/51/24 40/52/24
f 42/46/1 44/48/1 41/45/1
f 44/48/1 42/46/1 43/47/1
f 37/52/25 44/49/25 40/51/25
f 44/49/25 37/52/25 41/50/25
f 42/49/26 39/52/26 43/50/26
f 39/52/26 42/49/26 38/51/26

g tree

v 0.2473207 0.1616 0.1547335
v 0.3030109 0.1616 0.01115561
v 0.2722292 0.2386 0.1437475
v 0.3139968 0.2386 0.0360641
v 0.3908986 0.1616 0.2104236
v 0.3799126 0.2386 0.1855152
v 0.4465887 0.1616 0.06684577
v 0.4216802 0.2386 0.07783173
v 0.3656361 0.3926 0.1025502
v 0.3551942 0.3926 0.129471
v 0.3387152 0.3926 0.09210825
v 0.3282733 0.3926 0.1190291
v 0.4465887 0.2386 0.06684577
v 0.3908986 0.2386 0.2104236
v 0.2473207 0.2386 0.1547335
v 0.3030109 0.2386 0.01115561
v 0.3768449 0.1616 0.09760647
v 0.3337716 0.1616 0.08089942
v 0.3601379 0.1616 0.1406798
v 0.3170645 0.1616 0.1239728
v 0.3768449 0.1 0.09760647
v 0.3601379 0.1 0.1406798
v 0.3170645 0.1 0.1239728
v 0.3337716 0.1 0.08089942

vn -0.696455 0.1867524 -0.270137
vn -0.270137 0.1867524 0.696455
vn 0.696455 0.1867524 0.270137
vn 0.270137 0.1867524 -0.696455
vn 0 0.77 0
vn 0.6651005 0.2898103 0.2579754
vn -0.2579754 0.2898103 0.6651005
vn 0.2579754 0.2898103 -0.6651005
vn 0 -0.77 0
vn -0.6651005 0.2898103 -0.2579754
vn 0.7178894 0 0.2784508
vn -0.7178894 0 -0.2784508
vn 0.2784508 0 -0.7178894
vn -0.2784508 0 0.7178894


usemtl foliage

f 47/27/27 46/26/27 45/25/27
f 46/26/27 47/27/27 48/28/27
f 49/25/28 47/28/28 45/26/28
f 47/28/28 49/25/28 50/27/28
f 52/27/29 49/26/29 51/25/29
f 49/26/29 52/27/29 50/28/29
f 48/27/30 51/26/30 46/25/30
f 51/26/30 48/27/30 52/28/30
f 55/29/31 54/32/31 53/30/31
f 54/32/31 55/29/31 56/31/31
f 53/35/32 58/34/32 57/33/32
f 58/34/32 53/35/32 54/36/32
f 58/33/33 56/36/33 59/34/33
f 56/36/33 58/33/33 54/35/33
f 55/35/34 57/34/34 60/33/34
f 57/34/34 55/35/34 53/36/34
f 57/39/35 52/38/35 60/37/35
f 52/38/35 57/39/35 58/40/35
f 52/38/35 58/40/35 50/42/35
f 48/41/35 60/37/35 52/38/35
f 60/37/35 48/41/35 59/44/35
f 59/44/35 50/42/35 58/40/35
f 59/44/35 48/41/35 47/43/35
f 59/44/35 47/43/35 50/42/35
f 56/35/36 60/34/36 59/33/36
f 60/34/36 56/35/36 55/36/36
f 51/39/35 61/45/35 46/37/35
f 61/45/35 51/39/35 49/40/35
f 46/37/35 61/45/35 62/48/35
f 61/45/35 49/40/35 63/46/35
f 63/46/35 49/40/35 64/47/35
f 62/48/35 45/44/35 46/37/35
f 45/44/35 62/48/35 64/47/35
f 45/44/35 64/47/35 49/40/35

usemtl wood

f 61/51/37 66/50/37 65/49/37
f 66/50/37 61/51/37 63/52/37
f 64/51/38 68/50/38 67/49/38
f 68/50/38 64/51/38 62/52/38
f 65/45/35 67/47/35 68/48/35
f 67/47/35 65/45/35 66/46/35
f 61/52/39 68/49/39 62/51/39
f 68/49/39 61/52/39 65/50/39
f 66/49/40 64/52/40 67/50/40
f 64/52/40 66/49/40 63/51/40

g tree

v -0.4527657 0.1616 0.1951987
v -0.3193978 0.1616 0.1181987
v -0.4264697 0.2386 0.2022447
v -0.3264438 0.2386 0.1444947
v -0.3757657 0.1616 0.3285666
v -0.3687197 0.2386 0.3022706
v -0.2423978 0.1616 0.2515666
v -0.2686938 0.2386 0.2445206
v -0.3278598 0.3926 0.2286671
v -0.3528662 0.3926 0.2431047
v -0.3422973 0.3926 0.2036607
v -0.3673037 0.3926 0.2180982
v -0.2423978 0.2386 0.2515666
v -0.3757657 0.2386 0.3285666
v -0.4527657 0.2386 0.1951987
v -0.3193978 0.2386 0.1181987
v -0.3160266 0.1616 0.2318378
v -0.3391266 0.1616 0.1918275
v -0.3560369 0.1616 0.2549378
v -0.3791369 0.1616 0.2149275
v -0.3160266 0.1 0.2318378
v -0.3560369 0.1 0.2549378
v -0.3791369 0.1 0.2149275
v -0.3391266 0.1 0.1918275

vn -0.3735049 0.1867524 -0.6469294
vn -0.6469294 0.1867524 0.3735049
vn 0.3735049 0.1867524 0.6469294
vn 0.6469294 0.1867524 -0.3735049
vn 0.3566896 0.2898103 0.6178045
vn -0.6178045 0.2898103 0.3566896
vn 0.6178045 0.2898103 -0.3566896
vn -0.3566896 0.2898103 -0.6178045
vn 0.3850001 0 0.6668395
vn -0.3850001 0 -0.6668395
vn 0.6668395 0 -0.3850001
vn -0.6668395 0 0.3850001


usemtl foliage

f 71/27/41 70/26/41 69/25/41
f 70/26/41 71/27/41 72/28/41
f 73/25/42 71/28/42 69/26/42
f 71/28/42 73/25/42 74/27/42
f 76/27/43 73/26/43 75/25/43
f 73/26/43 76/27/43 74/28/43
f 72/27/44 75/26/44 70/25/44
f 75/26/44 72/27/44 76/28/44
f 79/29/31 78/32/31 77/30/31
f 78/32/31 79/29/31 80/31/31
f 77/35/45 82/34/45 81/33/45
f 82/34/45 77/35/45 78/36/45
f 82/33/46 80/36/46 83/34/46
f 80/36/46 82/33/46 78/35/46
f 79/35/47 81/34/47 84/33/47
f 81/34/47 79/35/47 77/36/47
f 81/39/35 76/38/35 84/37/35
f 76/38/35 81/39/35 82/40/35
f 76/38/35 82/40/35 74/42/35
f 72/41/35 84/37/35 76/38/35
f 84/37/35 72/41/35 83/44/35
f 83/44/35 74/42/35 82/40/35
f 83/44/35 72/41/35 71/43/35
f 83/44/35 71/43/35 74/42/35
f 80/35/48 84/34/48 83/33/48
f 84/34/48 80/35/48 79/36/48
f 75/39/35 85/45/35 70/37/35
f 85/45/35 75/39/35 73/40/35
f 70/37/35 85/45/35 86/48/35
f 85/45/35 73/40/35 87/46/35
f 86/48/35 69/44/35 70/37/35
f 69/44/35 87/46/35 73/40/35
f 69/44/35 86/48/35 88/47/35
f 69/44/35 88/47/35 87/46/35

usemtl wood

f 85/51/49 90/50/49 89/49/49
f 90/50/49 85/51/49 87/52/49
f 88/51/50 92/50/50 91/49/50
f 92/50/50 88/51/50 86/52/50
f 89/45/35 91/47/35 92/48/35
f 91/47/35 89/45/35 90/46/35
f 85/52/51 92/49/51 86/51/51
f 92/49/51 85/52/51 89/50/51
f 90/49/52 88/52/52 91/50/52
f 88/52/52 90/49/52 87/51/52

g tree

v 0.1389139 0.14928 0.376488
v 0.1389139 0.14928 0.253288
v 0.1543139 0.21088 0.361088
v 0.1543139 0.21088 0.268688
v 0.2621139 0.14928 0.376488
v 0.2467139 0.21088 0.361088
v 0.2621139 0.14928 0.253288
v 0.2467139 0.21088 0.268688
v 0.1889639 0.33408 0.303338
v 0.2120639 0.33408 0.303338
v 0.1889639 0.33408 0.326438
v 0.2120639 0.33408 0.326438
v 0.2621139 0.21088 0.253288
v 0.2621139 0.21088 0.376488
v 0.1389139 0.21088 0.376488
v 0.1389139 0.21088 0.253288
v 0.2189939 0.14928 0.296408
v 0.1820339 0.14928 0.296408
v 0.2189939 0.14928 0.333368
v 0.1820339 0.14928 0.333368
v 0.2189939 0.1 0.296408
v 0.2189939 0.1 0.333368
v 0.1820339 0.1 0.333368
v 0.1820339 0.1 0.296408

vn -0.5976079 0.1494019 5.960464E-08
vn 5.960464E-08 0.1494019 0.5976079
vn 0.5976079 0.1494019 -5.960464E-08
vn -5.960464E-08 0.1494019 -0.5976079
vn 0 0.616 0
vn 0.5707034 0.2318482 -5.960464E-08
vn 5.960464E-08 0.2318482 0.5707034
vn -5.960464E-08 0.2318482 -0.5707034
vn 0 -0.616 0
vn -0.5707034 0.2318482 5.960464E-08
vn 0.6160001 0 -5.960464E-08
vn -0.6160001 0 5.960464E-08
vn -5.960464E-08 0 -0.6160001
vn 5.960464E-08 0 0.6160001


usemtl foliage

f 95/27/53 94/26/53 93/25/53
f 94/26/53 95/27/53 96/28/53
f 97/25/54 95/28/54 93/26/54
f 95/28/54 97/25/54 98/27/54
f 100/27/55 97/26/55 99/25/55
f 97/26/55 100/27/55 98/28/55
f 96/27/56 99/26/56 94/25/56
f 99/26/56 96/27/56 100/28/56
f 103/31/57 102/30/57 101/29/57
f 102/30/57 103/31/57 104/32/57
f 102/35/58 106/34/58 105/33/58
f 106/34/58 102/35/58 104/36/58
f 106/33/59 103/36/59 107/34/59
f 103/36/59 106/33/59 104/35/59
f 101/35/60 105/34/60 108/33/60
f 105/34/60 101/35/60 102/36/60
f 105/39/61 100/38/61 108/37/61
f 100/38/61 105/39/61 106/40/61
f 100/38/61 106/40/61 98/42/61
f 98/42/61 106/40/61 95/43/61
f 96/41/61 108/37/61 100/38/61
f 108/37/61 96/41/61 107/44/61
f 107/44/61 96/41/61 95/43/61
f 107/44/61 95/43/61 106/40/61
f 103/35/62 108/34/62 107/33/62
f 108/34/62 103/35/62 101/36/62
f 99/39/61 109/45/61 94/37/61
f 109/45/61 99/39/61 97/40/61
f 94/37/61 109/45/61 110/48/61
f 109/45/61 97/40/61 111/46/61
f 110/48/61 93/44/61 94/37/61
f 93/44/61 111/46/61 97/40/61
f 93/44/61 110/48/61 112/47/61
f 93/44/61 112/47/61 111/46/61

usemtl wood

f 109/51/63 114/50/63 113/49/63
f 114/50/63 109/51/63 111/52/63
f 112/51/64 116/50/64 115/49/64
f 116/50/64 112/51/64 110/52/64
f 113/45/61 115/47/61 116/48/61
f 115/47/61 113/45/61 114/46/61
f 109/52/65 116/49/65 110/51/65
f 116/49/65 109/52/65 113/50/65
f 114/49/66 112/52/66 115/50/66
f 112/52/66 114/49/66 111/51/66

g tree

v -0.03710241 0.14928 -0.3708655
v 0.02945519 0.14928 -0.4745396
v -0.01582345 0.21088 -0.3755051
v 0.03409476 0.21088 -0.4532607
v 0.06657171 0.14928 -0.3043079
v 0.06193215 0.21088 -0.3255869
v 0.1331293 0.14928 -0.407982
v 0.1118504 0.21088 -0.4033425
v 0.04453378 0.33408 -0.405383
v 0.06397268 0.33408 -0.3929034
v 0.03205423 0.33408 -0.3859441
v 0.05149313 0.33408 -0.3734645
v 0.1331293 0.21088 -0.407982
v 0.06657171 0.21088 -0.3043079
v -0.03710241 0.21088 -0.3708655
v 0.02945519 0.21088 -0.4745396
v 0.07354821 0.14928 -0.3949912
v 0.05358093 0.14928 -0.363889
v 0.02247869 0.14928 -0.3838563
v 0.04244597 0.14928 -0.4149585
v 0.07354821 0.1 -0.3949912
v 0.05358093 0.1 -0.363889
v 0.02247869 0.1 -0.3838563
v 0.04244597 0.1 -0.4149585

vn -0.5028934 0.1494019 -0.3228518
vn -0.3228518 0.1494019 0.5028934
vn 0.5028934 0.1494019 0.3228518
vn 0.3228518 0.1494019 -0.5028934
vn 0.480253 0.2318482 0.308317
vn -0.308317 0.2318482 0.480253
vn 0.308317 0.2318482 -0.480253
vn -0.480253 0.2318482 -0.308317
vn 0.5183706 0 0.332788
vn -0.5183706 0 -0.332788
vn 0.332788 0 -0.5183706
vn -0.332788 0 0.5183706


usemtl foliage

f 119/27/67 118/26/67 117/25/67
f 118/26/67 119/27/67 120/28/67
f 121/25/68 119/28/68 117/26/68
f 119/28/68 121/25/68 122/27/68
f 124/27/69 121/26/69 123/25/69
f 121/26/69 124/27/69 122/28/69
f 120/27/70 123/26/70 118/25/70
f 123/26/70 120/27/70 124/28/70
f 127/31/57 126/30/57 125/29/57
f 126/30/57 127/31/57 128/32/57
f 126/35/71 130/34/71 129/33/71
f 130/34/71 126/35/71 128/36/71
f 130/33/72 127/36/72 131/34/72
f 127/36/72 130/33/72 128/35/72
f 125/35/73 129/34/73 132/33/73
f 129/34/73 125/35/73 126/36/73
f 129/39/61 124/38/61 132/37/61
f 124/38/61 129/39/61 130/40/61
f 132/37/61 124/38/61 120/41/61
f 124/38/61 130/40/61 122/42/61
f 122/42/61 130/40/61 119/43/61
f 120/41/61 131/44/61 132/37/61
f 131/44/61 120/41/61 119/43/61
f 131/44/61 119/43/61 130/40/61
f 127/35/74 132/34/74 131/33/74
f 132/34/74 127/35/74 125/36/74
f 123/39/61 133/45/61 118/37/61
f 133/45/61 123/39/61 121/40/61
f 133/45/61 121/40/61 134/46/61
f 134/46/61 121/40/61 135/47/61
f 136/48/61 118/37/61 133/45/61
f 118/37/61 136/48/61 117/44/61
f 117/44/61 136/48/61 135/47/61
f 117/44/61 135/47/61 121/40/61

usemtl wood

f 133/51/75 138/50/75 137/49/75
f 138/50/75 133/51/75 134/52/75
f 135/51/76 140/50/76 139/49/76
f 140/50/76 135/51/76 136/52/76
f 138/46/61 140/48/61 137/45/61
f 140/48/61 138/46/61 139/47/61
f 133/52/77 140/49/77 136/51/77
f 140/49/77 133/52/77 137/50/77
f 138/49/78 135/52/78 139/50/78
f 135/52/78 138/49/78 134/51/78

