# Created by Kenney (www.kenney.nl)

mtllib path_intersectionA.mtl

g path_intersectionA

v -0.35349 0.025 -0.3732627
v -0.2920963 0.025 -0.2669257
v -0.3708105 0 -0.3632627
v -0.3083105 0 -0.2550095
v 0.35349 0.025 -0.3732627
v 0.3708105 0 -0.3632627
v 0.2920963 0.025 -0.2669257
v 0.3083105 0 -0.2550095
v 0.1291894 0 -0.5027627
v 0.1465099 0.025 -0.4927627
v 0.06668945 0 -0.3945095
v 0.08290367 0.025 -0.3825934
v -0.03839562 0 0.0835
v -0.125 0 0.0835
v -0.04375461 0.025 0.0635
v -0.1272126 0.025 0.0635
v -0.375 0 -0.1395
v -0.2315685 0 -0.1716287
v -0.3727874 0.025 -0.1195
v -0.1933935 0.025 -0.1596842
v -0.375 0 0.1395
v -0.5 0 0.1395
v -0.3772126 0.025 0.1195
v -0.5 0.025 0.1195
v 0.1348131 0 -0.06650317
v 0.1185989 0.025 -0.07841934
v 0.07686992 0.025 -0.006142605
v 0.09151094 0 0.008498411
v -4.889467E-09 0.025 -0.2925178
v -5.200652E-09 0 -0.3220509
v -0.1291894 0 -0.5027627
v -0.06668945 0 -0.3945095
v -0.1465099 0.025 -0.4927627
v -0.08290367 0.025 -0.3825934
v -0.5 0 -0.1395
v -0.5 0.025 -0.1195

vn -0.6762522 0.6246951 0.3904344
vn 0.6762522 0.6246951 0.3904344
vn -0.6762522 0.6246951 -0.3904344
vn 0 0.6246951 0.7808689
vn -0.1706849 0.6246951 -0.7619861
vn 0.5745569 0.6246951 0.5288104
vn -0.5745569 0.6246951 -0.5288104
vn 0.3904344 0.6246951 0.6762522
vn 0.6762522 0.6246951 -0.3904344
vn 0.1706849 0.6246951 0.7619861
vn 0.5745568 0.6246951 -0.5288105
vn -0.5745568 0.6246951 0.5288105
vn 0 0.6246951 -0.7808689
vn 0 1 0
vn -0.5 0 -0.8660254
vn -1 0 0
vn 0.5 0 -0.8660254

vt -19.68504 -2.170446
vt -14.85089 -2.170446
vt -19.68504 -3.430904
vt -14.76378 -3.430904
vt 19.68504 -2.170446
vt 19.68504 -3.430904
vt 14.85089 -2.170446
vt 14.76378 -3.430904
vt -14.76378 -3.430904
vt -14.67667 -2.170446
vt -1.511639 -2.053623
vt -4.92126 -2.053623
vt -1.722622 -0.793166
vt -5.008369 -0.793166
vt 13.20628 -5.363902
vt 7.419434 -5.363902
vt 13.29339 -4.103445
vt 6.055614 -4.103445
vt -14.85089 -2.170446
vt 15.60725 -1.331976
vt 5.520826 -1.331976
vt 15.52014 -0.07151812
vt 5.433717 -0.07151812
vt 5.008369 -0.793166
vt 4.92126 -2.053623
vt 1.722622 -0.793166
vt 1.511639 -2.053623
vt -13.29339 -4.103445
vt -8.47371 -4.103445
vt -13.20628 -5.363902
vt -9.329228 -5.363902
vt 2.952818 -1.306333
vt -2.952818 -1.306333
vt 2.741835 -0.04587592
vt -2.741835 -0.04587592
vt 14.76378 -3.430904
vt 14.67667 -2.170446
vt -5.520826 -1.331976
vt -15.60725 -1.331976
vt -5.433717 -0.07151812
vt -15.52014 -0.07151812
vt 8.47371 -4.103445
vt 9.329228 -5.363902
vt -9.781966 -0.07151819
vt -11.14579 -1.331976
vt -15.52014 -0.07151819
vt 14.67667 -2.170446
vt 5.768108 -19.40011
vt 7.613917 -6.286781
vt 13.91693 -14.69538
vt 11.49986 -10.50888
vt 5.008369 2.5
vt 3.263924 -15.06273
vt 1.722622 2.5
vt 1.924987E-07 -11.51645
vt -3.026375 -0.2418348
vt -3.263924 -15.06273
vt -4.669248 -3.087375
vt -5.768108 -19.40011
vt -11.49986 -10.50889
vt -13.91693 -14.69538
vt 14.85089 4.704724
vt 14.67667 -4.704724
vt 19.68504 -4.704724
vt 19.68504 4.704724
vt 5.492126 -1.934356E-14
vt -5.492126 -1.934356E-14
vt 4.704724 0.984252
vt -4.704724 0.984252
vt -5.492126 -2.842171E-13
vt 5.492126 -2.842171E-13
vt 5.492126 -1.205268E-13
vt -5.492126 -1.205268E-13

usemtl wood

f 3/3/1 2/2/1 1/1/1
f 2/2/1 3/3/1 4/4/1
f 7/7/2 6/6/2 5/5/2
f 6/6/2 7/7/2 8/8/2
f 11/9/3 10/1/3 9/3/3
f 10/1/3 11/9/3 12/10/3
f 15/13/4 14/12/4 13/11/4
f 14/12/4 15/13/4 16/14/4
f 19/17/5 18/16/5 17/15/5
f 18/16/5 19/17/5 20/18/5
f 23/19/4 22/3/4 21/9/4
f 22/3/4 23/19/4 24/1/4
f 7/22/6 25/21/6 8/20/6
f 25/21/6 7/22/6 26/23/6
f 27/26/2 25/25/2 26/24/2
f 25/25/2 27/26/2 28/27/2
f 11/30/7 29/29/7 12/28/7
f 29/29/7 11/30/7 30/31/7
f 27/34/8 13/33/8 28/32/8
f 13/33/8 27/34/8 15/35/8
f 33/5/9 32/36/9 31/6/9
f 32/36/9 33/5/9 34/37/9
f 16/40/10 21/39/10 14/38/10
f 21/39/10 16/40/10 23/41/10
f 30/43/11 34/17/11 29/42/11
f 34/17/11 30/43/11 32/15/11
f 2/46/12 18/45/12 20/44/12
f 18/45/12 2/46/12 4/39/12
f 36/5/13 17/8/13 35/6/13
f 17/8/13 36/5/13 19/47/13

usemtl dirt

f 1/50/14 20/49/14 33/48/14
f 20/49/14 1/50/14 2/51/14
f 16/52/14 33/48/14 20/49/14
f 16/52/14 34/53/14 33/48/14
f 15/54/14 34/53/14 16/52/14
f 15/54/14 29/55/14 34/53/14
f 27/56/14 29/55/14 15/54/14
f 27/56/14 12/57/14 29/55/14
f 26/58/14 12/57/14 27/56/14
f 26/58/14 10/59/14 12/57/14
f 7/60/14 10/59/14 26/58/14
f 10/59/14 7/60/14 5/61/14
f 16/52/14 20/49/14 23/62/14
f 23/62/14 20/49/14 19/63/14
f 23/62/14 19/63/14 36/64/14
f 23/62/14 36/64/14 24/65/14
f 1/68/15 31/67/15 3/66/15
f 31/67/15 1/68/15 33/69/15
f 22/71/16 36/69/16 35/70/16
f 36/69/16 22/71/16 24/68/16
f 10/68/17 6/73/17 9/72/17
f 6/73/17 10/68/17 5/69/17

