# Created by Kenney (www.kenney.nl)

mtllib path_intersectionE.mtl

g path_intersectionE

v 0.3083105 0 0.2550095
v 0.2920963 0.025 0.2669257
v 0.1570679 0 0.09068321
v 0.1185989 0.025 0.07841933
v 0.125 0 -0.1955
v 0.375 0 -0.1395
v 0.1227874 0.025 -0.1755
v 0.3727874 0.025 -0.1195
v 0.1272126 0.025 0.0635
v -0.1291895 0 -0.5027627
v -0.06668945 0 -0.3945095
v -0.14651 0.025 -0.4927627
v -0.08511625 0.025 -0.3864257
v 0.375 0 0.1395
v 0.3772126 0.025 0.1195
v -0.5 0 -0.1395
v -0.375 0 -0.1395
v -0.5 0.025 -0.1195
v -0.3727874 0.025 -0.1195
v 0.08290367 0.025 0.3825934
v 0.14651 0.025 0.4927627
v 0.06668945 0 0.3945095
v 0.1291895 0 0.5027627
v -0.004422192 0 -0.1955
v -0.0191206 0.025 -0.1755
v -0.35349 0.025 -0.3732627
v -0.2898837 0.025 -0.2630934
v -0.3708105 0 -0.3632627
v -0.3083105 0 -0.2550095
v -0.375 0 0.1395
v -0.5 0 0.1395
v -0.3772126 0.025 0.1195
v -0.5 0.025 0.1195
v -0.09059375 0.025 0.194087
v -0.106808 0 0.2060032
v -0.2533279 0.025 -0.1462589
v -0.2789042 0 -0.1610254
v -0.1715191 0 0.09392027
v -0.1615478 0.025 0.07119108
v 0.5 0 -0.1395
v 0.5 0.025 -0.1195
v 0.5 0 0.1395
v 0.5 0.025 0.1195
v 0.3708105 0 0.3632627
v 0.35349 0.025 0.3732627

vn 0.5745568 0.6246951 -0.5288105
vn 0.1706849 0.6246951 -0.7619861
vn 0.4635914 0.8446561 0.2676547
vn 0.6762522 0.6246951 -0.3904344
vn -0.1706849 0.6246951 0.7619861
vn 0 0.6246951 -0.7808689
vn -0.6762522 0.6246951 0.3904344
vn 0 0.6246951 0.7808689
vn -0.5745568 0.6246951 0.5288105
vn -0.7452418 0.6246951 0.2331756
vn 0.1706849 0.6246951 0.7619861
vn -0.1706849 0.6246951 -0.7619861
vn 0.7452418 0.6246951 -0.2331756
vn -1 0 0
vn -0.5 0 -0.8660254
vn 0 1 0
vn 0.5 0 0.8660254
vn 1 0 0

vt -15.60725 -1.331976
vt -15.52014 -0.07151812
vt -6.81463 -1.331976
vt -5.433717 -0.07151812
vt -3.119853 -5.363902
vt -13.20628 -5.363902
vt -3.206962 -4.103445
vt -13.29339 -4.103445
vt 0.3391213 -4.192531
vt 7.152501E-12 -6.031191
vt -0.3391213 -4.192531
vt 19.68504 -3.430904
vt 14.76378 -3.430904
vt 19.68504 -2.170446
vt 14.85089 -2.170446
vt 15.60725 -1.331976
vt 6.81463 -1.331976
vt 15.52014 -0.07151812
vt 5.433717 -0.07151812
vt 14.67667 -2.170446
vt 0.1741019 -4.808184
vt -4.92126 -4.808184
vt 0.7527792 -3.547727
vt -4.83415 -3.547727
vt -19.68504 -2.170446
vt -14.67667 -2.170446
vt -19.68504 -3.430904
vt -14.76378 -3.430904
vt -14.85089 -2.170446
vt 13.29339 -4.103445
vt 13.20628 -5.363902
vt 3.206962 -4.103445
vt 3.119853 -5.363902
vt -8.47371 -4.103445
vt -9.329228 -5.363902
vt -7.397671 -1.331976
vt -6.818994 -0.07151812
vt -0.7527792 -3.547727
vt 4.83415 -3.547727
vt -0.1741019 -4.808184
vt 4.92126 -4.808184
vt 9.329228 -5.363902
vt 8.47371 -4.103445
vt 7.397671 -1.331976
vt 6.818994 -0.07151812
vt -5.492126 -2.4617E-13
vt -4.704724 0.984252
vt 5.492126 -2.4617E-13
vt 4.704724 0.984252
vt 5.492126 -1.443823E-13
vt -5.492126 -1.443823E-13
vt -13.91693 14.69538
vt -5.768109 19.40011
vt -11.49986 10.50889
vt -4.669248 3.087375
vt -3.263924 15.06273
vt 0.7527794 -6.909449
vt -4.83415 -6.909449
vt -5.008369 2.5
vt -14.67667 -4.704725
vt -14.85089 4.704724
vt -19.68504 -4.704725
vt -19.68504 4.704724
vt 3.566683 7.641222
vt 3.351034 -15.21361
vt 5.768109 -19.40011
vt 6.360148 2.802799
vt 11.41275 -10.35801
vt 13.91693 -14.69538
vt 9.973539 -5.758225
vt 14.85089 4.704725
vt 14.67667 -4.704724
vt 19.68504 -4.704724
vt 19.68504 4.704725
vt 5.492126 -2.506819E-13
vt -5.492126 -2.506819E-13
vt 5.492126 1.443823E-13
vt -5.492126 1.443823E-13

usemtl wood

f 3/3/1 2/2/1 1/1/1
f 2/2/1 3/3/1 4/4/1
f 7/7/2 6/6/2 5/5/2
f 6/6/2 7/7/2 8/8/2
f 4/11/3 3/10/3 9/9/3
f 12/14/4 11/13/4 10/12/4
f 11/13/4 12/14/4 13/15/4
f 15/18/5 3/17/5 14/16/5
f 3/17/5 15/18/5 9/19/5
f 18/14/6 17/13/6 16/12/6
f 17/13/6 18/14/6 19/20/6
f 22/13/7 21/14/7 20/20/7
f 21/14/7 22/13/7 23/12/7
f 25/23/6 5/22/6 24/21/6
f 5/22/6 25/23/6 7/24/6
f 28/27/7 27/26/7 26/25/7
f 27/26/7 28/27/7 29/28/7
f 32/29/8 31/27/8 30/28/8
f 31/27/8 32/29/8 33/25/8
f 34/32/9 22/31/9 20/30/9
f 22/31/9 34/32/9 35/33/9
f 29/6/10 36/34/10 27/8/10
f 36/34/10 29/6/10 37/35/10
f 39/37/11 30/1/11 38/36/11
f 30/1/11 39/37/11 32/2/11
f 8/26/6 40/27/6 6/28/6
f 40/27/6 8/26/6 41/25/6
f 43/14/8 14/13/8 42/12/8
f 14/13/8 43/14/8 15/15/8
f 38/40/7 34/39/7 39/38/7
f 34/39/7 38/40/7 35/41/7
f 19/30/12 37/42/12 17/31/12
f 37/42/12 19/30/12 36/43/12
f 13/18/13 24/44/13 11/16/13
f 24/44/13 13/18/13 25/45/13
f 2/29/4 44/27/4 1/28/4
f 44/27/4 2/29/4 45/25/4

usemtl dirt

f 31/48/14 18/47/14 16/46/14
f 18/47/14 31/48/14 33/49/14
f 26/49/15 10/51/15 28/50/15
f 10/51/15 26/49/15 12/47/15
f 2/54/16 21/53/16 45/52/16
f 21/53/16 2/54/16 4/55/16
f 21/53/16 4/55/16 20/56/16
f 4/55/16 25/57/16 20/56/16
f 4/55/16 7/58/16 25/57/16
f 9/59/16 7/58/16 4/55/16
f 9/59/16 8/60/16 7/58/16
f 15/61/16 8/60/16 9/59/16
f 15/61/16 41/62/16 8/60/16
f 41/62/16 15/61/16 43/63/16
f 20/56/16 25/57/16 34/64/16
f 34/64/16 25/57/16 13/65/16
f 34/64/16 13/65/16 12/66/16
f 34/64/16 12/66/16 39/67/16
f 39/67/16 12/66/16 27/68/16
f 27/68/16 12/66/16 26/69/16
f 39/67/16 27/68/16 36/70/16
f 36/70/16 32/71/16 39/67/16
f 32/71/16 36/70/16 19/72/16
f 32/71/16 19/72/16 18/73/16
f 32/71/16 18/73/16 33/74/16
f 45/49/17 23/76/17 44/75/17
f 23/76/17 45/49/17 21/47/17
f 41/49/18 42/78/18 40/77/18
f 42/78/18 41/49/18 43/47/18

