# Created by Kenney (www.kenney.nl)

mtllib path_intersectionB.mtl

g path_intersectionB

v 0.375 0 0.1395
v 0.125 0 0.1955
v 0.3727874 0.025 0.1195
v 0.1227874 0.025 0.1755
v 0.1291894 0 -0.5027627
v 0.14651 0.025 -0.4927627
v 0.06668945 0 -0.3945095
v 0.08290367 0.025 -0.3825934
v -0.375 0 0.1395
v -0.5 0 0.1395
v -0.3727874 0.025 0.1195
v -0.5 0.025 0.1195
v 0.1570679 0 -0.09068321
v 0.1272126 0.025 -0.0635
v 0.1185989 0.025 -0.07841934
v 0.375 0 -0.1395
v 0.3772126 0.025 -0.1195
v -0.5 0 -0.1395
v -0.375 0 -0.1395
v -0.5 0.025 -0.1195
v -0.3727874 0.025 -0.1195
v 0.5 0 0.1395
v 0.5 0.025 0.1195
v -0.125 0 0.1955
v -0.1227874 0.025 0.1755
v -0.125 0 -0.1955
v -0.106808 0 -0.2060032
v -0.1227874 0.025 -0.1755
v -0.09059376 0.025 -0.194087
v 0.5 0 -0.1395
v 0.5 0.025 -0.1195
v 0.35349 0.025 -0.3732627
v 0.3708105 0 -0.3632627
v 0.2920963 0.025 -0.2669257
v 0.3083105 0 -0.2550095

vn 0.1706849 0.6246951 0.7619861
vn -0.6762522 0.6246951 -0.3904344
vn 0 0.6246952 0.7808687
vn 0.4635916 0.844656 -0.2676547
vn -0.1706849 0.6246951 -0.7619861
vn 0 0.6246949 -0.7808689
vn 0 0.6246951 0.7808689
vn -0.1706849 0.6246951 0.7619861
vn -0.4024837 0.593319 -0.6971223
vn -0.1706849 0.6246949 -0.7619861
vn 0 0.6246951 -0.7808689
vn 0.6762522 0.6246951 0.3904344
vn 0.5745568 0.6246951 0.5288105
vn -0.5745568 0.6246951 -0.5288105
vn -1 0 0
vn 0 1 0
vn 1 0 0
vn 0.5 0 -0.8660254

vt 13.20628 -5.363902
vt 3.119853 -5.363902
vt 13.29339 -4.103445
vt 3.206962 -4.103445
vt -19.68504 -3.430904
vt -19.68504 -2.170447
vt -14.76378 -3.430904
vt -14.67667 -2.170447
vt -19.68504 -2.170446
vt 1.197491E-07 -6.03119
vt -0.3391213 -4.192531
vt 0.3391216 -4.192531
vt -6.81463 -1.331976
vt -15.60725 -1.331976
vt -5.433717 -0.07151805
vt -15.52014 -0.07151805
vt 19.68504 -3.430904
vt 14.76378 -3.430904
vt 19.68504 -2.170446
vt 14.67667 -2.170447
vt 14.76378 -3.430904
vt 14.67667 -2.170446
vt -3.119852 -5.363902
vt -13.20628 -5.363902
vt -3.206962 -4.103445
vt -13.29339 -4.103445
vt 0.4135107 -5.414806
vt -0.4135107 -5.414806
vt 0.7317724 -4.192083
vt -0.7317724 -4.192083
vt 13.20628 -5.363901
vt 3.119852 -5.363901
vt 13.29339 -4.103444
vt 3.206962 -4.103443
vt 4.92126 -4.808185
vt -4.92126 -4.808185
vt 4.83415 -3.547727
vt -4.83415 -3.547727
vt -14.76378 -3.430904
vt -19.68504 -3.430904
vt -14.85089 -2.170446
vt 19.68504 -2.170446
vt 19.68504 -3.430904
vt 14.85089 -2.170446
vt 15.60725 -1.331975
vt 6.81463 -1.331975
vt 15.52014 -0.07151791
vt 5.433717 -0.07151791
vt -13.29339 -4.103445
vt -3.119853 -5.363902
vt -5.492126 -2.41658E-13
vt -4.704724 0.984252
vt 5.492126 -2.41658E-13
vt 4.704724 0.984252
vt -13.91693 -14.69538
vt -11.49986 -10.50889
vt -5.768109 -19.40011
vt -4.669248 -3.087375
vt -3.263924 -15.06273
vt 4.83415 6.909449
vt -4.83415 6.909449
vt -5.008369 -2.5
vt -14.67667 4.704724
vt -14.85089 -4.704724
vt -19.68504 4.704724
vt -19.68504 -4.704724
vt 3.566683 -7.641222
vt 4.83415 -6.909449
vt 14.67667 4.704724
vt 14.67667 -4.704725
vt 19.68504 4.704724
vt 19.68504 -4.704724
vt 5.492126 -1.934356E-14
vt -5.492126 -1.934356E-14
vt 5.492126 2.523824E-25
vt -5.492126 2.523824E-25
vt 4.704725 0.984252

usemtl wood

f 3/3/1 2/2/1 1/1/1
f 2/2/1 3/3/1 4/4/1
f 7/7/2 6/6/2 5/5/2
f 6/6/2 7/7/2 8/8/2
f 11/8/3 10/5/3 9/7/3
f 10/5/3 11/8/3 12/9/3
f 15/12/4 14/11/4 13/10/4
f 14/15/5 16/14/5 13/13/5
f 16/14/5 14/15/5 17/16/5
f 20/19/6 19/18/6 18/17/6
f 19/18/6 20/19/6 21/20/6
f 23/19/7 1/21/7 22/17/7
f 1/21/7 23/19/7 3/22/7
f 25/25/8 9/24/8 24/23/8
f 9/24/8 25/25/8 11/26/8
f 28/29/9 27/28/9 26/27/9
f 27/28/9 28/29/9 29/30/9
f 21/33/10 26/32/10 19/31/10
f 26/32/10 21/33/10 28/34/10
f 4/37/7 24/36/7 2/35/7
f 24/36/7 4/37/7 25/38/7
f 17/41/11 30/40/11 16/39/11
f 30/40/11 17/41/11 31/9/11
f 34/44/12 33/43/12 32/42/12
f 33/43/12 34/44/12 35/18/12
f 34/47/13 13/46/13 35/45/13
f 13/46/13 34/47/13 15/48/13
f 7/24/14 29/25/14 8/49/14
f 29/25/14 7/24/14 27/50/14

usemtl dirt

f 10/53/15 20/52/15 18/51/15
f 20/52/15 10/53/15 12/54/15
f 6/57/16 34/56/16 32/55/16
f 34/56/16 6/57/16 15/58/16
f 15/58/16 6/57/16 8/59/16
f 25/60/16 15/58/16 8/59/16
f 4/61/16 15/58/16 25/60/16
f 4/61/16 14/62/16 15/58/16
f 3/63/16 14/62/16 4/61/16
f 3/63/16 17/64/16 14/62/16
f 23/65/16 17/64/16 3/63/16
f 17/64/16 23/65/16 31/66/16
f 25/60/16 8/59/16 29/67/16
f 25/60/16 29/67/16 28/68/16
f 25/60/16 28/68/16 11/69/16
f 11/69/16 28/68/16 21/70/16
f 11/69/16 21/70/16 12/71/16
f 12/71/16 21/70/16 20/72/16
f 31/54/17 22/74/17 30/73/17
f 22/74/17 31/54/17 23/52/17
f 6/77/18 33/76/18 5/75/18
f 33/76/18 6/77/18 32/52/18

