# Created by Kenney (www.kenney.nl)

mtllib path_cornerSharp.mtl

g path_cornerSharp

v -0.375 0 0.1395
v -0.5 0 0.1395
v -0.3727874 0.025 0.1195
v -0.5 0.025 0.1195
v 0.125 0 0.1955
v -0.125 0 0.1955
v 0.1227874 0.025 0.1755
v -0.1227874 0.025 0.1755
v 0.2336486 0.025 0.08336283
v 0.2553561 0 0.08576432
v 0.1890186 0.025 0.1606642
v 0.2019521 0 0.1782627
v -0.1291895 0 -0.5027627
v -0.06668945 0 -0.3945095
v -0.14651 0.025 -0.4927627
v -0.08290367 0.025 -0.3825934
v -0.5 0 -0.1395
v -0.375 0 -0.1395
v -0.5 0.025 -0.1195
v -0.3772126 0.025 -0.1195
v 0.231808 0 0.01050318
v 0.2133812 0.025 0.01858702
v 0.106808 0 -0.2060032
v 0.09059375 0.025 -0.194087
v -0.09906423 0.025 -0.05719476
v -0.1570679 0 -0.0906832
v -0.2920963 0.025 -0.2669257
v -0.3083105 0 -0.2550095
v -0.35349 0.025 -0.3732627
v -0.3708105 0 -0.3632627

vn 0 0.6246951 0.7808689
vn 0.6762522 0.6246951 0.3904344
vn 0.6762522 0.6246951 -0.3904344
vn 0 0.6246951 -0.7808689
vn 0.7452418 0.6246951 -0.2331756
vn 0.5745568 0.6246951 -0.5288105
vn -0.5745568 0.6246951 0.5288105
vn 0.1706849 0.6246951 -0.7619861
vn -0.6762522 0.6246951 0.3904344
vn 0.1706849 0.6246951 0.7619861
vn -0.1706849 0.6246951 0.7619861
vn -0.5 0 -0.8660254
vn 0 1 0
vn -1 0 0

vt -14.76378 -3.430904
vt -19.68504 -3.430904
vt -14.67667 -2.170447
vt -19.68504 -2.170447
vt 4.92126 -4.808185
vt -4.92126 -4.808185
vt 4.83415 -3.547727
vt -4.83415 -3.547727
vt 1.757085 -5.233101
vt 2.102519 -6.493558
vt -1.757086 -5.233101
vt -2.10252 -6.493558
vt 19.68504 -3.430904
vt 14.76378 -3.430904
vt 19.68504 -2.170446
vt 14.67667 -2.170446
vt 19.68504 -3.430903
vt 14.76378 -3.430903
vt 19.68504 -2.170446
vt 14.85089 -2.170446
vt -3.119853 -5.363902
vt -6.224541 -5.363902
vt -3.206962 -4.103445
vt -5.879107 -4.103445
vt 3.119853 -5.363902
vt 3.206962 -4.103445
vt 13.20628 -5.363902
vt 13.29339 -4.103445
vt -4.298051 -0.07151812
vt -6.81463 -1.331976
vt -15.52014 -0.07151812
vt -15.60725 -1.331976
vt 15.60725 -1.331975
vt 6.81463 -1.331975
vt 15.52014 -0.07151773
vt 4.298052 -0.07151773
vt 4.92126 -4.808184
vt -4.92126 -4.808184
vt 4.83415 -3.547727
vt -4.83415 -3.547727
vt -19.68504 -2.170446
vt -14.85089 -2.170446
vt -19.68504 -3.430904
vt -14.76378 -3.430904
vt 6.22454 -5.363902
vt 3.119852 -5.363902
vt 5.879107 -4.103445
vt 3.206962 -4.103445
vt -3.119852 -5.363903
vt -13.20628 -5.363903
vt -13.29339 -4.103445
vt 5.492126 4.511946E-15
vt -5.492126 4.511946E-15
vt 4.704724 0.984252
vt -4.704724 0.984252
vt 3.263924 -15.06273
vt 3.900167 -2.251762
vt 5.768109 -19.40011
vt 11.49986 -10.50889
vt 13.91693 -14.69538
vt -3.566683 -7.641222
vt 4.83415 6.90945
vt -4.83415 6.90945
vt -7.441678 6.325363
vt -8.400833 0.7317725
vt -9.198764 3.282001
vt 14.85089 -4.704724
vt 14.67667 4.704725
vt 19.68504 4.704725
vt 19.68504 -4.704724
vt -5.492126 6.251937E-14
vt -4.704724 0.984252
vt 5.492126 6.251937E-14
vt 4.704725 0.984252

usemtl wood

f 3/3/1 2/2/1 1/1/1
f 2/2/1 3/3/1 4/4/1
f 7/7/1 6/6/1 5/5/1
f 6/6/1 7/7/1 8/8/1
f 11/11/2 10/10/2 9/9/2
f 10/10/2 11/11/2 12/12/2
f 15/15/3 14/14/3 13/13/3
f 14/14/3 15/15/3 16/16/3
f 19/19/4 18/18/4 17/17/4
f 18/18/4 19/19/4 20/20/4
f 22/23/5 10/22/5 21/21/5
f 10/22/5 22/23/5 9/24/5
f 14/27/6 24/26/6 23/25/6
f 24/26/6 14/27/6 16/28/6
f 27/31/7 26/30/7 25/29/7
f 26/30/7 27/31/7 28/32/7
f 20/35/8 26/34/8 18/33/8
f 26/34/8 20/35/8 25/36/8
f 24/39/3 21/38/3 23/37/3
f 21/38/3 24/39/3 22/40/3
f 30/43/9 27/42/9 29/41/9
f 27/42/9 30/43/9 28/44/9
f 11/47/10 5/46/10 12/45/10
f 5/46/10 11/47/10 7/48/10
f 8/23/11 1/50/11 6/49/11
f 1/50/11 8/23/11 3/51/11

usemtl dirt

f 29/54/12 13/53/12 30/52/12
f 13/53/12 29/54/12 15/55/12
f 15/58/13 25/57/13 16/56/13
f 25/57/13 15/58/13 27/59/13
f 27/59/13 15/58/13 29/60/13
f 25/57/13 24/61/13 16/56/13
f 8/62/13 24/61/13 25/57/13
f 7/63/13 24/61/13 8/62/13
f 11/64/13 24/61/13 7/63/13
f 11/64/13 22/65/13 24/61/13
f 22/65/13 11/64/13 9/66/13
f 8/62/13 25/57/13 20/67/13
f 8/62/13 20/67/13 3/68/13
f 3/68/13 20/67/13 4/69/13
f 4/69/13 20/67/13 19/70/13
f 2/73/14 19/72/14 17/71/14
f 19/72/14 2/73/14 4/74/14

