# Created by Kenney (www.kenney.nl)

mtllib path_start.mtl

g path_start

v -0.375 0 0.1395
v -0.5 0 0.1395
v -0.3772126 0.025 0.1195
v -0.5 0.025 0.1195
v -0.5 0 -0.1395
v -0.375 0 -0.1395
v -0.5 0.025 -0.1195
v -0.3727874 0.025 -0.1195
v 0.12 6.3139E-19 -0.2638461
v 0.24 6.3139E-19 -0.056
v 0.108453 0.025 -0.2438461
v 0.216906 0.025 -0.056
v -0.1455421 0.025 0.06760582
v -0.108453 0.025 0.1318461
v -0.1555134 3.15695E-19 0.090335
v -0.12 6.3139E-19 0.1518461
v 0.108453 0.025 0.1318461
v 0.12 6.3139E-19 0.1518461
v -0.12 6.3139E-19 -0.2638461
v -0.108453 0.025 -0.2438461
v -0.1645781 3.15695E-19 -0.1866345
v -0.1516446 0.025 -0.169036
v 0.06370207 6.3139E-19 -0.2638461
v 0.06370207 0.025 -0.2438461

vn 0 0.6246951 0.7808689
vn 0 0.6246951 -0.7808689
vn 0.6762522 0.6246951 -0.3904344
vn -0.6762522 0.6246951 0.3904344
vn 0.6762522 0.6246951 0.3904344
vn -0.6762522 0.6246951 -0.3904344
vn -0.1706849 0.6246951 -0.7619861
vn 0.1706849 0.6246951 0.7619861
vn -1 0 0
vn 0 1 0

vt -14.76378 -3.430904
vt -19.68504 -3.430904
vt -14.85089 -2.170446
vt -19.68504 -2.170446
vt 19.68504 -3.430904
vt 14.76378 -3.430904
vt 19.68504 -2.170446
vt 14.67667 -2.170446
vt 6.633757 -5.800468
vt -2.815062 -5.800468
vt 6.17915 -4.54001
vt -2.360456 -4.54001
vt -0.5599493 -3.16273
vt 2.360456 -3.16273
vt 0.01872809 -4.423188
vt 2.815062 -4.423188
vt 6.17915 -3.16273
vt 6.633757 -4.423188
vt -2.360456 -3.16273
vt -2.815062 -4.423188
vt -6.633757 -5.800468
vt -6.17915 -4.54001
vt -3.123667 -5.800468
vt -2.778234 -4.54001
vt 4.72441 -6.489108
vt -2.507956 -6.489108
vt 4.269803 -5.228651
vt -4.72441 -6.489108
vt -4.269803 -5.228651
vt -2.507956 -5.228651
vt 4.72441 -3.734547
vt -4.72441 -3.734547
vt 4.269803 -2.47409
vt -4.269803 -2.47409
vt 13.20628 -5.363902
vt 4.71666 -5.363902
vt 13.29339 -4.103445
vt 4.371227 -4.103445
vt -15.60725 -1.331976
vt -15.52014 -0.07151812
vt -6.751913 -1.331976
vt -6.173235 -0.07151812
vt -5.492126 4.511946E-15
vt -4.704724 0.984252
vt 5.492126 4.511946E-15
vt 4.704724 0.984252
vt -8.539606 -2.204724
vt -4.269803 5.190791
vt -4.269803 -9.60024
vt 4.269803 5.190791
vt -2.507956 -9.60024
vt 4.269803 -9.60024
vt 5.970261 -6.65496
vt 5.730005 2.661646
vt 14.85089 4.704724
vt 14.67667 -4.704724
vt 19.68504 -4.704724
vt 19.68504 4.704724

usemtl wood

f 3/3/1 2/2/1 1/1/1
f 2/2/1 3/3/1 4/4/1
f 7/7/2 6/6/2 5/5/2
f 6/6/2 7/7/2 8/8/2
f 11/11/3 10/10/3 9/9/3
f 10/10/3 11/11/3 12/12/3
f 15/15/4 14/14/4 13/13/4
f 14/14/4 15/15/4 16/16/4
f 17/19/5 10/18/5 12/17/5
f 10/18/5 17/19/5 18/20/5
f 21/23/6 20/22/6 19/21/6
f 20/22/6 21/23/6 22/24/6
f 20/27/2 23/26/2 19/25/2
f 23/26/2 20/27/2 9/28/2
f 9/28/2 20/27/2 11/29/2
f 11/29/2 20/27/2 24/30/2
f 17/33/1 16/32/1 18/31/1
f 16/32/1 17/33/1 14/34/1
f 8/37/7 21/36/7 6/35/7
f 21/36/7 8/37/7 22/38/7
f 15/41/8 3/40/8 1/39/8
f 3/40/8 15/41/8 13/42/8

usemtl dirt

f 2/45/9 7/44/9 5/43/9
f 7/44/9 2/45/9 4/46/9
f 11/49/10 17/48/10 12/47/10
f 17/48/10 11/49/10 14/50/10
f 14/50/10 11/49/10 24/51/10
f 14/50/10 24/51/10 20/52/10
f 14/50/10 20/52/10 22/53/10
f 14/50/10 22/53/10 13/54/10
f 13/54/10 22/53/10 3/55/10
f 3/55/10 22/53/10 8/56/10
f 3/55/10 8/56/10 7/57/10
f 3/55/10 7/57/10 4/58/10

