# Created by Kenney (www.kenney.nl)

mtllib path_end.mtl

g path_end

v -0.375 0 0.1395
v -0.5 0 0.1395
v -0.3772126 0.025 0.1195
v -0.5 0.025 0.1195
v -0.5 0 -0.1395
v -0.375 0 -0.1395
v -0.5 0.025 -0.1195
v -0.3727874 0.025 -0.1195
v -0.125 0 0.0835
v -0.1272126 0.025 0.0635
v -0.125 0 -0.1955
v -0.1227874 0.025 -0.1755
v 0.04 9.554188E-18 0.0835
v -3.988561E-14 0.025 0.0635
v 0.04 9.554188E-18 -0.1955
v -7.814691E-14 0.025 -0.1755

vn 0 0.6246951 0.7808689
vn 0 0.6246951 -0.7808689
vn 0.1706849 0.6246951 0.7619861
vn -0.1706849 0.6246951 -0.7619861
vn 0.529999 0.8479983 0
vn -1 0 0
vn 0 1 0

vt -14.76378 -3.430904
vt -19.68504 -3.430904
vt -14.85089 -2.170446
vt -19.68504 -2.170446
vt 19.68504 -3.430904
vt 14.76378 -3.430904
vt 19.68504 -2.170446
vt 14.67667 -2.170446
vt -5.520826 -1.331976
vt -15.60725 -1.331976
vt -5.433717 -0.07151812
vt -15.52014 -0.07151812
vt 13.20628 -5.363902
vt 3.119853 -5.363902
vt 13.29339 -4.103445
vt 3.206962 -4.103445
vt -4.92126 -2.053623
vt -5.008369 -0.793166
vt 1.574803 -2.053623
vt -2.321206E-12 -0.793166
vt -3.287402 -1.33543
vt -2.5 0.5216525
vt 7.69685 -1.33543
vt 6.909449 0.5216525
vt 4.92126 -4.808184
vt -1.574803 -4.808184
vt 4.83415 -3.547727
vt 9.993279E-13 -3.547727
vt -5.492126 4.511946E-15
vt -4.704724 0.984252
vt 5.492126 4.511946E-15
vt 4.704724 0.984252
vt 1.57007E-12 2.5
vt 5.008369 2.5
vt 3.076421E-12 -6.909449
vt 4.83415 -6.909449
vt 14.67667 -4.704724
vt 14.85089 4.704724
vt 19.68504 -4.704724
vt 19.68504 4.704724

usemtl wood

f 3/3/1 2/2/1 1/1/1
f 2/2/1 3/3/1 4/4/1
f 7/7/2 6/6/2 5/5/2
f 6/6/2 7/7/2 8/8/2
f 10/11/3 1/10/3 9/9/3
f 1/10/3 10/11/3 3/12/3
f 8/15/4 11/14/4 6/13/4
f 11/14/4 8/15/4 12/16/4
f 13/19/1 10/18/1 9/17/1
f 10/18/1 13/19/1 14/20/1
f 15/23/5 14/22/5 13/21/5
f 14/22/5 15/23/5 16/24/5
f 12/27/2 15/26/2 11/25/2
f 15/26/2 12/27/2 16/28/2

usemtl dirt

f 2/31/6 7/30/6 5/29/6
f 7/30/6 2/31/6 4/32/6
f 16/35/7 10/34/7 14/33/7
f 10/34/7 16/35/7 12/36/7
f 10/34/7 12/36/7 8/37/7
f 10/34/7 8/37/7 3/38/7
f 3/38/7 8/37/7 7/39/7
f 3/38/7 7/39/7 4/40/7

