# Created by Kenney (www.kenney.nl)

mtllib river_straight.mtl

g river_straight

v -1.285002E-13 0 -0.5773503
v 0.5 0 -0.2886751
v -1.285002E-13 0.1 -0.5773503
v 0.5 0.1 -0.2886751
v 1.256126E-13 0 0.5773503
v -0.5 0 0.2886751
v 1.256126E-13 0.1 0.5773503
v -0.5 0.1 0.2886751
v -0.5 0 -0.2886751
v -0.5 0.1 -0.2886751
v 0.5 0 0.2886751
v 0.5 0.1 0.2886751
v 0.5 0.1 -0.1195
v 0.5 3.180766E-18 -0.1195
v 0.5 2.634756E-18 0.1195
v -0.5 1.446063E-17 0.1195
v -0.5 2.634756E-18 -0.1195
v 0.5 0.2 -0.1395
v 0.375 0.2 -0.1395
v 0.5 0.2 -0.2140876
v 0.375 0.2 -0.2140876
v 0.125 0.2 -0.1955
v 0.125 0.2 -0.2700876
v -0.125 0.2 -0.1955
v -0.125 0.2 -0.2700876
v -0.375 0.2 -0.1395
v -0.375 0.2 -0.2140876
v -0.5 0.2 -0.1395
v -0.5 0.2 -0.2140876
v 0.5 0.2 0.1395
v 0.5 0.2 0.2140876
v 0.375 0.2 0.1395
v 0.375 0.2 0.2140876
v 0.125 0.2 0.0835
v 0.125 0.2 0.1580876
v -0.125 0.2 0.0835
v -0.125 0.2 0.1580876
v -0.375 0.2 0.1395
v -0.375 0.2 0.2140876
v -0.5 0.2 0.1395
v -0.5 0.2 0.2140876
v -0.5 0.1 0.1195
v -0.5 0.1 -0.1195
v 0.5 0.1 0.1195
v -0.5 0.2 -0.2886751
v -1.285002E-13 0.2 -0.5773503
v 1.256126E-13 0.2 0.5773503
v -0.5 0.2 0.2886751
v 0.5 0.2 -0.2886751
v 0.5 0.1625 -0.1195
v 0.5 0.2 0.2886751
v -0.5 0.1625 0.1195
v -0.5 0.1625 -0.1195
v 0.5 0.1625 0.1195
v 0.3727874 0.1625 -0.1195
v 0.1227874 0.1625 -0.1755
v -0.3772126 0.1625 0.1195
v -0.1272126 0.1625 0.0635
v 0.1272126 0.1625 0.0635
v 0.3772126 0.1625 0.1195
v -0.1227874 0.1625 -0.1755
v -0.3727874 0.1625 -0.1195

vn 0.5 0 -0.8660254
vn -0.5 0 0.8660254
vn -0.5 0 -0.8660254
vn 0.5 0 0.8660254
vn 1 0 0
vn 0 -1 0
vn 0 1 0
vn -1 0 0
vn -0.1928676 0.4705882 0.8610161
vn -0.1928676 0.4705882 -0.8610161
vn 0.1928676 0.4705882 -0.8610161
vn 0 0.4705883 0.8823529
vn 0 0.4705883 -0.8823529
vn 0.1928676 0.4705882 0.8610161

vt 11.36516 0
vt -11.36516 0
vt 11.36516 3.937008
vt -11.36516 3.937008
vt 11.36516 -1.421085E-13
vt 4.704724 3.937008
vt 4.704724 -1.419833E-13
vt 19.68504 11.36516
vt 19.68504 4.704724
vt 4.945377E-12 22.73033
vt 19.68504 -4.704724
vt 19.68504 -11.36516
vt -5.059064E-12 -22.73033
vt -19.68504 11.36516
vt -19.68504 4.704724
vt -19.68504 -4.704724
vt -19.68504 -11.36516
vt -19.68504 -5.492126
vt -14.76378 -5.492126
vt -19.68504 -8.428644
vt -14.76378 -8.428644
vt -4.92126 -7.69685
vt -4.92126 -10.63337
vt 4.92126 -7.69685
vt 4.92126 -10.63337
vt 14.76378 -5.492126
vt 14.76378 -8.428644
vt 19.68504 -5.492126
vt 19.68504 -8.428644
vt -19.68504 5.492126
vt -19.68504 8.428644
vt -14.76378 5.492126
vt -14.76378 8.428644
vt -4.92126 3.287402
vt -4.92126 6.22392
vt 4.92126 3.287402
vt 4.92126 6.22392
vt 14.76378 5.492126
vt 14.76378 8.428644
vt 19.68504 5.492126
vt 19.68504 8.428644
vt 4.704724 -1.065245E-12
vt 11.36516 -1.065814E-12
vt -11.36516 -3.907985E-13
vt -4.704724 -3.906948E-13
vt -4.704724 3.937008
vt -4.704724 -3.551676E-13
vt -11.36516 -3.552714E-13
vt 11.36516 7.874016
vt -11.36516 7.874016
vt 8.428644 7.874016
vt 5.492126 7.874016
vt 4.704724 6.397638
vt 5.059064E-12 -22.73033
vt -4.945377E-12 22.73033
vt -8.428644 7.874016
vt -5.492126 7.874016
vt -4.704724 6.397638
vt 13.29339 9.315106
vt 3.206962 9.315106
vt 13.20628 10.98833
vt 3.119853 10.98833
vt 15.52014 6.277822
vt 5.433717 6.277822
vt 15.60725 7.95105
vt 5.520826 7.95105
vt -5.433717 6.277822
vt -15.52014 6.277822
vt -5.520826 7.95105
vt -15.60725 7.95105
vt 4.83415 8.89648
vt -4.83415 8.89648
vt 4.92126 10.56971
vt -4.92126 10.56971
vt 19.68504 7.858963
vt 14.67667 7.858963
vt 19.68504 9.532191
vt 14.76378 9.532191
vt -14.85089 7.858963
vt -19.68504 7.858963
vt -14.76378 9.532191
vt -19.68504 9.532191
vt -3.206962 9.315106
vt -13.29339 9.315106
vt -3.119853 10.98833
vt -13.20628 10.98833
vt 5.008369 6.821445
vt -5.008369 6.821445
vt 4.92126 8.494674
vt -4.92126 8.494674
vt 14.85089 7.858963
vt -14.67667 7.858963
vt -14.85089 4.704724
vt -14.67667 -4.704724
vt -5.008369 2.5
vt -4.83415 -6.909449
vt 5.008369 2.5
vt 4.83415 -6.909449
vt 14.67667 -4.704724
vt 14.85089 4.704724

usemtl dirt

f 3/3/1 2/2/1 1/1/1
f 2/2/1 3/3/1 4/4/1
f 7/3/2 6/2/2 5/1/2
f 6/2/2 7/3/2 8/4/2
f 10/3/3 1/2/3 9/1/3
f 1/2/3 10/3/3 3/4/3
f 12/3/4 5/2/4 11/1/4
f 5/2/4 12/3/4 7/4/4
f 13/6/5 2/5/5 4/3/5
f 2/5/5 13/6/5 14/7/5
f 5/10/6 15/9/6 11/8/6
f 15/9/6 5/10/6 14/11/6
f 14/11/6 5/10/6 2/12/6
f 2/12/6 5/10/6 1/13/6
f 1/13/6 5/10/6 6/14/6
f 1/13/6 6/14/6 16/15/6
f 1/13/6 16/15/6 17/16/6
f 1/13/6 17/16/6 9/17/6
f 20/20/7 19/19/7 18/18/7
f 19/19/7 20/20/7 21/21/7
f 19/19/7 21/21/7 22/22/7
f 22/22/7 21/21/7 23/23/7
f 22/22/7 23/23/7 24/24/7
f 24/24/7 23/23/7 25/25/7
f 24/24/7 25/25/7 26/26/7
f 26/26/7 25/25/7 27/27/7
f 26/26/7 27/27/7 28/28/7
f 28/28/7 27/27/7 29/29/7
f 32/32/7 31/31/7 30/30/7
f 31/31/7 32/32/7 33/33/7
f 33/33/7 32/32/7 34/34/7
f 33/33/7 34/34/7 35/35/7
f 35/35/7 34/34/7 36/36/7
f 35/35/7 36/36/7 37/37/7
f 37/37/7 36/36/7 38/38/7
f 37/37/7 38/38/7 39/39/7
f 39/39/7 38/38/7 40/40/7
f 39/39/7 40/40/7 41/41/7
f 6/43/8 42/6/8 16/42/8
f 42/6/8 6/43/8 8/3/8
f 17/45/8 10/4/8 9/44/8
f 10/4/8 17/45/8 43/46/8
f 12/4/5 15/47/5 44/46/5
f 15/47/5 12/4/5 11/48/5

usemtl grass

f 45/49/3 3/4/3 10/3/3
f 3/4/3 45/49/3 46/50/3
f 47/49/2 8/4/2 7/3/2
f 8/4/2 47/49/2 48/50/2
f 20/51/5 4/3/5 49/49/5
f 4/3/5 20/51/5 13/6/5
f 13/6/5 20/51/5 18/52/5
f 13/6/5 18/52/5 50/53/5
f 51/49/4 7/4/4 12/3/4
f 7/4/4 51/49/4 47/50/4
f 46/49/1 4/4/1 3/3/1
f 4/4/1 46/49/1 49/50/1
f 49/17/7 21/21/7 20/20/7
f 21/21/7 49/17/7 46/54/7
f 21/21/7 46/54/7 23/23/7
f 23/23/7 46/54/7 25/25/7
f 25/25/7 46/54/7 45/12/7
f 25/25/7 45/12/7 27/27/7
f 27/27/7 45/12/7 29/29/7
f 33/33/7 51/14/7 31/31/7
f 51/14/7 33/33/7 47/55/7
f 47/55/7 33/33/7 35/35/7
f 47/55/7 35/35/7 37/37/7
f 47/55/7 37/37/7 48/8/7
f 48/8/7 37/37/7 39/39/7
f 48/8/7 39/39/7 41/41/7
f 8/3/8 52/53/8 42/6/8
f 52/53/8 8/3/8 40/52/8
f 40/52/8 8/3/8 41/51/8
f 41/51/8 8/3/8 48/49/8
f 43/46/8 45/50/8 10/4/8
f 45/50/8 43/46/8 29/56/8
f 29/56/8 43/46/8 28/57/8
f 28/57/8 43/46/8 53/58/8
f 30/57/5 44/46/5 54/58/5
f 44/46/5 30/57/5 12/4/5
f 12/4/5 30/57/5 31/56/5
f 12/4/5 31/56/5 51/50/5

usemtl wood

f 19/61/9 56/60/9 55/59/9
f 56/60/9 19/61/9 22/62/9
f 38/65/10 58/64/10 57/63/10
f 58/64/10 38/65/10 36/66/10
f 34/69/11 60/68/11 59/67/11
f 60/68/11 34/69/11 32/70/11
f 22/73/12 61/72/12 56/71/12
f 61/72/12 22/73/12 24/74/12
f 18/77/12 55/76/12 50/75/12
f 55/76/12 18/77/12 19/78/12
f 32/81/13 54/80/13 60/79/13
f 54/80/13 32/81/13 30/82/13
f 24/85/14 62/84/14 61/83/14
f 62/84/14 24/85/14 26/86/14
f 36/89/13 59/88/13 58/87/13
f 59/88/13 36/89/13 34/90/13
f 40/77/13 57/91/13 52/75/13
f 57/91/13 40/77/13 38/78/13
f 26/81/12 53/80/12 62/92/12
f 53/80/12 26/81/12 28/82/12

usemtl water

f 50/16/7 60/93/7 54/15/7
f 60/93/7 50/16/7 55/94/7
f 60/93/7 55/94/7 59/95/7
f 59/95/7 55/94/7 56/96/7
f 59/95/7 56/96/7 58/97/7
f 58/97/7 56/96/7 61/98/7
f 58/97/7 61/98/7 62/99/7
f 58/97/7 62/99/7 57/100/7
f 57/100/7 62/99/7 53/11/7
f 57/100/7 53/11/7 52/9/7
f 16/42/8 43/46/8 17/45/8
f 43/46/8 16/42/8 53/58/8
f 53/58/8 16/42/8 52/53/8
f 52/53/8 16/42/8 42/6/8
f 54/58/5 13/6/5 50/53/5
f 13/6/5 54/58/5 14/7/5
f 14/7/5 54/58/5 15/47/5
f 15/47/5 54/58/5 44/46/5

