# Created by Kenney (www.kenney.nl)

mtllib river_end.mtl

g river_end

v 1.429385E-13 0.1 0.5773503
v -0.5 0.1 0.2886751
v 1.429385E-13 0.2 0.5773503
v -0.5 0.2 0.2886751
v -0.5 0.1 -0.2886751
v -1.118963E-13 0.1 -0.5773503
v -0.5 0.2 -0.2886751
v -1.118963E-13 0.2 -0.5773503
v 0.5 0.1 -0.2886751
v 0.5 0.2 -0.2886751
v -0.5 0.1 0.1195
v -0.5 0.1625 0.1195
v -0.5 0.2 0.1395
v -0.5 0.2 0.2140876
v 0.5 0.2 0.2886751
v 0.5 0.1 0.2886751
v 0.1145876 0.2 0.0835
v 0.1145876 0.2 -0.1955
v 0.04 0.2 -0.2700876
v -0.1332516 0.2 -0.2700876
v -0.3832515 0.2 -0.2140876
v -0.5 0.2 -0.2140876
v 0.04 0.2 0.1580876
v -0.1167484 0.2 0.1580876
v -0.3667484 0.2 0.2140876
v -0.5 0.1 -0.1195
v -0.5 0.2 -0.1395
v -0.5 0.1625 -0.1195
v 1.429385E-13 0 0.5773503
v -0.5 0 0.2886751
v -0.5 0 -0.2886751
v -1.118963E-13 0 -0.5773503
v 0.5 0 0.2886751
v 0.5 0 -0.2886751
v -0.5 2.634756E-18 0.1195
v -0.5 3.180766E-18 -0.1195
v 0.04 0.2 0.0835
v 0.04 0.2 -0.1955
v -0.125 0.2 -0.1955
v -0.375 0.2 -0.1395
v -0.125 0.2 0.0835
v -0.375 0.2 0.1395
v -0.1227874 0.1625 -0.1755
v -0.3727874 0.1625 -0.1195
v -0.3772126 0.1625 0.1195
v -0.1272126 0.1625 0.0635
v -1.111744E-13 0.1625 -0.1755
v -7.291305E-14 0.1625 0.0635

vn -0.5 0 0.8660254
vn -0.5 0 -0.8660254
vn 0.5 0 -0.8660254
vn -1 0 0
vn 1 0 0
vn 0.5 0 0.8660254
vn 0 1 0
vn 0 -1 0
vn 0.1928676 0.4705882 0.8610161
vn 0 0.4705883 -0.8823529
vn 0 0.4705883 0.8823529
vn -0.1928676 0.4705882 -0.8610161
vn -0.6839411 0.7295372 0

vt 11.36516 3.937008
vt -11.36516 3.937008
vt 11.36516 7.874016
vt -11.36516 7.874016
vt 4.704724 3.937008
vt 4.704724 6.397638
vt 5.492126 7.874016
vt 8.428644 7.874016
vt -4.511322 3.287402
vt -4.511322 -7.69685
vt -19.68504 -11.36516
vt 4.405394E-12 -22.73033
vt -1.574803 -10.63337
vt 5.246125 -10.63337
vt 19.68504 -11.36516
vt 15.08864 -8.428644
vt 19.68504 -8.428644
vt -5.62747E-12 22.73033
vt -19.68504 11.36516
vt -1.574803 6.22392
vt 4.596395 6.22392
vt 19.68504 11.36516
vt 14.43891 8.428644
vt 19.68504 8.428644
vt -4.704724 3.937008
vt -8.428644 7.874016
vt -5.492126 7.874016
vt -4.704724 6.397638
vt 11.36516 0
vt -11.36516 0
vt 5.627498E-12 22.73033
vt -4.405365E-12 -22.73033
vt -19.68504 4.704724
vt -19.68504 -4.704724
vt 4.704724 1.350135E-12
vt 11.36516 1.350031E-12
vt -1.574803 3.287402
vt -1.574803 -7.69685
vt 4.92126 -7.69685
vt 14.76378 -5.492126
vt 19.68504 -5.492126
vt 4.92126 3.287402
vt 14.76378 5.492126
vt 19.68504 5.492126
vt -11.36516 1.278977E-12
vt -4.704724 4.131188E-12
vt -3.206962 9.315106
vt -13.29339 9.315106
vt -3.119853 10.98833
vt -13.20628 10.98833
vt 19.68504 7.858963
vt 14.85089 7.858963
vt 19.68504 9.532191
vt 14.76378 9.532191
vt -14.67667 7.858963
vt -19.68504 7.858963
vt -14.76378 9.532191
vt -19.68504 9.532191
vt 15.52014 6.277822
vt 5.433717 6.277822
vt 15.60725 7.95105
vt 5.520826 7.95105
vt -2.299549E-12 8.89648
vt -4.83415 8.89648
vt 1.574803 10.56971
vt -4.92126 10.56971
vt 3.287402 6.534241
vt 2.5 4.375607
vt -7.69685 6.534241
vt -6.909449 4.375607
vt 3.621429E-12 6.821445
vt -1.574803 8.494674
vt 5.008369 6.821445
vt 4.92126 8.494674
vt 2.872857E-12 2.5
vt 5.008369 2.5
vt 4.379208E-12 -6.909449
vt 4.83415 -6.909449
vt 14.67667 -4.704724
vt 14.85089 4.704724
vt 19.68504 -4.704724
vt 19.68504 4.704724

usemtl grass

f 3/3/1 2/2/1 1/1/1
f 2/2/1 3/3/1 4/4/1
f 7/3/2 6/2/2 5/1/2
f 6/2/2 7/3/2 8/4/2
f 8/3/3 9/2/3 6/1/3
f 9/2/3 8/3/3 10/4/3
f 2/1/4 12/6/4 11/5/4
f 12/6/4 2/1/4 13/7/4
f 13/7/4 2/1/4 14/8/4
f 14/8/4 2/1/4 4/3/4
f 15/4/5 9/1/5 10/3/5
f 9/1/5 15/4/5 16/2/5
f 15/3/6 1/2/6 16/1/6
f 1/2/6 15/3/6 3/4/6
f 10/11/7 18/10/7 17/9/7
f 18/10/7 10/11/7 8/12/7
f 18/10/7 8/12/7 19/13/7
f 19/13/7 8/12/7 20/14/7
f 20/14/7 8/12/7 7/15/7
f 20/14/7 7/15/7 21/16/7
f 21/16/7 7/15/7 22/17/7
f 3/18/7 10/11/7 17/9/7
f 10/11/7 3/18/7 15/19/7
f 3/18/7 17/9/7 23/20/7
f 3/18/7 23/20/7 24/21/7
f 3/18/7 24/21/7 4/22/7
f 4/22/7 24/21/7 25/23/7
f 4/22/7 25/23/7 14/24/7
f 26/25/4 7/4/4 5/2/4
f 7/4/4 26/25/4 22/26/4
f 22/26/4 26/25/4 27/27/4
f 27/27/4 26/25/4 28/28/4

usemtl dirt

f 1/1/1 30/30/1 29/29/1
f 30/30/1 1/1/1 2/2/1
f 5/1/2 32/30/2 31/29/2
f 32/30/2 5/1/2 6/2/2
f 29/31/8 34/15/8 33/22/8
f 34/15/8 29/31/8 32/32/8
f 32/32/8 29/31/8 30/19/8
f 32/32/8 30/19/8 31/11/8
f 31/11/8 30/19/8 35/33/8
f 31/11/8 35/33/8 36/34/8
f 16/2/5 34/29/5 9/1/5
f 34/29/5 16/2/5 33/30/5
f 16/1/6 29/30/6 33/29/6
f 29/30/6 16/1/6 1/2/6
f 6/1/3 34/30/3 32/29/3
f 34/30/3 6/1/3 9/2/3
f 30/36/4 11/5/4 35/35/4
f 11/5/4 30/36/4 2/1/4
f 19/13/7 37/37/7 18/10/7
f 37/37/7 19/13/7 38/38/7
f 38/38/7 19/13/7 20/14/7
f 38/38/7 20/14/7 39/39/7
f 39/39/7 20/14/7 40/40/7
f 40/40/7 20/14/7 21/16/7
f 40/40/7 21/16/7 27/41/7
f 27/41/7 21/16/7 22/17/7
f 23/20/7 18/10/7 37/37/7
f 18/10/7 23/20/7 17/9/7
f 23/20/7 37/37/7 41/42/7
f 23/20/7 41/42/7 24/21/7
f 24/21/7 41/42/7 25/23/7
f 25/23/7 41/42/7 42/43/7
f 25/23/7 42/43/7 14/24/7
f 14/24/7 42/43/7 13/44/7
f 36/46/4 5/2/4 31/45/4
f 5/2/4 36/46/4 26/25/4

usemtl wood

f 39/49/9 44/48/9 43/47/9
f 44/48/9 39/49/9 40/50/9
f 13/53/10 45/52/10 12/51/10
f 45/52/10 13/53/10 42/54/10
f 40/57/11 28/56/11 44/55/11
f 28/56/11 40/57/11 27/58/11
f 42/61/12 46/60/12 45/59/12
f 46/60/12 42/61/12 41/62/12
f 38/65/11 43/64/11 47/63/11
f 43/64/11 38/65/11 39/66/11
f 38/69/13 48/68/13 37/67/13
f 48/68/13 38/69/13 47/70/13
f 46/73/10 37/72/10 48/71/10
f 37/72/10 46/73/10 41/74/10

usemtl water

f 47/77/7 46/76/7 48/75/7
f 46/76/7 47/77/7 43/78/7
f 46/76/7 43/78/7 44/79/7
f 46/76/7 44/79/7 45/80/7
f 45/80/7 44/79/7 28/81/7
f 45/80/7 28/81/7 12/82/7
f 35/35/4 26/25/4 36/46/4
f 26/25/4 35/35/4 28/28/4
f 28/28/4 35/35/4 12/6/4
f 12/6/4 35/35/4 11/5/4

