# Created by Kenney (www.kenney.nl)

mtllib river_intersectionE.mtl

g river_intersectionE

v -2.223983E-08 0.1 -0.5773503
v 0.4999999 0.1 -0.2886751
v -2.223983E-08 0.2 -0.5773503
v 0.4999999 0.2 -0.2886751
v -2.223958E-08 0.1 0.5773503
v -0.5 0.1 0.2886751
v -2.223958E-08 0.2 0.5773503
v -0.5 0.2 0.2886751
v -0.5 0.1 -0.2886751
v -0.35349 0.1 -0.3732627
v -0.5 0.2 -0.2886751
v -0.35349 0.1625 -0.3732627
v -0.4354053 0.2 -0.3259689
v -0.3708105 0.2 -0.3632627
v 0.4999999 0.1 0.2886751
v 0.3534901 0.1 0.3732627
v 0.4999999 0.2 0.2886751
v 0.3534901 0.1625 0.3732627
v 0.4354053 0.2 0.3259689
v 0.3708105 0.2 0.3632627
v 0.4999999 0.2 -0.2140876
v 0.5 0.1 -0.1195
v 0.5 0.2 -0.1395
v 0.5 0.1625 -0.1195
v -0.5 0.1 0.1195
v -0.4999999 0.1625 0.1195
v -0.4999999 0.2 0.1395
v -0.5 0.2 0.2140876
v 0.06459471 0.2 0.5400565
v 0.006220511 0.2 0.4389494
v -0.1672769 0.2 0.2504431
v -0.2087058 0.2 0.1786861
v -0.3667484 0.2 0.2140876
v 0.4999999 0.2 0.2140876
v 0.3708105 0.2 0.2140876
v -0.3708105 0.2 -0.2140876
v -0.5 0.2 -0.2140876
v 0.3832516 0.2 -0.2140875
v 0.1332516 0.2 -0.2700875
v 0.05039372 0.2 -0.2700875
v 0.002031052 0.2 -0.4246572
v -0.06459475 0.2 -0.5400565
v -0.1465099 0.1625 -0.4927627
v -0.1291894 0.2 -0.5027627
v -0.1465099 0.1 -0.4927627
v -0.5 0.1 -0.1195
v -0.5 0.2 -0.1395
v -0.5 0.1625 -0.1195
v 0.5 0.1625 0.1195
v 0.5 0.1 0.1195
v 0.5 0.2 0.1395
v 0.14651 0.1625 0.4927627
v 0.1291895 0.2 0.5027627
v 0.14651 0.13125 0.4927627
v 0.14651 0.1 0.4927627
v 0.4999999 0 -0.2886751
v 0.5 1.38921E-18 -0.1195
v -2.223983E-08 0 -0.5773503
v -2.223958E-08 0 0.5773503
v -0.5 0 0.2886751
v 0.375 0.2 0.1395
v 0.157068 0.2 0.09068324
v 0.3083106 0.2 0.2550096
v 0.5 -6.010353E-18 0.1195
v 0.4999999 0 0.2886751
v 0.3534901 2.634756E-18 0.3732627
v 0.14651 3.180766E-18 0.4927627
v -0.1465099 5.269513E-18 -0.4927627
v -0.35349 3.726776E-18 -0.3732627
v -0.5 5.269513E-18 0.1195
v -0.5 5.269513E-18 -0.1195
v -0.5 0 -0.2886751
v 0.375 0.2 -0.1395
v 0.125 0.2 -0.1955
v -0.004422172 0.2 -0.1955
v -0.06668944 0.2 -0.3945095
v -0.3083105 0.2 -0.2550095
v -0.375 0.2 -0.1395
v -0.2789042 0.2 -0.1610254
v 0.06668947 0.2 0.3945095
v -0.1068079 0.2 0.2060032
v -0.171519 0.2 0.0939203
v -0.375 0.2 0.1395
v -0.08511624 0.1625 -0.3864256
v 0.1272126 0.1625 0.06350002
v 0.3772126 0.1625 0.1195
v -0.2898837 0.1625 -0.2630933
v -0.2533279 0.1625 -0.1462589
v -0.3772126 0.1625 0.1195
v 0.1185989 0.1625 0.07841935
v 0.2920963 0.1625 0.2669257
v -0.01912058 0.1625 -0.1755
v 0.08290369 0.1625 0.3825934
v 0.1227874 0.1625 -0.1755
v -0.1615477 0.1625 0.0711911
v -0.3727874 0.1625 -0.1195
v -0.09059373 0.1625 0.194087
v 0.3727874 0.1625 -0.1195

vn 0.5 0 -0.8660254
vn -0.5 0 0.8660254
vn -0.4999999 0 -0.8660255
vn -0.4999998 0 -0.8660255
vn 0.5000002 0 0.8660253
vn 0.5000003 0 0.8660253
vn 1 0 0
vn -1 0 0
vn 0 1 0
vn -0.5000002 0 -0.8660253
vn 0.4999998 0 0.8660255
vn 0 -1 0
vn 0.4999999 0 0.8660254
vn 0.5 0 0.8660254
vn -0.5000001 0 -0.8660253
vn -0.7641401 0.4705882 0.4411765
vn 0.1928676 0.4705882 -0.8610161
vn 0.8420956 0.4705882 -0.2634798
vn 0 0.4705883 -0.8823529
vn -0.649228 0.4705882 0.5975363
vn -0.5966857 0.7247677 -0.3444967
vn -0.8420956 0.4705882 0.2634798
vn 0.7641401 0.4705882 -0.4411765
vn 0 0.4705883 0.8823529
vn -0.1928676 0.4705882 -0.8610161
vn -0.1928676 0.4705882 0.8610161
vn 0.1928676 0.4705882 0.8610161
vn 0.649228 0.4705882 -0.5975363

vt 11.36516 3.937008
vt -11.36516 3.937008
vt 11.36516 7.874016
vt -11.36516 7.874016
vt 11.36516 3.937008
vt -11.36516 3.937008
vt 11.36516 7.874016
vt -11.36516 7.874016
vt 11.36517 3.937007
vt 4.704727 3.937007
vt 11.36517 7.874015
vt 4.704729 6.397637
vt 8.42865 7.874015
vt 5.49213 7.874015
vt 11.36516 3.93701
vt 4.704721 3.93701
vt 11.36516 7.874015
vt 4.70472 6.397637
vt 8.428638 7.874015
vt 5.492121 7.874015
vt 11.36516 7.874017
vt 11.36516 3.937008
vt 8.42864 7.874017
vt 4.704722 3.937008
vt 5.492122 7.874017
vt 4.70472 6.397639
vt 4.704728 3.937008
vt 4.70473 6.397636
vt 11.36516 3.937008
vt 5.492132 7.874014
vt 8.428649 7.874014
vt 11.36517 7.874014
vt -2.543099 21.26207
vt 8.75574E-07 22.73033
vt -0.244902 17.28147
vt 6.585705 9.859963
vt 19.68504 11.36516
vt 8.216764 7.034885
vt 14.43891 8.428646
vt 19.68504 8.428644
vt -19.68504 8.428644
vt -19.68504 11.36516
vt -14.59884 8.428644
vt -17.14194 12.83342
vt 14.59884 -8.428644
vt 19.68504 -8.428644
vt 17.14194 -12.83342
vt 19.68504 -11.36516
vt -19.68504 -8.428644
vt -15.08864 -8.428643
vt -19.68504 -11.36516
vt 8.75584E-07 -22.73033
vt -5.246125 -10.63337
vt -1.984005 -10.63337
vt -0.07996267 -16.71879
vt 2.5431 -21.26207
vt -4.704729 6.397637
vt -8.428648 7.874015
vt -5.49213 7.874015
vt -11.36517 7.874015
vt -11.36517 3.937007
vt -4.704729 3.937007
vt -4.704727 3.937007
vt -5.492129 7.874015
vt -4.704727 6.397637
vt -4.70472 6.397639
vt -4.70472 3.937009
vt -5.492122 7.874017
vt -11.36516 3.937009
vt -8.428639 7.874017
vt -11.36516 7.874017
vt -4.70472 6.397639
vt -8.428641 7.874017
vt -11.36516 7.874017
vt -4.70472 5.167324
vt -11.36516 3.937009
vt -4.70472 3.937009
vt 11.36516 1.934584E-07
vt 4.704722 1.934584E-07
vt 11.36516 0
vt -11.36516 0
vt 11.36516 0
vt -11.36516 0
vt -19.68504 5.492126
vt -14.76378 5.492126
vt -6.183778 3.570206
vt -12.13821 10.03975
vt -14.59884 14.30168
vt 19.68504 4.704725
vt 19.68504 -4.704724
vt 19.68504 11.36516
vt 19.68504 -11.36516
vt 13.91693 14.69538
vt -8.75584E-07 -22.73033
vt 5.768109 19.40011
vt -8.75574E-07 22.73033
vt -19.68504 11.36516
vt -5.768108 -19.40011
vt -13.91693 -14.69538
vt -19.68504 4.704726
vt -19.68504 -4.704723
vt -19.68504 -11.36516
vt 11.36517 -7.903892E-07
vt 4.704727 -7.903892E-07
vt 11.36516 1.994004E-06
vt 4.704721 1.994004E-06
vt 4.704728 2.074611E-16
vt 11.36516 -7.996078E-23
vt -19.68504 -5.492126
vt -14.76378 -5.492126
vt -4.92126 -7.69685
vt 0.1741013 -7.696849
vt 2.625568 -15.53187
vt 5.086198 -19.79381
vt 14.59884 -14.30168
vt 12.13821 -10.03974
vt 14.76378 -5.492125
vt 10.98048 -6.339583
vt 19.68504 -5.492125
vt -5.0862 19.79381
vt -2.62557 15.53187
vt 4.205037 8.110362
vt 6.752718 3.697649
vt 14.76378 5.492127
vt 19.68504 5.492127
vt -4.704722 -2.366281E-16
vt -11.36516 1.241305E-23
vt -11.36516 8.527623E-08
vt -4.704723 2.425419E-06
vt -11.36516 8.014828E-30
vt -4.704727 2.074611E-16
vt -11.36516 -4.377245E-24
vt -4.704725 2.074611E-16
vt -19.68504 9.532191
vt -14.76378 9.532191
vt -19.68504 7.858963
vt -14.85089 7.858963
vt -5.433718 6.277822
vt -15.52014 6.277822
vt -6.814631 7.95105
vt -15.60725 7.95105
vt 13.29339 9.315106
vt 8.473709 9.315106
vt 13.20628 10.98833
vt 9.329227 10.98833
vt 19.68504 7.858963
vt 14.85089 7.858963
vt 19.68504 9.532191
vt 14.76378 9.532191
vt 5.433718 6.277822
vt 6.814631 7.95105
vt 15.52014 6.277822
vt 15.60725 7.95105
vt -0.3391209 8.457479
vt 3.975634E-07 10.60028
vt 0.3391217 8.457479
vt -15.60725 7.95105
vt -7.39767 7.95105
vt -15.52014 6.277822
vt -6.818993 6.277822
vt -14.67667 7.858963
vt -19.68504 7.858963
vt -14.76378 9.53219
vt -19.68504 9.53219
vt 4.834151 8.89648
vt -0.7527785 8.89648
vt 4.921261 10.56971
vt -0.1741011 10.56971
vt 15.52014 6.277822
vt 6.818993 6.277822
vt 15.60725 7.95105
vt 7.39767 7.95105
vt -14.67667 7.858962
vt -19.68504 7.858962
vt -14.76378 9.53219
vt -19.68504 9.53219
vt 0.7527781 8.89648
vt -4.834151 8.89648
vt 0.1741007 10.56971
vt -4.921261 10.56971
vt 14.76378 9.532191
vt 19.68504 9.532191
vt 14.85089 7.858963
vt 19.68504 7.858963
vt 13.29339 9.315106
vt 3.206963 9.315106
vt 13.20628 10.98833
vt 3.119853 10.98833
vt 19.68504 7.858963
vt 14.67667 7.858963
vt 19.68504 9.53219
vt 14.76378 9.53219
vt -8.473709 9.315106
vt -13.29339 9.315106
vt -9.329227 10.98833
vt -13.20628 10.98833
vt 19.68504 7.858962
vt 14.67667 7.858962
vt 19.68504 9.53219
vt 14.76378 9.53219
vt -14.85089 7.858963
vt -19.68504 7.858963
vt -14.76378 9.532191
vt -19.68504 9.532191
vt -3.206963 9.315106
vt -13.29339 9.315106
vt -3.119853 10.98834
vt -13.20628 10.98834
vt -13.91693 14.69538
vt -5.76811 19.40011
vt -11.49986 10.50889
vt -4.669249 3.087376
vt -3.263925 15.06273
vt 0.7527786 -6.909448
vt -4.834151 -6.909448
vt -5.00837 2.500001
vt -14.67667 -4.704724
vt -14.85089 4.704725
vt -19.68504 -4.704724
vt -19.68504 4.704725
vt 3.566682 7.641222
vt 3.351033 -15.21361
vt 5.768108 -19.4001
vt 6.360147 2.802799
vt 11.41275 -10.35801
vt 13.91693 -14.69538
vt 9.973538 -5.758224
vt 14.85089 4.704726
vt 14.67667 -4.704723
vt 19.68504 -4.704723
vt 19.68504 4.704726
vt -4.704726 3.937011
vt 4.704725 3.937006

usemtl grass

f 3/3/1 2/2/1 1/1/1
f 2/2/1 3/3/1 4/4/1
f 7/7/2 6/6/2 5/5/2
f 6/6/2 7/7/2 8/8/2
f 11/11/4 10/10/3 9/9/3
f 10/10/3 11/11/4 12/12/4
f 12/12/4 11/11/4 13/13/4
f 14/14/4 12/12/4 13/13/4
f 17/17/6 16/16/5 15/15/5
f 16/16/5 17/17/6 18/18/6
f 18/18/6 17/17/6 19/19/6
f 20/20/6 18/18/6 19/19/6
f 21/23/7 2/22/7 4/21/7
f 2/22/7 21/23/7 22/24/7
f 22/24/7 21/23/7 23/25/7
f 22/24/7 23/25/7 24/26/7
f 6/29/8 26/28/8 25/27/8
f 26/28/8 6/29/8 27/30/8
f 27/30/8 6/29/8 28/31/8
f 28/31/8 6/29/8 8/32/8
f 30/35/9 7/34/9 29/33/9
f 7/34/9 30/35/9 31/36/9
f 7/34/9 31/36/9 8/37/9
f 8/37/9 31/36/9 32/38/9
f 8/37/9 32/38/9 33/39/9
f 8/37/9 33/39/9 28/40/9
f 35/43/9 17/42/9 34/41/9
f 17/42/9 35/43/9 19/44/9
f 13/47/9 37/46/9 36/45/9
f 37/46/9 13/47/9 11/48/9
f 4/51/9 38/50/9 21/49/9
f 38/50/9 4/51/9 3/52/9
f 38/50/9 3/52/9 39/53/9
f 39/53/9 3/52/9 40/54/9
f 40/54/9 3/52/9 41/55/9
f 41/55/9 3/52/9 42/56/9
f 44/59/10 42/58/10 43/57/10
f 3/60/10 43/57/10 42/58/10
f 1/61/10 43/57/10 3/60/10
f 43/57/10 1/61/10 45/62/10
f 46/63/8 11/60/8 9/61/8
f 11/60/8 46/63/8 37/58/8
f 37/58/8 46/63/8 47/64/8
f 47/64/8 46/63/8 48/65/8
f 51/68/7 50/67/7 49/66/7
f 50/67/7 51/68/7 15/69/7
f 15/69/7 51/68/7 34/70/7
f 15/69/7 34/70/7 17/71/7
f 53/68/11 29/73/11 52/72/11
f 7/74/11 52/72/11 29/73/11
f 7/74/11 54/75/11 52/72/11
f 5/76/11 54/75/11 7/74/11
f 54/75/11 5/76/11 55/77/11

usemtl dirt

f 22/24/7 56/78/7 2/22/7
f 56/78/7 22/24/7 57/79/7
f 1/1/1 56/81/1 58/80/1
f 56/81/1 1/1/1 2/2/1
f 5/5/2 60/83/2 59/82/2
f 60/83/2 5/5/2 6/6/2
f 61/85/9 34/41/9 51/84/9
f 34/41/9 61/85/9 35/43/9
f 35/43/9 61/85/9 62/86/9
f 35/43/9 62/86/9 63/87/9
f 20/88/9 35/43/9 63/87/9
f 35/43/9 20/88/9 19/44/9
f 65/91/12 57/90/12 64/89/12
f 57/90/12 65/91/12 56/92/12
f 56/92/12 65/91/12 66/93/12
f 56/92/12 66/93/12 58/94/12
f 58/94/12 66/93/12 67/95/12
f 58/94/12 67/95/12 59/96/12
f 58/94/12 59/96/12 60/97/12
f 58/94/12 60/97/12 68/98/12
f 68/98/12 60/97/12 69/99/12
f 69/99/12 60/97/12 70/100/12
f 71/101/12 69/99/12 70/100/12
f 69/99/12 71/101/12 72/102/12
f 9/9/3 69/104/3 72/103/3
f 69/104/3 9/9/3 10/10/3
f 15/15/5 66/106/5 65/105/5
f 66/106/5 15/15/5 16/16/5
f 60/108/8 25/27/8 70/107/8
f 25/27/8 60/108/8 6/29/8
f 21/49/9 73/110/9 23/109/9
f 73/110/9 21/49/9 38/50/9
f 73/110/9 38/50/9 39/53/9
f 73/110/9 39/53/9 74/111/9
f 74/111/9 39/53/9 40/54/9
f 74/111/9 40/54/9 75/112/9
f 75/112/9 40/54/9 41/55/9
f 75/112/9 41/55/9 42/56/9
f 75/112/9 42/56/9 76/113/9
f 76/113/9 42/56/9 44/114/9
f 13/47/9 36/45/9 14/115/9
f 36/45/9 77/116/9 14/115/9
f 78/117/9 77/116/9 36/45/9
f 77/116/9 78/117/9 79/118/9
f 78/117/9 36/45/9 37/46/9
f 78/117/9 37/46/9 47/119/9
f 80/121/9 29/33/9 53/120/9
f 29/33/9 80/121/9 81/122/9
f 29/33/9 81/122/9 30/35/9
f 30/35/9 81/122/9 31/36/9
f 31/36/9 81/122/9 82/123/9
f 31/36/9 82/123/9 32/38/9
f 32/38/9 82/123/9 83/124/9
f 32/38/9 83/124/9 33/39/9
f 33/39/9 83/124/9 28/40/9
f 28/40/9 83/124/9 27/125/9
f 15/69/7 64/126/7 50/67/7
f 64/126/7 15/69/7 65/127/7
f 67/129/14 5/76/11 59/128/13
f 5/76/11 67/129/14 55/77/11
f 68/131/15 1/61/10 58/130/15
f 1/61/10 68/131/15 45/62/10
f 71/133/8 9/61/8 72/132/8
f 9/61/8 71/133/8 46/63/8

usemtl wood

f 43/136/16 76/135/16 44/134/16
f 76/135/16 43/136/16 84/137/16
f 62/140/17 86/139/17 85/138/17
f 86/139/17 62/140/17 61/141/17
f 77/144/18 88/143/18 87/142/18
f 88/143/18 77/144/18 79/145/18
f 27/148/19 89/147/19 26/146/19
f 89/147/19 27/148/19 83/149/19
f 91/152/20 62/151/20 90/150/20
f 62/151/20 91/152/20 63/153/20
f 90/156/21 62/155/21 85/154/21
f 84/159/22 75/158/22 76/157/22
f 75/158/22 84/159/22 92/160/22
f 80/163/23 52/162/23 93/161/23
f 52/162/23 80/163/23 53/164/23
f 74/167/24 92/166/24 94/165/24
f 92/166/24 74/167/24 75/168/24
f 83/171/25 95/170/25 89/169/25
f 95/170/25 83/171/25 82/172/25
f 78/175/24 48/174/24 96/173/24
f 48/174/24 78/175/24 47/176/24
f 82/179/23 97/178/23 95/177/23
f 97/178/23 82/179/23 81/180/23
f 91/183/16 20/182/16 63/181/16
f 20/182/16 91/183/16 18/184/16
f 73/187/26 94/186/26 98/185/26
f 94/186/26 73/187/26 74/188/26
f 14/191/23 87/190/23 12/189/23
f 87/190/23 14/191/23 77/192/23
f 79/195/27 96/194/27 88/193/27
f 96/194/27 79/195/27 78/196/27
f 23/199/24 98/198/24 24/197/24
f 98/198/24 23/199/24 73/200/24
f 61/203/19 49/202/19 86/201/19
f 49/202/19 61/203/19 51/204/19
f 81/207/28 93/206/28 97/205/28
f 93/206/28 81/207/28 80/208/28

usemtl water

f 91/211/9 52/210/9 18/209/9
f 52/210/9 91/211/9 90/212/9
f 52/210/9 90/212/9 93/213/9
f 90/212/9 92/214/9 93/213/9
f 90/212/9 94/215/9 92/214/9
f 85/216/9 94/215/9 90/212/9
f 85/216/9 98/217/9 94/215/9
f 86/218/9 98/217/9 85/216/9
f 86/218/9 24/219/9 98/217/9
f 24/219/9 86/218/9 49/220/9
f 93/213/9 92/214/9 97/221/9
f 97/221/9 92/214/9 84/222/9
f 97/221/9 84/222/9 43/223/9
f 97/221/9 43/223/9 95/224/9
f 95/224/9 43/223/9 87/225/9
f 87/225/9 43/223/9 12/226/9
f 95/224/9 87/225/9 88/227/9
f 88/227/9 89/228/9 95/224/9
f 89/228/9 88/227/9 96/229/9
f 89/228/9 96/229/9 48/230/9
f 89/228/9 48/230/9 26/231/9
f 49/66/7 22/24/7 24/26/7
f 22/24/7 49/66/7 57/79/7
f 57/79/7 49/66/7 64/126/7
f 64/126/7 49/66/7 50/232/7
f 16/16/5 67/129/14 66/106/5
f 67/129/14 16/16/5 55/77/11
f 55/77/11 16/16/5 18/18/6
f 55/77/11 18/18/6 54/75/11
f 54/75/11 18/18/6 52/72/11
f 10/10/3 68/131/15 69/104/3
f 68/131/15 10/10/3 45/62/10
f 45/62/10 10/10/3 12/12/4
f 45/62/10 12/12/4 43/57/10
f 70/107/8 46/63/8 71/133/8
f 46/63/8 70/107/8 48/65/8
f 48/65/8 70/107/8 26/28/8
f 26/28/8 70/107/8 25/233/8

