# Created by Kenney (www.kenney.nl)

mtllib river_intersectionH.mtl

g river_intersectionH

v -0.5 2.634756E-18 0.1195
v -0.5 0.1 0.1195
v -0.5 0 0.2886751
v -0.5 0.1 0.2886751
v 0.4354053 0.2 -0.3259689
v 0.3708105 0.2 -0.2140876
v 0.3708105 0.2 -0.3632627
v 0.3083106 0.2 -0.2550095
v 0.2789043 0.2 -0.1610254
v 0.375 0.2 -0.1395
v 0.5 0.2 -0.2140876
v 0.5 0.2 -0.1395
v -0.5 0 -0.2886751
v -0.3534901 2.634756E-18 -0.3732627
v -0.5 0.1 -0.2886751
v -0.35349 0.1 -0.3732627
v 0.5 0 0.2886751
v -1.455733E-08 0 0.5773503
v 0.5 0.1 0.2886751
v -1.455733E-08 0.1 0.5773503
v 0.5 0.1 -0.2886751
v 0.5 0 -0.2886751
v 0.5 0.1 -0.1195
v 0.5 -6.010353E-18 -0.1195
v 0.1291895 0.2 -0.5027627
v 0.06668947 0.2 -0.3945095
v 0.06459471 0.2 -0.5400565
v 0.004422203 0.2 -0.1955
v -1.455835E-08 0.2 -0.4281751
v -0.004422192 0.2 -0.1955
v -0.06459475 0.2 -0.5400565
v -0.06668945 0.2 -0.3945095
v -0.1291894 0.2 -0.5027627
v -0.3708105 0.2 -0.3632627
v -0.3708105 0.2 -0.2140876
v -0.4354053 0.2 -0.3259689
v -0.3083105 0.2 -0.2550095
v -0.375 0.2 -0.1395
v -0.2789042 0.2 -0.1610254
v -0.5 0.2 -0.2140876
v -0.5 0.2 -0.1395
v 0.5 0.2 0.1395
v 0.5 0.2 0.2140876
v 0.375 0.2 0.1395
v 0.3667485 0.2 0.2140876
v 0.125 0.2 0.08350001
v 0.1167484 0.2 0.1580876
v -0.125 0.2 0.08350001
v -0.1167484 0.2 0.1580876
v -0.3667484 0.2 0.2140876
v -0.375 0.2 0.1395
v -0.5 0.2 0.2140876
v -0.5 0.2 0.1395
v -1.455759E-08 0 -0.5773503
v 0.14651 2.634756E-18 -0.4927627
v -1.455759E-08 0.1 -0.5773503
v 0.14651 0.1 -0.4927627
v 0.5 -4.250723E-18 0.1195
v 0.3534901 5.269513E-18 -0.3732627
v -0.14651 5.269513E-18 -0.4927627
v -0.5 3.180766E-18 -0.1195
v -0.5 0.1 -0.1195
v -0.14651 0.1 -0.4927627
v 0.3534901 0.1 -0.3732627
v 0.5 0.1 0.1195
v 0.5 0.2 -0.2886751
v 0.5 0.1625 -0.1195
v 0.5 0.2 0.2886751
v -1.455733E-08 0.2 0.5773503
v -0.5 0.2 0.2886751
v -0.5 0.1625 0.1195
v -0.5 0.2 -0.2886751
v -0.35349 0.1625 -0.3732627
v -1.455759E-08 0.2 -0.5773503
v 0.14651 0.1625 -0.4927627
v -0.5 0.1625 -0.1195
v -0.14651 0.1625 -0.4927627
v 0.3534901 0.1625 -0.3732627
v 0.5 0.1625 0.1195
v -0.2898837 0.1625 -0.2630934
v -0.3772126 0.1625 0.1195
v -0.1272126 0.1625 0.0635
v 0.3727874 0.1625 -0.1195
v -0.3727874 0.1625 -0.1195
v -0.08511625 0.1625 -0.3864256
v -0.0191206 0.1625 -0.1755
v 0.1272126 0.1625 0.0635
v 0.3772126 0.1625 0.1195
v 0.2898838 0.1625 -0.2630934
v 0.2533279 0.1625 -0.1462589
v -0.2533279 0.1625 -0.1462589
v 0.08511627 0.1625 -0.3864257
v 0.01912061 0.1625 -0.1755

vn -1 0 0
vn 0 1 0
vn -0.5 0 -0.8660254
vn 0.5 0 0.8660254
vn 1 0 0
vn -0.5 0 0.8660254
vn 0.5 0 -0.8660254
vn 0 -1 0
vn -0.5000001 0 -0.8660254
vn -0.5000001 0 -0.8660253
vn -0.5 0 -0.8660254
vn 0.5000001 0 -0.8660254
vn -0.4999999 0 -0.8660254
vn 0.5 0 -0.8660254
vn 0.7641401 0.4705882 -0.4411765
vn -0.1928676 0.4705882 -0.8610161
vn 0 0.4705883 0.8823529
vn 0 0.4705883 -0.8823529
vn -0.8420956 0.4705882 0.2634798
vn 0.1928676 0.4705882 -0.8610161
vn -0.8420956 0.4705882 -0.2634798
vn 0.8420956 0.4705882 -0.2634798
vn -0.7641401 0.4705882 -0.4411765
vn -0.7641401 0.4705882 0.4411765
vn 0.1928676 0.4705882 0.8610161
vn 0.8420956 0.4705882 0.2634798
vn 0.7641401 0.4705882 0.4411765
vn -0.1928676 0.4705882 0.8610161

vt 4.704726 -7.164119E-07
vt 4.704726 3.937007
vt 11.36516 -7.164119E-07
vt 11.36516 3.937007
vt -17.14194 -12.83342
vt -14.59884 -8.428644
vt -14.59884 -14.30168
vt -12.13821 -10.03975
vt -10.98048 -6.339584
vt -14.76378 -5.492126
vt -19.68504 -8.428644
vt -19.68504 -5.492126
vt 11.36516 -4.23985E-07
vt 4.704725 -4.23985E-07
vt 11.36516 3.937007
vt 4.704725 3.937007
vt 11.36516 0
vt -11.36516 0
vt 11.36516 3.937008
vt -11.36516 3.937008
vt 11.36516 3.937008
vt 11.36516 1.171784E-22
vt 4.704721 3.937008
vt 4.704722 -2.36628E-16
vt -5.086199 -19.79381
vt -2.62557 -15.53187
vt -2.543099 -21.26207
vt -0.1741025 -7.69685
vt 5.731633E-07 -16.85729
vt 0.1741021 -7.69685
vt 2.5431 -21.26207
vt 2.625569 -15.53187
vt 5.086199 -19.79381
vt 14.59884 -14.30168
vt 14.59884 -8.428644
vt 17.14194 -12.83342
vt 12.13821 -10.03974
vt 14.76378 -5.492126
vt 10.98048 -6.339584
vt 19.68504 -8.428644
vt 19.68504 -5.492126
vt -19.68504 5.492126
vt -19.68504 8.428644
vt -14.76378 5.492126
vt -14.43892 8.428644
vt -4.92126 3.287402
vt -4.596395 6.22392
vt 4.921259 3.287402
vt 4.596395 6.22392
vt 14.43891 8.428644
vt 14.76378 5.492126
vt 19.68504 8.428644
vt 19.68504 5.492126
vt 11.36516 1.556233E-07
vt 4.704724 1.556233E-07
vt 11.36516 3.937008
vt 4.704724 3.937008
vt 19.68504 -4.704724
vt 19.68504 -11.36516
vt 19.68504 4.704725
vt 19.68504 11.36516
vt -5.731234E-07 22.73033
vt 13.91693 -14.69538
vt 5.768109 -19.40011
vt -5.731335E-07 -22.73033
vt -19.68504 11.36516
vt -5.768109 -19.40011
vt -13.91693 -14.69538
vt -19.68504 4.704725
vt -19.68504 -4.704724
vt -19.68504 -11.36516
vt -11.36516 -7.164144E-07
vt -11.36517 3.937007
vt -4.704724 -2.36671E-06
vt -4.704727 3.937007
vt -11.36516 -4.884325E-16
vt -11.36516 3.937007
vt -4.704724 -1.165097E-06
vt -4.704726 3.937007
vt -11.36516 1.556233E-07
vt -11.36516 3.937008
vt -4.704725 6.119301E-07
vt -4.704724 3.937008
vt -4.704722 3.937009
vt -4.704724 1.666789E-06
vt -11.36516 3.937009
vt -11.36516 3.579481E-07
vt 11.36516 7.874016
vt 8.428641 7.874016
vt 5.492123 7.874016
vt 4.704721 6.397638
vt 11.36516 7.874016
vt -11.36516 7.874016
vt 4.704728 6.397637
vt 5.492129 7.874015
vt 8.428647 7.874015
vt 11.36517 7.874015
vt 11.36516 7.874015
vt 4.704726 6.397637
vt 5.492128 7.874015
vt 8.428647 7.874015
vt 11.36516 7.874016
vt 4.704723 6.397638
vt 5.492125 7.874016
vt 8.428644 7.874016
vt 5.731335E-07 -22.73033
vt 5.731234E-07 22.73033
vt -11.36517 7.874015
vt -8.428648 7.874015
vt -5.492129 7.874015
vt -4.704727 6.397637
vt -4.704726 6.397637
vt -11.36516 7.874015
vt -5.492128 7.874015
vt -8.428646 7.874015
vt -4.704724 6.397638
vt -11.36516 7.874016
vt -5.492126 7.874016
vt -8.428643 7.874016
vt -4.704722 6.397639
vt -5.492123 7.874017
vt -8.428641 7.874017
vt -11.36516 7.874017
vt 19.68504 7.858963
vt 14.67667 7.858963
vt 19.68504 9.532191
vt 14.76378 9.532191
vt 15.52014 6.277822
vt 5.433716 6.277822
vt 15.60725 7.95105
vt 5.520826 7.95105
vt 14.67667 7.858963
vt 19.68504 9.53219
vt 14.76378 9.53219
vt -14.67667 7.858963
vt -19.68504 7.858963
vt -14.76378 9.53219
vt -19.68504 9.53219
vt 14.85089 7.858963
vt -15.60725 7.95105
vt -7.397671 7.95105
vt -15.52014 6.277822
vt -6.818993 6.277822
vt -5.433717 6.277822
vt -15.52014 6.277822
vt -5.520827 7.95105
vt -15.60725 7.95105
vt -13.29339 9.315107
vt -13.20628 10.98834
vt -8.47371 9.315107
vt -9.329228 10.98834
vt 13.29339 9.315106
vt 8.47371 9.315106
vt 13.20628 10.98834
vt 9.329228 10.98834
vt 5.008369 6.821445
vt -5.00837 6.821445
vt 4.921259 8.494674
vt -4.92126 8.494674
vt -19.68504 7.858963
vt -19.68504 9.532191
vt -14.67667 7.858963
vt -14.76378 9.532191
vt -14.85089 7.858963
vt -13.29339 9.315106
vt -13.20628 10.98833
vt -8.47371 9.315106
vt -9.329228 10.98833
vt 15.60725 7.951049
vt 15.52014 6.277821
vt 7.397671 7.951049
vt 6.818994 6.277821
vt 19.68504 7.858962
vt 14.85089 7.858962
vt 13.29339 9.315106
vt 8.473711 9.315106
vt 13.20628 10.98833
vt 9.329228 10.98833
vt -14.85089 7.858963
vt 0.7527798 8.89648
vt -0.7527794 8.89648
vt 0.1741025 10.56971
vt -0.1741021 10.56971
vt -11.41275 -10.35801
vt -5.768109 -19.40011
vt -9.973539 -5.758225
vt -5.00837 2.5
vt -14.67667 -4.704724
vt -14.85089 4.704725
vt -3.351034 -15.21361
vt -0.7527798 -6.909449
vt 5.008369 2.5
vt 0.7527794 -6.909449
vt 3.351034 -15.21361
vt 9.973539 -5.758225
vt 11.41275 -10.35801
vt 13.91693 -14.69538
vt 14.85089 4.704725
vt 14.67667 -4.704724
vt 4.704725 3.937006
vt -4.704724 3.93701

usemtl dirt

f 3/3/1 2/2/1 1/1/1
f 2/2/1 3/3/1 4/4/1
f 7/7/2 6/6/2 5/5/2
f 6/6/2 7/7/2 8/8/2
f 9/9/2 6/6/2 8/8/2
f 10/10/2 6/6/2 9/9/2
f 10/10/2 11/11/2 6/6/2
f 11/11/2 10/10/2 12/12/2
f 15/15/3 14/14/3 13/13/3
f 14/14/3 15/15/3 16/16/3
f 19/19/4 18/18/4 17/17/4
f 18/18/4 19/19/4 20/20/4
f 23/23/5 22/22/5 21/21/5
f 22/22/5 23/23/5 24/24/5
f 20/19/6 3/18/6 18/17/6
f 3/18/6 20/19/6 4/20/6
f 27/27/2 26/26/2 25/25/2
f 26/26/2 27/27/2 28/28/2
f 28/28/2 27/27/2 29/29/2
f 28/28/2 29/29/2 30/30/2
f 30/30/2 29/29/2 31/31/2
f 30/30/2 31/31/2 32/32/2
f 32/32/2 31/31/2 33/33/2
f 36/36/2 35/35/2 34/34/2
f 35/35/2 37/37/2 34/34/2
f 38/38/2 37/37/2 35/35/2
f 37/37/2 38/38/2 39/39/2
f 38/38/2 35/35/2 40/40/2
f 38/38/2 40/40/2 41/41/2
f 44/44/2 43/43/2 42/42/2
f 43/43/2 44/44/2 45/45/2
f 45/45/2 44/44/2 46/46/2
f 45/45/2 46/46/2 47/47/2
f 47/47/2 46/46/2 48/48/2
f 47/47/2 48/48/2 49/49/2
f 49/49/2 48/48/2 50/50/2
f 50/50/2 48/48/2 51/51/2
f 50/50/2 51/51/2 52/52/2
f 52/52/2 51/51/2 53/53/2
f 56/56/7 55/55/7 54/54/7
f 55/55/7 56/56/7 57/57/7
f 58/60/8 22/59/8 24/58/8
f 22/59/8 58/60/8 17/61/8
f 22/59/8 17/61/8 18/62/8
f 22/59/8 18/62/8 59/63/8
f 59/63/8 18/62/8 55/64/8
f 55/64/8 18/62/8 54/65/8
f 54/65/8 18/62/8 3/66/8
f 54/65/8 3/66/8 60/67/8
f 60/67/8 3/66/8 14/68/8
f 14/68/8 3/66/8 1/69/8
f 14/68/8 1/69/8 61/70/8
f 13/71/8 14/68/8 61/70/8
f 61/74/1 15/73/1 13/72/1
f 15/73/1 61/74/1 62/75/1
f 60/78/11 56/77/10 54/76/9
f 56/77/10 60/78/11 63/79/10
f 59/82/7 21/81/12 22/80/7
f 21/81/12 59/82/7 64/83/12
f 19/86/5 58/85/5 65/84/5
f 58/85/5 19/86/5 17/87/5

usemtl grass

f 11/89/5 21/21/5 66/88/5
f 21/21/5 11/89/5 23/23/5
f 23/23/5 11/89/5 12/90/5
f 23/23/5 12/90/5 67/91/5
f 68/92/4 20/20/4 19/19/4
f 20/20/4 68/92/4 69/93/4
f 69/92/6 4/20/6 20/19/6
f 4/20/6 69/92/6 70/93/6
f 4/4/1 71/94/1 2/2/1
f 71/94/1 4/4/1 53/95/1
f 53/95/1 4/4/1 52/96/1
f 52/96/1 4/4/1 70/97/1
f 72/98/13 16/16/3 15/15/3
f 16/16/3 72/98/13 73/99/13
f 73/99/13 72/98/13 34/100/13
f 34/100/13 72/98/13 36/101/13
f 74/102/14 57/57/7 56/56/7
f 57/57/7 74/102/14 75/103/14
f 75/103/14 74/102/14 25/104/14
f 25/104/14 74/102/14 27/105/14
f 74/106/2 29/29/2 27/27/2
f 29/29/2 74/106/2 31/31/2
f 66/71/2 6/6/2 11/11/2
f 6/6/2 66/71/2 5/5/2
f 36/36/2 40/40/2 35/35/2
f 40/40/2 36/36/2 72/59/2
f 45/45/2 68/66/2 43/43/2
f 68/66/2 45/45/2 69/107/2
f 69/107/2 45/45/2 47/47/2
f 69/107/2 47/47/2 49/49/2
f 69/107/2 49/49/2 70/61/2
f 70/61/2 49/49/2 50/50/2
f 70/61/2 50/50/2 52/52/2
f 62/75/1 72/108/1 15/73/1
f 72/108/1 62/75/1 40/109/1
f 40/109/1 62/75/1 41/110/1
f 41/110/1 62/75/1 76/111/1
f 77/112/10 56/77/10 63/79/10
f 56/77/10 77/112/10 74/113/10
f 74/113/10 77/112/10 33/114/10
f 74/113/10 33/114/10 31/115/10
f 78/116/12 21/81/12 64/83/12
f 21/81/12 78/116/12 66/117/12
f 66/117/12 78/116/12 7/118/12
f 66/117/12 7/118/12 5/119/12
f 42/121/5 65/84/5 79/120/5
f 65/84/5 42/121/5 19/86/5
f 19/86/5 42/121/5 43/122/5
f 19/86/5 43/122/5 68/123/5

usemtl wood

f 34/126/15 80/125/15 73/124/15
f 80/125/15 34/126/15 37/127/15
f 51/130/16 82/129/16 81/128/16
f 82/129/16 51/130/16 48/131/16
f 12/133/17 83/132/17 67/124/17
f 83/132/17 12/133/17 10/134/17
f 38/137/17 76/136/17 84/135/17
f 76/136/17 38/137/17 41/138/17
f 53/126/18 81/139/18 71/124/18
f 81/139/18 53/126/18 51/127/18
f 85/142/19 30/141/19 32/140/19
f 30/141/19 85/142/19 86/143/19
f 46/146/20 88/145/20 87/144/20
f 88/145/20 46/146/20 44/147/20
f 90/150/21 8/149/21 89/148/21
f 8/149/21 90/150/21 9/151/21
f 37/154/22 91/153/22 80/152/22
f 91/153/22 37/154/22 39/155/22
f 48/158/18 87/157/18 82/156/18
f 87/157/18 48/158/18 46/159/18
f 89/162/23 7/161/23 78/160/23
f 7/161/23 89/162/23 8/163/23
f 77/136/24 32/137/24 33/138/24
f 32/137/24 77/136/24 85/164/24
f 91/167/25 38/166/25 84/165/25
f 38/166/25 91/167/25 39/168/25
f 28/171/26 92/170/26 26/169/26
f 92/170/26 28/171/26 93/172/26
f 26/134/27 75/173/27 25/133/27
f 75/173/27 26/134/27 92/174/27
f 10/177/28 90/176/28 83/175/28
f 90/176/28 10/177/28 9/178/28
f 44/163/18 79/136/18 88/179/18
f 79/136/18 44/163/18 42/161/18
f 28/182/17 86/181/17 93/180/17
f 86/181/17 28/182/17 30/183/17

usemtl water

f 75/185/2 89/184/2 78/68/2
f 89/184/2 75/185/2 90/186/2
f 87/187/2 90/186/2 75/185/2
f 87/187/2 83/188/2 90/186/2
f 88/189/2 83/188/2 87/187/2
f 79/69/2 83/188/2 88/189/2
f 83/188/2 79/69/2 67/70/2
f 87/187/2 75/185/2 92/190/2
f 87/187/2 92/190/2 93/191/2
f 87/187/2 93/191/2 82/192/2
f 82/192/2 93/191/2 86/193/2
f 82/192/2 86/193/2 85/194/2
f 82/192/2 85/194/2 77/64/2
f 82/192/2 77/64/2 91/195/2
f 77/64/2 80/196/2 91/195/2
f 80/196/2 77/64/2 73/197/2
f 82/192/2 91/195/2 81/198/2
f 81/198/2 91/195/2 84/199/2
f 81/198/2 84/199/2 76/58/2
f 81/198/2 76/58/2 71/60/2
f 1/1/1 62/75/1 61/74/1
f 62/75/1 1/1/1 76/111/1
f 76/111/1 1/1/1 71/94/1
f 71/94/1 1/1/1 2/200/1
f 16/16/3 60/78/11 14/14/3
f 60/78/11 16/16/3 63/79/10
f 63/79/10 16/16/3 73/99/13
f 63/79/10 73/99/13 77/112/10
f 57/57/7 59/82/7 55/55/7
f 59/82/7 57/57/7 64/83/12
f 64/83/12 57/57/7 75/103/14
f 64/83/12 75/103/14 78/116/12
f 79/120/5 23/23/5 67/91/5
f 23/23/5 79/120/5 24/24/5
f 24/24/5 79/120/5 58/85/5
f 58/85/5 79/120/5 65/201/5

