# Created by Kenney (www.kenney.nl)

mtllib river_start.mtl

g river_start

v 0.5 0.1 0.2886751
v 1.30666E-13 0.1 0.5773503
v 0.5 0.2 0.2886751
v 1.30666E-13 0.2 0.5773503
v 0.5 0.2 -0.2886751
v 0.5 0.1 -0.2886751
v -0.5 0.1 0.1195
v -0.5 0.1625 0.1195
v -0.5 0.1 0.2886751
v -0.5 0.2 0.1395
v -0.5 0.2 0.2140876
v -0.5 0.2 0.2886751
v -0.5 0.1 -0.2886751
v -1.241688E-13 0.1 -0.5773503
v -0.5 0.2 -0.2886751
v -1.241688E-13 0.2 -0.5773503
v 0.3261263 0.2 -0.056
v 0.1630632 0.2 -0.3384337
v 0.06370207 0.2 -0.3384337
v -0.1630632 0.2 -0.3384337
v -0.2128121 0.2 -0.252266
v -0.3832515 0.2 -0.2140876
v -0.5 0.2 -0.2140876
v 0.1630632 0.2 0.2264336
v -0.1630632 0.2 0.2264336
v -0.1927002 0.2 0.1751008
v -0.3667484 0.2 0.2140876
v -0.5 0.1 -0.1195
v -0.5 0.2 -0.1395
v -0.5 0.1625 -0.1195
v 0.5 0 0.2886751
v 1.30666E-13 0 0.5773503
v -0.5 0 -0.2886751
v -1.241688E-13 0 -0.5773503
v -0.5 0 0.2886751
v 0.5 0 -0.2886751
v -0.5 2.634756E-18 0.1195
v -0.5 3.180766E-18 -0.1195
v 0.24 0.2 -0.056
v 0.12 0.2 -0.2638461
v 0.06370207 0.2 -0.2638461
v -0.12 0.2 -0.2638461
v -0.1645781 0.2 -0.1866345
v -0.375 0.2 -0.1395
v 0.12 0.2 0.1518461
v -0.12 0.2 0.1518461
v -0.1555134 0.2 0.090335
v -0.375 0.2 0.1395
v 0.216906 0.1625 -0.056
v 0.108453 0.1625 0.1318461
v -0.1455421 0.1625 0.06760582
v -0.3772126 0.1625 0.1195
v 0.108453 0.1625 -0.2438461
v -0.108453 0.1625 0.1318461
v -0.3727874 0.1625 -0.1195
v -0.108453 0.1625 -0.2438461
v -0.1516446 0.1625 -0.169036
v 0.06370207 0.1625 -0.2438461

vn 0.5 0 0.8660254
vn 1 0 0
vn -1 0 0
vn -0.5 0 0.8660254
vn -0.5 0 -0.8660254
vn 0.5 0 -0.8660254
vn 0 1 0
vn 0 -1 0
vn -0.7641401 0.4705882 -0.4411765
vn -0.1928676 0.4705882 -0.8610161
vn 0 0.4705883 -0.8823529
vn -0.7641401 0.4705882 0.4411765
vn 0.7641401 0.4705882 -0.4411765
vn 0 0.4705883 0.8823529
vn 0.7641401 0.4705882 0.4411765
vn 0.1928676 0.4705882 0.8610161

vt 11.36516 3.937008
vt -11.36516 3.937008
vt 11.36516 7.874016
vt -11.36516 7.874016
vt 4.704724 3.937008
vt 4.704724 6.397638
vt 5.492126 7.874016
vt 8.428644 7.874016
vt -12.83962 -2.204724
vt -6.419809 -13.32416
vt -19.68504 -11.36516
vt 4.888459E-12 -22.73033
vt -2.507956 -13.32416
vt 6.419809 -13.32416
vt 19.68504 -11.36516
vt 8.378428 -9.931733
vt 15.08864 -8.428644
vt 19.68504 -8.428644
vt -5.144405E-12 22.73033
vt -19.68504 11.36516
vt -6.419809 8.914711
vt 6.419809 8.914711
vt 19.68504 11.36516
vt 7.586623 6.893731
vt 14.43891 8.428644
vt 19.68504 8.428644
vt -4.704724 3.937008
vt -8.428644 7.874016
vt -5.492126 7.874016
vt -4.704724 6.397638
vt 11.36516 0
vt -11.36516 0
vt 5.144329E-12 22.73033
vt -4.888534E-12 -22.73033
vt -19.68504 4.704724
vt -19.68504 -4.704724
vt 4.704724 4.974836E-13
vt 11.36516 4.973799E-13
vt -9.448819 -2.204724
vt -4.72441 -10.38764
vt -2.507956 -10.38764
vt 4.72441 -10.38764
vt 6.479454 -7.347815
vt 14.76378 -5.492126
vt 19.68504 -5.492126
vt -4.72441 5.978193
vt 4.72441 5.978193
vt 6.122576 3.556496
vt 14.76378 5.492126
vt 19.68504 5.492126
vt -11.36516 7.81597E-13
vt -4.704724 2.022693E-12
vt -6.17915 8.606459
vt -6.633757 10.27969
vt 2.360456 8.606459
vt 2.815062 10.27969
vt 6.173235 6.277822
vt 6.751913 7.95105
vt 15.52014 6.277822
vt 15.60725 7.95105
vt 19.68504 7.858963
vt 14.85089 7.858963
vt 19.68504 9.532191
vt 14.76378 9.532191
vt -6.633757 11.3172
vt 2.815062 11.3172
vt -6.17915 9.643976
vt 2.360456 9.643976
vt 0.5599493 8.606459
vt -2.360456 8.606459
vt -0.01872809 10.27969
vt -2.815062 10.27969
vt -14.67667 7.858963
vt -19.68504 7.858963
vt -14.76378 9.532191
vt -19.68504 9.532191
vt 4.269803 8.0877
vt -4.269803 8.0877
vt 4.72441 9.760928
vt -4.72441 9.760928
vt 6.633757 11.3172
vt 6.17915 9.643976
vt 3.123667 11.3172
vt 2.778234 9.643976
vt -4.371227 9.315106
vt -13.29339 9.315106
vt -4.71666 10.98833
vt -13.20628 10.98833
vt 4.269803 10.16273
vt 2.507956 10.16273
vt 4.72441 11.83596
vt -4.269803 10.16273
vt -4.72441 11.83596
vt 2.507956 11.83596
vt -8.539606 -2.204724
vt -4.269803 5.190791
vt -4.269803 -9.60024
vt -2.507956 -9.60024
vt 4.269803 5.190791
vt 4.269803 -9.60024
vt 5.970261 -6.65496
vt 5.730005 2.661646
vt 14.85089 4.704724
vt 14.67667 -4.704724
vt 19.68504 -4.704724
vt 19.68504 4.704724

usemtl grass

f 3/3/1 2/2/1 1/1/1
f 2/2/1 3/3/1 4/4/1
f 3/4/2 6/1/2 5/3/2
f 6/1/2 3/4/2 1/2/2
f 9/1/3 8/6/3 7/5/3
f 8/6/3 9/1/3 10/7/3
f 10/7/3 9/1/3 11/8/3
f 11/8/3 9/1/3 12/3/3
f 4/3/4 9/2/4 2/1/4
f 9/2/4 4/3/4 12/4/4
f 15/3/5 14/2/5 13/1/5
f 14/2/5 15/3/5 16/4/5
f 16/3/6 6/2/6 14/1/6
f 6/2/6 16/3/6 5/4/6
f 5/11/7 18/10/7 17/9/7
f 18/10/7 5/11/7 16/12/7
f 18/10/7 16/12/7 19/13/7
f 19/13/7 16/12/7 20/14/7
f 20/14/7 16/12/7 15/15/7
f 20/14/7 15/15/7 21/16/7
f 21/16/7 15/15/7 22/17/7
f 22/17/7 15/15/7 23/18/7
f 4/19/7 5/11/7 17/9/7
f 5/11/7 4/19/7 3/20/7
f 4/19/7 17/9/7 24/21/7
f 4/19/7 24/21/7 25/22/7
f 4/19/7 25/22/7 12/23/7
f 12/23/7 25/22/7 26/24/7
f 12/23/7 26/24/7 27/25/7
f 12/23/7 27/25/7 11/26/7
f 28/27/3 15/4/3 13/2/3
f 15/4/3 28/27/3 23/28/3
f 23/28/3 28/27/3 29/29/3
f 29/29/3 28/27/3 30/30/3

usemtl dirt

f 1/1/1 32/32/1 31/31/1
f 32/32/1 1/1/1 2/2/1
f 13/1/5 34/32/5 33/31/5
f 34/32/5 13/1/5 14/2/5
f 2/1/4 35/32/4 32/31/4
f 35/32/4 2/1/4 9/2/4
f 32/33/8 36/15/8 31/23/8
f 36/15/8 32/33/8 34/34/8
f 34/34/8 32/33/8 35/20/8
f 34/34/8 35/20/8 33/11/8
f 33/11/8 35/20/8 37/35/8
f 33/11/8 37/35/8 38/36/8
f 14/1/6 36/32/6 34/31/6
f 36/32/6 14/1/6 6/2/6
f 35/38/3 7/5/3 37/37/3
f 7/5/3 35/38/3 9/1/3
f 1/2/2 36/31/2 6/1/2
f 36/31/2 1/2/2 31/32/2
f 18/10/7 39/39/7 17/9/7
f 39/39/7 18/10/7 40/40/7
f 40/40/7 18/10/7 19/13/7
f 40/40/7 19/13/7 41/41/7
f 41/41/7 19/13/7 20/14/7
f 41/41/7 20/14/7 42/42/7
f 42/42/7 20/14/7 43/43/7
f 43/43/7 20/14/7 21/16/7
f 43/43/7 21/16/7 44/44/7
f 44/44/7 21/16/7 22/17/7
f 44/44/7 22/17/7 29/45/7
f 29/45/7 22/17/7 23/18/7
f 39/39/7 24/21/7 17/9/7
f 24/21/7 39/39/7 45/46/7
f 24/21/7 45/46/7 25/22/7
f 25/22/7 45/46/7 46/47/7
f 25/22/7 46/47/7 47/48/7
f 25/22/7 47/48/7 26/24/7
f 26/24/7 47/48/7 48/49/7
f 26/24/7 48/49/7 27/25/7
f 27/25/7 48/49/7 11/26/7
f 11/26/7 48/49/7 10/50/7
f 38/52/3 13/2/3 33/51/3
f 13/2/3 38/52/3 28/27/3

usemtl wood

f 50/55/9 39/54/9 49/53/9
f 39/54/9 50/55/9 45/56/9
f 52/59/10 47/58/10 51/57/10
f 47/58/10 52/59/10 48/60/10
f 10/63/11 52/62/11 8/61/11
f 52/62/11 10/63/11 48/64/11
f 53/67/12 39/66/12 40/65/12
f 39/66/12 53/67/12 49/68/12
f 47/71/13 54/70/13 51/69/13
f 54/70/13 47/71/13 46/72/13
f 44/75/14 30/74/14 55/73/14
f 30/74/14 44/75/14 29/76/14
f 46/79/11 50/78/11 54/77/11
f 50/78/11 46/79/11 45/80/11
f 43/83/15 56/82/15 42/81/15
f 56/82/15 43/83/15 57/84/15
f 43/87/16 55/86/16 57/85/16
f 55/86/16 43/87/16 44/88/16
f 40/91/14 58/90/14 53/89/14
f 58/90/14 40/91/14 56/92/14
f 56/92/14 40/91/14 42/93/14
f 42/93/14 40/91/14 41/94/14

usemtl water

f 53/97/7 50/96/7 49/95/7
f 50/96/7 53/97/7 58/98/7
f 50/96/7 58/98/7 54/99/7
f 54/99/7 58/98/7 56/100/7
f 54/99/7 56/100/7 57/101/7
f 54/99/7 57/101/7 51/102/7
f 51/102/7 57/101/7 52/103/7
f 52/103/7 57/101/7 55/104/7
f 52/103/7 55/104/7 30/105/7
f 52/103/7 30/105/7 8/106/7
f 37/37/3 28/27/3 38/52/3
f 28/27/3 37/37/3 30/30/3
f 30/30/3 37/37/3 8/6/3
f 8/6/3 37/37/3 7/5/3

