# Created by Kenney (www.kenney.nl)

mtllib river_intersectionD.mtl

g river_intersectionD

v 0.5 0.2 0.1395
v 0.5 0.2 0.2140876
v 0.375 0.2 0.1395
v 0.3708105 0.2 0.2140876
v 0.1570679 0.2 0.09068323
v 0.3083105 0.2 0.2550096
v 0.3708105 0.2 0.3632627
v 0.3889971 0.2 0.3527627
v 0.4354053 0.2 0.3259689
v -0.5 0 -0.2886751
v -2.028837E-08 0 -0.5773503
v -0.5 0.1 -0.2886751
v -2.028837E-08 0.1 -0.5773503
v 0.14651 2.634756E-18 -0.4927627
v 0.14651 0.1 -0.4927627
v -0.5 5.269513E-18 0.1195
v -0.5 0.1 0.1195
v -0.5 0 0.2886751
v -0.5 0.1 0.2886751
v 0.5 0.1 -0.2886751
v 0.5 0 -0.2886751
v 0.5 0.1 -0.1195
v 0.5 2.634756E-18 -0.1195
v 0.5 0 0.2886751
v 0.35349 2.634756E-18 0.3732627
v 0.5 0.1 0.2886751
v 0.35349 0.1 0.3732627
v 0.5 5.269513E-18 0.1195
v 0.3534901 5.269513E-18 -0.3732627
v 0.1465099 3.180766E-18 0.4927627
v -2.028812E-08 0 0.5773503
v -0.5 3.726776E-18 -0.1195
v -2.028812E-08 0.1 0.5773503
v 0.4354053 0.2 -0.3259689
v 0.3708105 0.2 -0.2140876
v 0.3708105 0.2 -0.3632627
v 0.3083106 0.2 -0.2550095
v 0.2315685 0.2 -0.1716286
v 0.375 0.2 -0.1395
v 0.5 0.2 -0.2140876
v 0.5 0.2 -0.1395
v -0.1524243 0.2 0.2657929
v -0.1539712 0.2 0.2648998
v -0.125 0.2 0.1955
v -0.375 0.2 0.1395
v -0.3832515 0.2 0.2140876
v -0.1533375 0.2 0.2655883
v -0.5 0.2 0.1395
v -0.5 0.2 0.2140876
v 0.006220521 0.2 0.4389494
v -0.106808 0.2 0.2060032
v 0.06459473 0.2 0.5400565
v 0.06668946 0.2 0.3945095
v 0.1291895 0.2 0.5027627
v -0.1533375 0.2 -0.2655883
v -0.1539712 0.2 -0.2648997
v -0.3832515 0.2 -0.2140876
v -0.375 0.2 -0.1395
v -0.5 0.2 -0.1395
v -0.5 0.2 -0.2140876
v -0.125 0.2 -0.1955
v -0.1524243 0.2 -0.2657928
v 0.006220517 0.2 -0.4389494
v -0.106808 0.2 -0.2060031
v 0.06459474 0.2 -0.5400565
v 0.06668947 0.2 -0.3945095
v 0.1291895 0.2 -0.5027627
v -0.5 0.1 -0.1195
v 0.3534901 0.1 -0.3732627
v 0.5 0.1 0.1195
v 0.14651 0.1 0.4927627
v -0.5 0.2 -0.2886751
v -2.028837E-08 0.2 -0.5773503
v 0.14651 0.1625 -0.4927627
v 0.3534901 0.1625 0.3732627
v 0.5 0.2 0.2886751
v -2.028812E-08 0.2 0.5773503
v -0.1110029 0.2 0.5132627
v -0.5 0.2 0.2886751
v -0.5 0.1625 0.1195
v 0.5 0.2 -0.2886751
v 0.5 0.1625 -0.1195
v -0.5 0.1625 -0.1195
v 0.14651 0.1625 0.4927627
v 0.5 0.1625 0.1195
v 0.3534901 0.1625 -0.3732627
v 0.3772126 0.1625 0.1195
v -0.09059374 0.1625 0.194087
v 0.08290368 0.1625 0.3825934
v 0.08290368 0.1625 -0.3825933
v 0.2920963 0.1625 -0.2669257
v 0.2920963 0.1625 0.2669257
v -0.3727874 0.1625 -0.1195
v -0.09059373 0.1625 -0.194087
v -0.1227874 0.1625 -0.1755
v 0.3727874 0.1625 -0.1195
v 0.1272126 0.1625 0.06350001
v 0.1185989 0.1625 0.07841935
v 0.1933935 0.1625 -0.1596842
v -0.3727874 0.1625 0.1195
v -0.1227874 0.1625 0.1755

vn 0 1 0
vn -0.5 0 -0.8660254
vn 0.5 0 -0.8660254
vn -1 0 0
vn 1 0 0
vn 0.5000001 0 0.8660254
vn 0.5000002 0 0.8660253
vn 0 -1 0
vn -0.5 0 0.8660254
vn 0.5 0 0.8660254
vn 0.4999999 0 0.8660255
vn 0.5 0 0.8660254
vn 0 0.4705883 -0.8823529
vn 0.649228 0.4705882 -0.5975363
vn 0.7641401 0.4705882 0.4411765
vn -0.7641401 0.4705882 -0.4411765
vn -0.7641401 0.4705882 0.4411765
vn 0 0.4705883 0.8823529
vn 0.4487498 0.4410147 0.7772577
vn 0.7641401 0.4705882 -0.4411765
vn -0.5966858 0.7247675 -0.3444967
vn -0.1928676 0.4705882 0.8610161
vn -0.649228 0.4705882 -0.5975363
vn 0 0.4705881 -0.8823531
vn 0.1928676 0.4705882 -0.8610161
vn 0.4487499 0.4410147 -0.7772577
vn -0.649228 0.4705882 0.5975363
vn 0.1928677 0.470588 -0.8610162
vn 0.649228 0.4705882 0.5975363
vn 0.1928676 0.4705882 0.8610161

vt -19.68504 5.492127
vt -19.68504 8.428644
vt -14.76378 5.492126
vt -14.59884 8.428644
vt -6.183777 3.570206
vt -12.13821 10.03975
vt -14.59884 14.30168
vt -15.31485 13.8883
vt -17.14194 12.83342
vt 11.36516 0
vt -11.36516 0
vt 11.36516 3.937008
vt -11.36516 3.937008
vt 11.36516 -2.103814E-07
vt 4.704724 -2.103814E-07
vt 11.36516 3.937008
vt 4.704724 3.937008
vt 4.704727 2.074611E-16
vt 4.704727 3.937008
vt 11.36517 1.576843E-23
vt 11.36517 3.937008
vt 11.36516 3.937008
vt 11.36516 5.189196E-07
vt 4.704723 3.937008
vt 4.704723 5.189196E-07
vt 11.36516 6.822908E-07
vt 4.704723 6.822908E-07
vt 11.36516 3.93701
vt 4.70472 3.93701
vt 19.68504 4.704724
vt 19.68504 -4.704724
vt 19.68504 11.36516
vt 19.68504 -11.36516
vt 13.91693 14.69538
vt 13.91693 -14.69538
vt 5.768109 -19.40011
vt 5.768108 19.40011
vt -7.987549E-07 -22.73033
vt -7.987448E-07 22.73033
vt -19.68504 11.36516
vt -19.68504 4.704725
vt -19.68504 -4.704724
vt -19.68504 -11.36516
vt 11.36516 0
vt -11.36516 0
vt 11.36516 3.937008
vt -11.36516 3.937008
vt -17.14194 -12.83342
vt -14.59884 -8.428644
vt -14.59884 -14.30168
vt -12.13821 -10.03974
vt -9.11687 -6.757033
vt -14.76378 -5.492126
vt -19.68504 -8.428644
vt -19.68504 -5.492125
vt 6.000957 10.46429
vt 6.061859 10.42912
vt 4.921259 7.696851
vt 14.76378 5.492126
vt 15.08864 8.428644
vt 6.036909 10.45623
vt 19.68504 5.492126
vt 19.68504 8.428644
vt -0.2449024 17.28147
vt 4.205038 8.110362
vt -2.5431 21.26207
vt -2.625569 15.53187
vt -5.086199 19.79381
vt 6.036908 -10.45623
vt 6.061859 -10.42912
vt 15.08864 -8.428644
vt 14.76378 -5.492126
vt 19.68504 -5.492126
vt 19.68504 -8.428644
vt 4.921259 -7.69685
vt 6.000956 -10.46429
vt -0.2449022 -17.28147
vt 4.205038 -8.11036
vt -2.5431 -21.26207
vt -2.62557 -15.53187
vt -5.086199 -19.79381
vt -11.36516 -5.315206E-07
vt -11.36517 3.937007
vt -4.704724 -2.231722E-06
vt -4.704729 3.937007
vt -11.36516 -7.556076E-17
vt -11.36516 3.937008
vt -4.704725 1.319004E-16
vt -4.704725 3.937008
vt -4.704721 3.937009
vt -4.704724 3.307689E-06
vt -11.36516 3.937009
vt -11.36516 -7.535286E-23
vt -11.36516 6.994299E-07
vt -11.36516 3.93701
vt -4.704725 3.149523E-06
vt -4.704721 3.93701
vt 11.36516 7.874016
vt -11.36516 7.874016
vt 4.704724 6.397638
vt 8.428644 7.874016
vt 5.492126 7.874016
vt 4.70472 6.39764
vt 11.36516 7.874018
vt 6.318893 7.874018
vt 8.428639 7.874018
vt 5.492122 7.874018
vt 11.36516 7.874016
vt 6.318899 7.874016
vt -11.36516 7.874016
vt 4.704729 6.397637
vt 5.49213 7.874015
vt 8.428648 7.874015
vt 11.36517 7.874015
vt 11.36516 7.874018
vt 8.42864 7.874018
vt 5.492121 7.874018
vt 7.987448E-07 22.73033
vt 4.370193 20.20719
vt 7.987549E-07 -22.73033
vt -11.36517 7.874015
vt -8.428649 7.874015
vt -5.49213 7.874015
vt -4.704729 6.397637
vt -4.704721 6.39764
vt -11.36516 7.874018
vt -8.428641 7.874018
vt -5.492123 7.874018
vt -4.704721 6.397639
vt -5.492123 7.874017
vt -8.428641 7.874017
vt -11.36516 7.874017
vt -4.704725 6.397638
vt -11.36516 7.874016
vt -5.492127 7.874016
vt -8.428644 7.874016
vt -14.85089 7.858963
vt -19.68504 7.858963
vt -14.76378 9.532191
vt -19.68504 9.532191
vt -3.206963 9.315107
vt -13.29339 9.315107
vt -3.119853 10.98834
vt -13.20628 10.98834
vt 19.68504 9.53219
vt 19.68504 7.858962
vt 14.76378 9.53219
vt 14.67667 7.858962
vt -19.68504 7.858963
vt -14.85089 7.858963
vt -14.76378 9.532191
vt 14.76378 9.532191
vt 19.68504 9.532191
vt 14.85089 7.858963
vt 19.68504 7.858963
vt -14.67667 7.858962
vt -19.68504 7.858962
vt -14.76378 9.53219
vt -19.68504 9.53219
vt 0.7317707 9.44677
vt -0.7317736 9.44677
vt 0.413509 11.09176
vt -0.4135121 11.09176
vt -14.67667 7.858963
vt 14.67667 7.858962
vt 14.76378 9.53219
vt -0.3391212 8.457479
vt 2.991212E-07 10.60028
vt 0.3391218 8.457479
vt 13.29339 9.315106
vt 6.055614 9.315106
vt 13.20628 10.98833
vt 7.419434 10.98833
vt -15.52014 6.277822
vt -15.60725 7.95105
vt -9.781966 6.277822
vt -11.14579 7.95105
vt 19.68504 7.858963
vt 14.67667 7.858963
vt 19.68504 9.532191
vt 14.76378 9.532191
vt -5.433718 6.277822
vt -15.52014 6.277822
vt -6.814631 7.95105
vt -15.60725 7.95105
vt 0.7317715 9.446771
vt -0.7317733 9.446771
vt 0.4135099 11.09176
vt -0.4135116 11.09176
vt 5.433718 6.277822
vt 6.814631 7.95105
vt 15.52014 6.277822
vt 15.60725 7.95105
vt 13.29339 9.315106
vt 3.206961 9.315106
vt 13.20628 10.98833
vt 3.119851 10.98833
vt 13.20628 10.98833
vt 13.29339 9.315106
vt 3.119852 10.98833
vt 3.206962 9.315106
vt -3.206961 9.315106
vt -13.29339 9.315106
vt -3.119852 10.98833
vt -13.20628 10.98833
vt -13.91693 -14.69538
vt -11.49986 -10.50888
vt -5.768109 -19.40011
vt -7.613917 -6.28678
vt -5.00837 2.5
vt -14.67667 -4.704724
vt -14.85089 4.704725
vt -19.68504 4.704725
vt -19.68504 -4.704724
vt -3.263924 -15.06273
vt -4.669249 3.087376
vt -3.263924 15.06273
vt -5.768109 19.40011
vt -11.49986 10.50889
vt -13.91693 14.69538
vt 3.566683 -7.641221
vt 3.566683 7.641222
vt 4.834149 -6.909449
vt 4.83415 6.90945
vt 14.67667 -4.704724
vt 14.67667 4.704725
vt 19.68504 4.704725
vt -4.704724 3.937006

usemtl dirt

f 3/3/1 2/2/1 1/1/1
f 2/2/1 3/3/1 4/4/1
f 4/4/1 3/3/1 5/5/1
f 4/4/1 5/5/1 6/6/1
f 7/7/1 4/4/1 6/6/1
f 8/8/1 4/4/1 7/7/1
f 4/4/1 8/8/1 9/9/1
f 12/12/2 11/11/2 10/10/2
f 11/11/2 12/12/2 13/13/2
f 13/16/3 14/15/3 11/14/3
f 14/15/3 13/16/3 15/17/3
f 18/20/4 17/19/4 16/18/4
f 17/19/4 18/20/4 19/21/4
f 22/24/5 21/23/5 20/22/5
f 21/23/5 22/24/5 23/25/5
f 26/28/7 25/27/6 24/26/6
f 25/27/6 26/28/7 27/29/7
f 24/32/8 23/31/8 28/30/8
f 23/31/8 24/32/8 21/33/8
f 21/33/8 24/32/8 25/34/8
f 21/33/8 25/34/8 29/35/8
f 29/35/8 25/34/8 14/36/8
f 14/36/8 25/34/8 30/37/8
f 14/36/8 30/37/8 11/38/8
f 11/38/8 30/37/8 31/39/8
f 11/38/8 31/39/8 18/40/8
f 11/38/8 18/40/8 16/41/8
f 32/42/8 11/38/8 16/41/8
f 11/38/8 32/42/8 10/43/8
f 33/46/9 18/45/9 31/44/9
f 18/45/9 33/46/9 19/47/9
f 36/50/1 35/49/1 34/48/1
f 35/49/1 36/50/1 37/51/1
f 38/52/1 35/49/1 37/51/1
f 39/53/1 35/49/1 38/52/1
f 39/53/1 40/54/1 35/49/1
f 40/54/1 39/53/1 41/55/1
f 44/58/1 43/57/1 42/56/1
f 43/57/1 44/58/1 45/59/1
f 46/60/1 43/57/1 45/59/1
f 43/57/1 46/60/1 47/61/1
f 46/60/1 45/59/1 48/62/1
f 46/60/1 48/62/1 49/63/1
f 50/64/1 42/56/1 47/61/1
f 50/64/1 51/65/1 42/56/1
f 42/56/1 51/65/1 44/58/1
f 52/66/1 51/65/1 50/64/1
f 52/66/1 53/67/1 51/65/1
f 53/67/1 52/66/1 54/68/1
f 57/71/1 56/70/1 55/69/1
f 56/70/1 57/71/1 58/72/1
f 58/72/1 57/71/1 59/73/1
f 59/73/1 57/71/1 60/74/1
f 61/75/1 56/70/1 58/72/1
f 56/70/1 61/75/1 62/76/1
f 62/76/1 63/77/1 55/69/1
f 64/78/1 63/77/1 62/76/1
f 64/78/1 62/76/1 61/75/1
f 64/78/1 65/79/1 63/77/1
f 66/80/1 65/79/1 64/78/1
f 65/79/1 66/80/1 67/81/1
f 32/84/4 12/83/4 10/82/4
f 12/83/4 32/84/4 68/85/4
f 29/88/3 20/87/3 21/86/3
f 20/87/3 29/88/3 69/89/3
f 26/92/5 28/91/5 70/90/5
f 28/91/5 26/92/5 24/93/5
f 30/96/12 33/95/11 31/94/10
f 33/95/11 30/96/12 71/97/11

usemtl grass

f 72/98/2 13/13/2 12/12/2
f 13/13/2 72/98/2 73/99/2
f 73/98/3 15/17/3 13/16/3
f 15/17/3 73/98/3 74/100/3
f 74/100/3 73/98/3 65/101/3
f 74/100/3 65/101/3 67/102/3
f 26/28/7 75/103/7 27/29/7
f 75/103/7 26/28/7 76/104/7
f 75/103/7 76/104/7 8/105/7
f 8/105/7 76/104/7 9/106/7
f 7/107/7 75/103/7 8/105/7
f 77/108/9 19/47/9 33/46/9
f 19/47/9 77/108/9 78/109/9
f 79/110/9 19/47/9 78/109/9
f 19/21/4 80/111/4 17/19/4
f 80/111/4 19/21/4 48/112/4
f 48/112/4 19/21/4 49/113/4
f 49/113/4 19/21/4 79/114/4
f 40/116/5 20/22/5 81/115/5
f 20/22/5 40/116/5 22/24/5
f 22/24/5 40/116/5 41/117/5
f 22/24/5 41/117/5 82/103/5
f 43/57/1 47/61/1 42/56/1
f 77/118/1 50/64/1 47/61/1
f 50/64/1 77/118/1 52/66/1
f 77/118/1 47/61/1 78/119/1
f 78/119/1 47/61/1 79/32/1
f 79/32/1 47/61/1 46/60/1
f 79/32/1 46/60/1 49/63/1
f 56/70/1 62/76/1 55/69/1
f 63/77/1 73/120/1 55/69/1
f 73/120/1 63/77/1 65/79/1
f 55/69/1 73/120/1 72/33/1
f 55/69/1 72/33/1 57/71/1
f 57/71/1 72/33/1 60/74/1
f 81/43/1 35/49/1 40/54/1
f 35/49/1 81/43/1 34/48/1
f 4/4/1 76/40/1 2/2/1
f 76/40/1 4/4/1 9/9/1
f 68/85/4 72/121/4 12/83/4
f 72/121/4 68/85/4 60/122/4
f 60/122/4 68/85/4 59/123/4
f 59/123/4 68/85/4 83/124/4
f 84/125/11 33/95/11 71/97/11
f 33/95/11 84/125/11 77/126/11
f 77/126/11 84/125/11 52/127/11
f 52/127/11 84/125/11 54/128/11
f 85/129/5 26/92/5 70/90/5
f 26/92/5 85/129/5 1/130/5
f 26/92/5 1/130/5 2/131/5
f 26/92/5 2/131/5 76/132/5
f 86/133/3 20/87/3 69/89/3
f 20/87/3 86/133/3 81/134/3
f 81/134/3 86/133/3 36/135/3
f 81/134/3 36/135/3 34/136/3

usemtl wood

f 3/139/13 85/138/13 87/137/13
f 85/138/13 3/139/13 1/140/13
f 51/143/14 89/142/14 88/141/14
f 89/142/14 51/143/14 53/144/14
f 66/147/15 74/146/15 67/145/15
f 74/146/15 66/147/15 90/148/15
f 91/150/16 36/140/16 86/149/16
f 36/140/16 91/150/16 37/151/16
f 92/154/17 7/153/17 6/152/17
f 7/153/17 92/154/17 75/155/17
f 58/158/18 83/157/18 93/156/18
f 83/157/18 58/158/18 59/159/18
f 64/162/19 95/161/19 94/160/19
f 95/161/19 64/162/19 61/163/19
f 53/139/20 84/138/20 89/164/20
f 84/138/20 53/139/20 54/140/20
f 41/145/18 96/165/18 82/146/18
f 96/165/18 41/145/18 39/166/18
f 98/169/21 5/168/21 97/167/21
f 39/172/22 99/171/22 96/170/22
f 99/171/22 39/172/22 38/173/22
f 99/176/23 37/175/23 91/174/23
f 37/175/23 99/176/23 38/177/23
f 48/180/24 100/179/24 80/178/24
f 100/179/24 48/180/24 45/181/24
f 5/184/25 87/183/25 97/182/25
f 87/183/25 5/184/25 3/185/25
f 44/188/26 88/187/26 101/186/26
f 88/187/26 44/188/26 51/189/26
f 92/192/27 5/191/27 98/190/27
f 5/191/27 92/192/27 6/193/27
f 45/196/28 101/195/28 100/194/28
f 101/195/28 45/196/28 44/197/28
f 64/200/29 90/199/29 66/198/29
f 90/199/29 64/200/29 94/201/29
f 61/204/30 93/203/30 95/202/30
f 93/203/30 61/204/30 58/205/30

usemtl water

f 74/208/1 91/207/1 86/206/1
f 91/207/1 74/208/1 99/209/1
f 97/210/1 99/209/1 74/208/1
f 97/210/1 96/211/1 99/209/1
f 87/212/1 96/211/1 97/210/1
f 85/213/1 96/211/1 87/212/1
f 96/211/1 85/213/1 82/214/1
f 97/210/1 74/208/1 90/215/1
f 97/210/1 90/215/1 98/216/1
f 89/217/1 98/216/1 90/215/1
f 84/218/1 98/216/1 89/217/1
f 84/218/1 92/219/1 98/216/1
f 92/219/1 84/218/1 75/220/1
f 89/217/1 90/215/1 94/221/1
f 89/217/1 94/221/1 88/222/1
f 88/222/1 94/221/1 95/223/1
f 88/222/1 95/223/1 101/224/1
f 101/224/1 95/223/1 93/225/1
f 101/224/1 93/225/1 100/226/1
f 100/226/1 93/225/1 83/31/1
f 100/226/1 83/31/1 80/227/1
f 32/84/4 83/124/4 68/228/4
f 83/124/4 32/84/4 80/111/4
f 80/111/4 32/84/4 17/19/4
f 17/19/4 32/84/4 16/18/4
f 85/129/5 70/90/5 82/103/5
f 28/91/5 82/103/5 70/90/5
f 23/25/5 82/103/5 28/91/5
f 82/103/5 23/25/5 22/24/5
f 27/29/7 30/96/12 25/27/6
f 30/96/12 27/29/7 71/97/11
f 71/97/11 27/29/7 75/103/7
f 71/97/11 75/103/7 84/125/11
f 15/17/3 29/88/3 14/15/3
f 29/88/3 15/17/3 69/89/3
f 69/89/3 15/17/3 74/100/3
f 69/89/3 74/100/3 86/133/3

