# Created by Kenney (www.kenney.nl)

mtllib river_cornerSharp.mtl

g river_cornerSharp

v -0.3708105 0.2 -0.2140876
v -0.5 0.2 -0.2140876
v -0.4354053 0.2 -0.3259689
v -0.5 0.2 -0.2886751
v 0.3363117 0.2 0.09472039
v 0.3005285 0.2 -0.01964451
v 0.5 0.2 -0.2886751
v -1.270564E-13 0.2 -0.5773503
v 0.1672769 0.2 -0.250443
v -0.006220486 0.2 -0.4389493
v -0.06459473 0.2 -0.5400565
v 0.5 0.2 0.2886751
v 0.2501861 0.2 0.2438943
v 1.270564E-13 0.2 0.5773503
v 0.1332516 0.2 0.2700876
v -0.1332515 0.2 0.2700876
v -0.5 0.2 0.2886751
v -0.3832515 0.2 0.2140876
v -0.5 0.2 0.2140876
v 0.5 0.1 -0.2886751
v 0.5 0.1 0.2886751
v 1.270564E-13 0.1 0.5773503
v -0.5 0.1 0.2886751
v -1.270564E-13 0.1 -0.5773503
v -0.5 0.1 0.1195
v -0.4999999 0.1625 0.1195
v -0.4999999 0.2 0.1395
v -0.5 0.1 -0.2886751
v -0.35349 0.1 -0.3732627
v -0.35349 0.1625 -0.3732627
v -0.3708105 0.2 -0.3632627
v -0.1465099 0.1 -0.4927627
v -0.1465099 0.1625 -0.4927627
v -0.1291894 0.2 -0.5027627
v -0.5 0.1 -0.1195
v -0.4999999 0.2 -0.1395
v -0.4999999 0.1625 -0.1195
v 0.2553562 0.2 0.08576434
v 0.231808 0.2 0.0105032
v 0.106808 0.2 -0.2060031
v -0.06668941 0.2 -0.3945095
v 0.2019522 0.2 0.1782628
v 0.125 0.2 0.1955
v -0.125 0.2 0.1955
v -0.3749999 0.2 0.1395
v 1.270564E-13 0 0.5773503
v -0.5 0 0.2886751
v 0.5 0 0.2886751
v -0.4999999 1.391462E-17 0.1195
v -1.270564E-13 0 -0.5773503
v 0.5 0 -0.2886751
v -0.1465099 -1.043667E-17 -0.4927627
v -0.35349 -8.645109E-18 -0.3732627
v -0.4999999 -1.70414E-17 -0.1195
v -0.5 0 -0.2886751
v -0.3083105 0.2 -0.2550095
v -0.3749999 0.2 -0.1395
v -0.1570679 0.2 -0.09068318
v 0.2336486 0.1625 0.08336286
v 0.1890187 0.1625 0.1606642
v -0.3727874 0.1625 0.1195
v -0.2920963 0.1625 -0.2669257
v -0.09906419 0.1625 -0.05719473
v 0.1227875 0.1625 0.1755
v -0.1227874 0.1625 0.1755
v -0.08290362 0.1625 -0.3825933
v 0.2133812 0.1625 0.01858704
v -0.3772125 0.1625 -0.1195
v 0.0905938 0.1625 -0.194087

vn 0 1 0
vn 1 0 0
vn -0.5 0 0.8660254
vn 0.5 0 -0.8660254
vn 0.5 0 0.8660254
vn -1 0 0
vn -0.4999999 0 -0.8660255
vn -0.4999998 0 -0.8660255
vn -0.5000002 0 -0.8660253
vn 0 -1 0
vn -0.5 0 -0.8660254
vn -0.5000001 0 -0.8660253
vn -0.7641401 0.4705882 -0.4411765
vn 0 0.4705883 -0.8823529
vn 0.649228 0.4705882 -0.5975363
vn 0.7641401 0.4705882 -0.4411765
vn -0.1928676 0.4705882 -0.8610161
vn -0.7641401 0.4705882 0.4411765
vn -0.8420956 0.4705882 0.2634798
vn 0 0.4705883 0.8823529
vn 0.1928676 0.4705882 -0.8610161
vn -0.1928676 0.4705882 0.8610161
vn -0.649228 0.4705882 0.5975363

vt 14.59884 -8.428644
vt 19.68504 -8.428644
vt 17.14194 -12.83342
vt 19.68504 -11.36516
vt -13.24062 3.729149
vt -11.83183 -0.7734058
vt -19.68504 -11.36516
vt 5.002188E-12 -22.73033
vt -6.585706 -9.859961
vt 0.244901 -17.28147
vt 2.5431 -21.26207
vt -19.68504 11.36516
vt -9.849846 9.602137
vt -5.002254E-12 22.73033
vt -5.246126 10.63337
vt 5.246123 10.63337
vt 19.68504 11.36516
vt 15.08864 8.428644
vt 19.68504 8.428644
vt 11.36516 7.874016
vt 11.36516 3.937008
vt -11.36516 7.874016
vt -11.36516 3.937008
vt 4.704727 3.937009
vt 4.704729 6.397635
vt 11.36516 3.937009
vt 5.492131 7.874013
vt 8.428648 7.874013
vt 11.36517 7.874013
vt 11.36517 3.937007
vt 4.704726 3.937007
vt 11.36517 7.874015
vt 4.704728 6.397637
vt 5.492129 7.874015
vt 8.428649 7.874015
vt -4.70473 3.937007
vt -11.36517 3.937007
vt -4.70473 6.397636
vt -11.36517 7.874014
vt -5.492132 7.874014
vt -8.428649 7.874014
vt -11.36517 3.937006
vt -11.36517 7.874014
vt -4.704728 3.937006
vt -8.428649 7.874014
vt -5.492129 7.874014
vt -4.704728 6.397636
vt -10.05339 3.376549
vt -9.1263 0.4135117
vt -4.20504 -8.11036
vt 2.625567 -15.53187
vt 5.086197 -19.79381
vt -7.950873 7.018219
vt -4.921261 7.696852
vt 4.921258 7.696852
vt 14.76378 5.492127
vt 19.68504 5.492127
vt 11.36516 0
vt -11.36516 0
vt 4.704727 1.119478E-06
vt 11.36516 1.119478E-06
vt 5.002221E-12 22.73033
vt -5.002221E-12 -22.73033
vt -5.768107 -19.40011
vt -13.91693 -14.69538
vt -19.68504 4.704725
vt -19.68504 -4.704723
vt 4.704726 -4.375451E-07
vt 11.36517 -4.375451E-07
vt 14.59884 -14.30168
vt 12.13821 -10.03974
vt 14.76378 -5.492125
vt 6.183775 -3.570204
vt 19.68504 -5.492125
vt -4.704726 -2.112658E-06
vt -11.36517 4.375449E-07
vt -11.36517 1.057666E-06
vt -4.704723 -1.981438E-06
vt -1.757085 10.16609
vt -2.102519 11.83932
vt 1.757086 10.16609
vt 2.10252 11.83932
vt 19.68504 7.858963
vt 14.67667 7.858963
vt 19.68504 9.532191
vt 14.76378 9.532191
vt 15.52014 6.277821
vt 4.298049 6.277821
vt 15.60725 7.951049
vt 6.814628 7.951049
vt 19.68504 7.858962
vt 14.85089 7.858962
vt 19.68504 9.53219
vt 14.76378 9.53219
vt -3.206964 9.315107
vt -5.879108 9.315107
vt -3.119854 10.98834
vt -6.224542 10.98834
vt 4.834148 8.896481
vt -4.834152 8.896481
vt 4.921258 10.56971
vt -4.921262 10.56971
vt -19.68504 9.532191
vt -14.76378 9.532191
vt -19.68504 7.858963
vt -14.67667 7.858963
vt 3.119854 10.98834
vt 6.224542 10.98834
vt 3.206964 9.315107
vt 5.879109 9.315107
vt -14.85089 7.858962
vt -19.68504 7.858962
vt -14.76378 9.53219
vt -19.68504 9.53219
vt 13.29339 9.315107
vt 3.20696 9.315107
vt 13.20628 10.98834
vt 3.11985 10.98834
vt -4.921258 10.56971
vt 4.921261 10.56971
vt -4.834148 8.896481
vt 4.834152 8.896481
vt -4.29805 6.277821
vt -15.52014 6.277821
vt -6.814628 7.951049
vt -15.60725 7.951049
vt -13.20628 10.98834
vt -3.119851 10.98834
vt -13.29339 9.315107
vt -3.20696 9.315107
vt 3.263922 -15.06273
vt 3.900165 -2.251761
vt 5.768107 -19.40011
vt 11.49985 -10.50888
vt 13.91693 -14.69538
vt -3.566685 -7.641221
vt 4.834148 6.90945
vt -4.834152 6.909451
vt -7.44168 6.325364
vt -8.400835 0.7317733
vt -9.198766 3.282002
vt 14.85089 -4.704723
vt 14.67667 4.704726
vt 19.68504 4.704725
vt 19.68504 -4.704723
vt -4.704723 3.937006
vt 4.704726 3.937006

usemtl grass

f 3/3/1 2/2/1 1/1/1
f 2/2/1 3/3/1 4/4/1
f 7/7/1 6/6/1 5/5/1
f 6/6/1 7/7/1 8/8/1
f 6/6/1 8/8/1 9/9/1
f 9/9/1 8/8/1 10/10/1
f 10/10/1 8/8/1 11/11/1
f 5/5/1 12/12/1 7/7/1
f 13/13/1 12/12/1 5/5/1
f 12/12/1 13/13/1 14/14/1
f 14/14/1 13/13/1 15/15/1
f 14/14/1 15/15/1 16/16/1
f 14/14/1 16/16/1 17/17/1
f 17/17/1 16/16/1 18/18/1
f 17/17/1 18/18/1 19/19/1
f 12/22/2 20/21/2 7/20/2
f 20/21/2 12/22/2 21/23/2
f 14/20/3 23/23/3 22/21/3
f 23/23/3 14/20/3 17/22/3
f 8/20/4 20/23/4 24/21/4
f 20/23/4 8/20/4 7/22/4
f 12/20/5 22/23/5 21/21/5
f 22/23/5 12/20/5 14/22/5
f 23/26/6 26/25/6 25/24/6
f 26/25/6 23/26/6 27/27/6
f 27/27/6 23/26/6 19/28/6
f 19/28/6 23/26/6 17/29/6
f 4/32/8 29/31/7 28/30/7
f 29/31/7 4/32/8 30/33/8
f 30/33/8 4/32/8 31/34/8
f 31/34/8 4/32/8 3/35/8
f 33/38/9 24/37/9 32/36/9
f 24/37/9 33/38/9 8/39/9
f 8/39/9 33/38/9 34/40/9
f 8/39/9 34/40/9 11/41/9
f 35/44/6 4/43/6 28/42/6
f 4/43/6 35/44/6 2/45/6
f 2/45/6 35/44/6 36/46/6
f 36/46/6 35/44/6 37/47/6

usemtl dirt

f 9/9/1 38/48/1 6/6/1
f 38/48/1 9/9/1 39/49/1
f 39/49/1 9/9/1 40/50/1
f 40/50/1 9/9/1 10/10/1
f 40/50/1 10/10/1 41/51/1
f 41/51/1 10/10/1 11/11/1
f 41/51/1 11/11/1 34/52/1
f 13/13/1 6/6/1 38/48/1
f 6/6/1 13/13/1 5/5/1
f 13/13/1 38/48/1 42/53/1
f 13/13/1 42/53/1 15/15/1
f 15/15/1 42/53/1 43/54/1
f 15/15/1 43/54/1 16/16/1
f 16/16/1 43/54/1 44/55/1
f 16/16/1 44/55/1 45/56/1
f 16/16/1 45/56/1 18/18/1
f 18/18/1 45/56/1 27/57/1
f 18/18/1 27/57/1 19/19/1
f 22/21/3 47/59/3 46/58/3
f 47/59/3 22/21/3 23/23/3
f 21/21/5 46/59/5 48/58/5
f 46/59/5 21/21/5 22/23/5
f 47/61/6 25/24/6 49/60/6
f 25/24/6 47/61/6 23/26/6
f 24/21/4 51/59/4 50/58/4
f 51/59/4 24/21/4 20/23/4
f 46/62/10 51/4/10 48/17/10
f 51/4/10 46/62/10 50/63/10
f 50/63/10 46/62/10 47/12/10
f 50/63/10 47/12/10 52/64/10
f 52/64/10 47/12/10 53/65/10
f 53/65/10 47/12/10 49/66/10
f 53/65/10 49/66/10 54/67/10
f 55/7/10 53/65/10 54/67/10
f 21/23/2 51/58/2 20/21/2
f 51/58/2 21/23/2 48/59/2
f 55/69/7 29/31/7 53/68/7
f 29/31/7 55/69/7 28/30/7
f 3/3/1 1/1/1 31/70/1
f 1/1/1 56/71/1 31/70/1
f 57/72/1 56/71/1 1/1/1
f 56/71/1 57/72/1 58/73/1
f 57/72/1 1/1/1 2/2/1
f 57/72/1 2/2/1 36/74/1
f 32/36/9 50/76/12 52/75/11
f 50/76/12 32/36/9 24/37/9
f 54/78/6 28/42/6 55/77/6
f 28/42/6 54/78/6 35/44/6

usemtl wood

f 60/81/13 38/80/13 59/79/13
f 38/80/13 60/81/13 42/82/13
f 27/85/14 61/84/14 26/83/14
f 61/84/14 27/85/14 45/86/14
f 56/89/15 63/88/15 62/87/15
f 63/88/15 56/89/15 58/90/15
f 31/93/16 62/92/16 30/91/16
f 62/92/16 31/93/16 56/94/16
f 43/97/17 60/96/17 64/95/17
f 60/96/17 43/97/17 42/98/17
f 44/101/14 64/100/14 65/99/14
f 64/100/14 44/101/14 43/102/14
f 33/105/18 41/104/18 34/103/18
f 41/104/18 33/105/18 66/106/18
f 67/109/19 38/108/19 39/107/19
f 38/108/19 67/109/19 59/110/19
f 57/113/20 37/112/20 68/111/20
f 37/112/20 57/113/20 36/114/20
f 45/117/21 65/116/21 61/115/21
f 65/116/21 45/117/21 44/118/21
f 69/121/18 39/120/18 40/119/18
f 39/120/18 69/121/18 67/122/18
f 58/125/22 68/124/22 63/123/22
f 68/124/22 58/125/22 57/126/22
f 66/129/23 40/128/23 41/127/23
f 40/128/23 66/129/23 69/130/23

usemtl water

f 33/133/1 63/132/1 66/131/1
f 63/132/1 33/133/1 62/134/1
f 62/134/1 33/133/1 30/135/1
f 63/132/1 69/136/1 66/131/1
f 65/137/1 69/136/1 63/132/1
f 64/138/1 69/136/1 65/137/1
f 60/139/1 69/136/1 64/138/1
f 60/139/1 67/140/1 69/136/1
f 67/140/1 60/139/1 59/141/1
f 65/137/1 63/132/1 68/142/1
f 65/137/1 68/142/1 61/143/1
f 61/143/1 68/142/1 26/144/1
f 26/144/1 68/142/1 37/145/1
f 53/68/7 32/36/9 52/75/11
f 32/36/9 53/68/7 29/31/7
f 32/36/9 29/31/7 30/33/8
f 32/36/9 30/33/8 33/38/9
f 54/78/6 37/47/6 35/146/6
f 37/47/6 54/78/6 26/25/6
f 26/25/6 54/78/6 49/60/6
f 26/25/6 49/60/6 25/147/6

