# Created by Kenney (www.kenney.nl)

mtllib river_corner.mtl

g river_corner

v -0.5 2.634756E-18 0.1195
v -0.5 0.1 0.1195
v -0.5 0 0.2886751
v -0.5 0.1 0.2886751
v 6.083658E-09 0 0.5773503
v 6.083658E-09 0.1 0.5773503
v 0.5 0 0.2886751
v 0.5 0 -0.2886751
v 0.35349 3.180766E-18 -0.3732627
v 0.1465099 2.634756E-18 -0.4927627
v 6.083404E-09 0 -0.5773503
v -0.5 0 -0.2886751
v -0.5 3.180766E-18 -0.1195
v 0.5 0.1 -0.2886751
v 0.5 0.1 0.2886751
v -0.5 0.1 -0.2886751
v 6.083404E-09 0.1 -0.5773503
v -0.1533375 0.2 -0.2655883
v -0.1539712 0.2 -0.2648997
v -0.3832516 0.2 -0.2140876
v -0.375 0.2 -0.1395
v -0.5 0.2 -0.1395
v -0.5 0.2 -0.2140876
v -0.125 0.2 -0.1955
v -0.1524243 0.2 -0.2657929
v 0.006220496 0.2 -0.4389494
v -0.106808 0.2 -0.2060032
v 0.06459472 0.2 -0.5400565
v 0.06668944 0.2 -0.3945095
v 0.1291894 0.2 -0.5027627
v 0.1465099 0.1 -0.4927627
v 0.4354053 0.2 -0.3259689
v 0.3687795 0.2 -0.2105697
v 0.3708105 0.2 -0.3632627
v 0.3083105 0.2 -0.2550095
v 0.1952821 0.2 -0.02206333
v 0.1348131 0.2 -0.06650317
v 0.1461128 0.2 0.06310029
v 0.09151093 0.2 0.008498411
v -0.01840995 0.2 0.1580876
v -0.03839563 0.2 0.0835
v -0.1167484 0.2 0.1580876
v -0.125 0.2 0.0835
v -0.3667485 0.2 0.2140876
v -0.375 0.2 0.1395
v -0.5 0.2 0.2140876
v -0.5 0.2 0.1395
v -0.5 0.1 -0.1195
v 0.35349 0.1 -0.3732627
v 0.5 0.2 0.2886751
v 6.083658E-09 0.2 0.5773503
v -0.5 0.1625 0.1195
v -0.5 0.2 0.2886751
v 0.5 0.2 -0.2886751
v -0.5 0.2 -0.2886751
v 6.083404E-09 0.2 -0.5773503
v 0.1465099 0.1625 -0.4927627
v -0.1110029 0.2 0.5132627
v -0.5 0.1625 -0.1195
v 0.35349 0.1625 -0.3732627
v 0.08290366 0.1625 -0.3825934
v -0.04375461 0.1625 0.0635
v 0.07686991 0.1625 -0.006142605
v -0.1272126 0.1625 0.0635
v -0.3727874 0.1625 -0.1195
v 0.2920963 0.1625 -0.2669257
v -0.3772126 0.1625 0.1195
v 0.1185989 0.1625 -0.07841934
v -0.1227874 0.1625 -0.1755
v -0.09059376 0.1625 -0.194087

vn -1 0 0
vn -0.5 0 0.8660254
vn 0 -1 0
vn 1 0 0
vn -0.5 0 -0.8660254
vn 0.5 0 0.8660254
vn 0 1 0
vn 0.5 0 -0.8660254
vn 0.5000001 0 -0.8660254
vn 0.7641401 0.4705882 0.4411765
vn -0.4411765 0.4705882 -0.7641401
vn 0 0.4705883 -0.8823529
vn 0 0.4705883 0.8823529
vn -0.7641401 0.4705882 -0.4411765
vn -0.1928676 0.4705882 -0.8610161
vn 0.1928676 0.4705882 0.8610161
vn 0.44875 0.4410147 0.7772577
vn 0.649228 0.4705882 0.5975363
vn -0.649228 0.4705882 -0.5975363

vt 4.704724 -1.753011E-07
vt 4.704724 3.937008
vt 11.36516 -1.753011E-07
vt 11.36516 3.937008
vt 11.36516 0
vt -11.36516 0
vt 11.36516 3.937008
vt -11.36516 3.937008
vt 19.68504 11.36516
vt 19.68504 -11.36516
vt 2.395141E-07 22.73033
vt 13.91693 -14.69538
vt 5.768108 -19.40011
vt 2.395041E-07 -22.73033
vt -19.68504 11.36516
vt -19.68504 -11.36516
vt -19.68504 4.704724
vt -19.68504 -4.704724
vt 6.03691 -10.45623
vt 6.06186 -10.42912
vt 15.08864 -8.428644
vt 14.76378 -5.492126
vt 19.68504 -5.492126
vt 19.68504 -8.428644
vt 4.92126 -7.69685
vt 6.000957 -10.46429
vt -0.2449014 -17.28147
vt 4.205039 -8.110361
vt -2.543099 -21.26207
vt -2.625569 -15.53187
vt -5.086198 -19.79381
vt 11.36516 -3.635976E-08
vt 4.704726 -3.635976E-08
vt 11.36516 3.937007
vt 4.704726 3.937007
vt -17.14194 -12.83342
vt -14.51888 -8.290145
vt -14.59884 -14.30168
vt -12.13821 -10.03975
vt -7.68827 -0.868635
vt -5.307603 -2.618235
vt -5.752473 2.484264
vt -3.602793 0.3345831
vt 0.7248013 6.22392
vt 1.511639 3.287402
vt 4.596395 6.22392
vt 4.92126 3.287402
vt 14.43892 8.428644
vt 14.76378 5.492126
vt 19.68504 8.428644
vt 19.68504 5.492126
vt -11.36516 -1.240862E-07
vt -11.36516 3.937008
vt -4.704724 5.712922E-07
vt -4.704723 3.937008
vt -11.36516 8.772643E-08
vt -11.36516 3.937008
vt -4.704724 -2.804579E-07
vt -4.704724 3.937008
vt 11.36516 7.874016
vt -11.36516 7.874016
vt 4.704723 6.397638
vt 5.492125 7.874016
vt 8.428643 7.874016
vt 11.36516 7.874016
vt 11.36516 7.874015
vt 4.704726 6.397637
vt 8.428645 7.874015
vt 5.492127 7.874015
vt 6.318898 7.874016
vt -2.395041E-07 -22.73033
vt -2.395141E-07 22.73033
vt 4.370193 20.20719
vt -11.36516 7.874016
vt -8.428643 7.874016
vt -5.492125 7.874016
vt -4.704723 6.397638
vt -4.704724 6.397638
vt -8.428644 7.874016
vt -5.492126 7.874016
vt 19.68504 9.532191
vt 19.68504 7.858963
vt 14.76378 9.532191
vt 14.67667 7.858963
vt 2.741835 6.258505
vt -2.741835 6.258505
vt 2.952819 7.931733
vt -2.952818 7.931733
vt 5.00837 6.821445
vt 1.722623 6.821445
vt 4.92126 8.494674
vt 1.511639 8.494674
vt -14.67667 7.858963
vt -19.68504 7.858963
vt -14.76378 9.532191
vt -19.68504 9.532191
vt -19.68504 9.53219
vt -14.85089 7.858963
vt -14.76378 9.53219
vt 15.52014 6.277822
vt 5.433717 6.277822
vt 15.60725 7.95105
vt 5.520827 7.95105
vt -5.008369 6.821445
vt -4.92126 8.494674
vt -1.722622 6.821445
vt -1.511639 8.494674
vt 14.85089 7.858963
vt -3.206962 9.315106
vt -13.29339 9.315106
vt -3.119853 10.98834
vt -13.20628 10.98834
vt 0.7317722 9.44677
vt -0.7317726 9.44677
vt 0.4135105 11.09176
vt -0.4135109 11.09176
vt 13.20628 10.98834
vt 13.29339 9.315106
vt 3.119852 10.98834
vt 3.206962 9.315106
vt -15.52014 6.277822
vt -15.60725 7.95105
vt -5.433717 6.277822
vt -5.520826 7.95105
vt -13.91693 -14.69538
vt -11.49986 -10.50889
vt -5.768108 -19.40011
vt -4.669248 -3.087375
vt -3.263924 -15.06273
vt -3.026375 -0.2418348
vt 3.566684 -7.641221
vt 1.722623 2.5
vt 5.00837 2.5
vt 4.83415 -6.909449
vt 14.67667 -4.704724
vt 14.85089 4.704724
vt 19.68504 -4.704724
vt 19.68504 4.704724
vt 4.704724 3.937008

usemtl dirt

f 3/3/1 2/2/1 1/1/1
f 2/2/1 3/3/1 4/4/1
f 6/7/2 3/6/2 5/5/2
f 3/6/2 6/7/2 4/8/2
f 5/11/3 8/10/3 7/9/3
f 8/10/3 5/11/3 9/12/3
f 9/12/3 5/11/3 10/13/3
f 10/13/3 5/11/3 11/14/3
f 11/14/3 5/11/3 3/15/3
f 11/14/3 3/15/3 12/16/3
f 12/16/3 3/15/3 1/17/3
f 12/16/3 1/17/3 13/18/3
f 15/8/4 8/5/4 14/7/4
f 8/5/4 15/8/4 7/6/4
f 16/7/5 11/6/5 12/5/5
f 11/6/5 16/7/5 17/8/5
f 15/7/6 5/6/6 7/5/6
f 5/6/6 15/7/6 6/8/6
f 20/21/7 19/20/7 18/19/7
f 19/20/7 20/21/7 21/22/7
f 21/22/7 20/21/7 22/23/7
f 22/23/7 20/21/7 23/24/7
f 24/25/7 19/20/7 21/22/7
f 19/20/7 24/25/7 25/26/7
f 25/26/7 26/27/7 18/19/7
f 27/28/7 26/27/7 25/26/7
f 27/28/7 25/26/7 24/25/7
f 27/28/7 28/29/7 26/27/7
f 29/30/7 28/29/7 27/28/7
f 28/29/7 29/30/7 30/31/7
f 17/34/9 10/33/8 11/32/8
f 10/33/8 17/34/9 31/35/9
f 34/38/7 33/37/7 32/36/7
f 33/37/7 34/38/7 35/39/7
f 33/37/7 35/39/7 36/40/7
f 36/40/7 35/39/7 37/41/7
f 36/40/7 37/41/7 38/42/7
f 38/42/7 37/41/7 39/43/7
f 38/42/7 39/43/7 40/44/7
f 40/44/7 39/43/7 41/45/7
f 40/44/7 41/45/7 42/46/7
f 42/46/7 41/45/7 43/47/7
f 42/46/7 43/47/7 44/48/7
f 44/48/7 43/47/7 45/49/7
f 44/48/7 45/49/7 46/50/7
f 46/50/7 45/49/7 47/51/7
f 13/54/1 16/53/1 12/52/1
f 16/53/1 13/54/1 48/55/1
f 9/58/8 14/57/8 8/56/8
f 14/57/8 9/58/8 49/59/8

usemtl grass

f 50/60/6 6/8/6 15/7/6
f 6/8/6 50/60/6 51/61/6
f 4/4/1 52/62/1 2/2/1
f 52/62/1 4/4/1 47/63/1
f 47/63/1 4/4/1 46/64/1
f 46/64/1 4/4/1 53/65/1
f 50/61/4 14/7/4 54/60/4
f 14/7/4 50/61/4 15/8/4
f 55/60/5 17/8/5 16/7/5
f 17/8/5 55/60/5 56/61/5
f 56/66/9 31/35/9 17/34/9
f 31/35/9 56/66/9 57/67/9
f 57/67/9 56/66/9 28/68/9
f 30/69/9 57/67/9 28/68/9
f 51/60/2 4/8/2 6/7/2
f 4/8/2 51/60/2 58/70/2
f 53/61/2 4/8/2 58/70/2
f 56/71/7 26/27/7 28/29/7
f 26/27/7 56/71/7 18/19/7
f 18/19/7 56/71/7 55/10/7
f 18/19/7 55/10/7 20/21/7
f 20/21/7 55/10/7 23/24/7
f 19/20/7 25/26/7 18/19/7
f 54/16/7 51/72/7 50/15/7
f 51/72/7 54/16/7 32/36/7
f 51/72/7 32/36/7 33/37/7
f 51/72/7 33/37/7 36/40/7
f 51/72/7 36/40/7 38/42/7
f 51/72/7 38/42/7 40/44/7
f 51/72/7 40/44/7 58/73/7
f 58/73/7 40/44/7 42/46/7
f 58/73/7 42/46/7 53/9/7
f 53/9/7 42/46/7 44/48/7
f 53/9/7 44/48/7 46/50/7
f 48/55/1 55/74/1 16/53/1
f 55/74/1 48/55/1 23/75/1
f 23/75/1 48/55/1 22/76/1
f 22/76/1 48/55/1 59/77/1
f 60/78/8 14/57/8 49/59/8
f 14/57/8 60/78/8 54/61/8
f 54/61/8 60/78/8 32/79/8
f 32/79/8 60/78/8 34/80/8

usemtl wood

f 29/83/10 57/82/10 30/81/10
f 57/82/10 29/83/10 61/84/10
f 41/87/11 63/86/11 62/85/11
f 63/86/11 41/87/11 39/88/11
f 43/91/12 62/90/12 64/89/12
f 62/90/12 43/91/12 41/92/12
f 21/95/13 59/94/13 65/93/13
f 59/94/13 21/95/13 22/96/13
f 66/98/14 34/97/14 60/94/14
f 34/97/14 66/98/14 35/99/14
f 45/102/15 64/101/15 67/100/15
f 64/101/15 45/102/15 43/103/15
f 63/106/14 37/105/14 68/104/14
f 37/105/14 63/106/14 39/107/14
f 47/81/12 67/108/12 52/82/12
f 67/108/12 47/81/12 45/83/12
f 24/111/16 65/110/16 69/109/16
f 65/110/16 24/111/16 21/112/16
f 27/115/17 69/114/17 70/113/17
f 69/114/17 27/115/17 24/116/17
f 27/119/18 61/118/18 29/117/18
f 61/118/18 27/119/18 70/120/18
f 68/123/19 35/122/19 66/121/19
f 35/122/19 68/123/19 37/124/19

usemtl water

f 57/127/7 66/126/7 60/125/7
f 66/126/7 57/127/7 68/128/7
f 68/128/7 57/127/7 61/129/7
f 68/128/7 61/129/7 63/130/7
f 63/130/7 61/129/7 70/131/7
f 63/130/7 70/131/7 62/132/7
f 62/132/7 70/131/7 64/133/7
f 64/133/7 70/131/7 69/134/7
f 64/133/7 69/134/7 65/135/7
f 64/133/7 65/135/7 67/136/7
f 67/136/7 65/135/7 59/137/7
f 67/136/7 59/137/7 52/138/7
f 1/1/1 48/55/1 13/54/1
f 48/55/1 1/1/1 59/77/1
f 59/77/1 1/1/1 52/62/1
f 52/62/1 1/1/1 2/139/1
f 31/35/9 9/58/8 10/33/8
f 9/58/8 31/35/9 49/59/8
f 49/59/8 31/35/9 57/67/9
f 49/59/8 57/67/9 60/78/8

