# Created by Kenney (www.kenney.nl)

mtllib sand_rocks.mtl

g sand_rocks

v 0.5 0 0.2886751
v 0.5 0 -0.2886751
v 1.198373E-13 0 0.5773503
v -1.349974E-13 0 -0.5773503
v -0.5 0 0.2886751
v -0.5 0 -0.2886751
v 0.5 0.1 0.2886751
v 1.198373E-13 0.1 0.5773503
v 0.5 0.1 -0.2886751
v -1.349974E-13 0.1 -0.5773503
v -0.5 0.1 -0.2886751
v -0.5 0.1 0.2886751
v 0.5 0.2 0.2886751
v 1.198373E-13 0.2 0.5773503
v 0.5 0.2 -0.2886751
v -1.349974E-13 0.2 -0.5773503
v -0.5 0.2 0.2886751
v -0.5 0.2 -0.2886751

vn 0 -1 0
vn 0.5 0 0.8660254
vn 1 0 0
vn 0.5 0 -0.8660254
vn -0.5 0 -0.8660254
vn -1 0 0
vn -0.5 0 0.8660254
vn 0 1 0

vt 19.68504 11.36516
vt 19.68504 -11.36516
vt 4.718004E-12 22.73033
vt -5.31486E-12 -22.73033
vt -19.68504 11.36516
vt -19.68504 -11.36516
vt 11.36516 0
vt -11.36516 0
vt 11.36516 3.937008
vt -11.36516 3.937008
vt -4.718004E-12 22.73033
vt 5.31486E-12 -22.73033
vt -11.36516 7.874016
vt 11.36516 7.874016

usemtl dirt

f 3/3/1 2/2/1 1/1/1
f 2/2/1 3/3/1 4/4/1
f 4/4/1 3/3/1 5/5/1
f 4/4/1 5/5/1 6/6/1
f 7/9/2 3/8/2 1/7/2
f 3/8/2 7/9/2 8/10/2
f 7/10/3 2/7/3 9/9/3
f 2/7/3 7/10/3 1/8/3
f 10/9/4 2/8/4 4/7/4
f 2/8/4 10/9/4 9/10/4
f 11/9/5 4/8/5 6/7/5
f 4/8/5 11/9/5 10/10/5
f 5/7/6 11/10/6 6/8/6
f 11/10/6 5/7/6 12/9/6
f 8/9/7 5/8/7 3/7/7
f 5/8/7 8/9/7 12/10/7

usemtl sand

f 15/6/8 14/11/8 13/5/8
f 14/11/8 15/6/8 16/12/8
f 14/11/8 16/12/8 17/1/8
f 17/1/8 16/12/8 18/2/8
f 12/9/6 18/13/6 11/10/6
f 18/13/6 12/9/6 17/14/6
f 14/14/7 12/10/7 8/9/7
f 12/10/7 14/14/7 17/13/7
f 18/14/5 10/10/5 11/9/5
f 10/10/5 18/14/5 16/13/5
f 16/14/4 9/10/4 10/9/4
f 9/10/4 16/14/4 15/13/4
f 13/13/3 9/9/3 15/14/3
f 9/9/3 13/13/3 7/10/3
f 13/14/2 8/10/2 7/9/2
f 8/10/2 13/14/2 14/13/2

g rock

v 0.08219771 0.23306 -0.2280603
v 0.08219771 0.23306 -0.1902397
v 0.04401341 0.23306 -0.2280603
v 0.04401341 0.23306 -0.1902397
v 0.02839256 0.2 -0.2435324
v 0.02839256 0.2 -0.1747676
v 0.09781856 0.2 -0.1747676
v 0.09781856 0.2 -0.2435324

vn 0 0.3306 0
vn -0.6773269 0.07257073 1.009273E-08
vn 9.996604E-09 0.07257073 0.6708761
vn 0.6773269 0.07257073 -1.009273E-08
vn -9.996604E-09 0.07257073 -0.6708761
vn 0 -0.3306 0

vt -1.082677 -1.082677
vt -1.082677 1.082677
vt 1.082677 -1.082677
vt 1.082677 1.082677
vt -1.968504 -0.4321106
vt -1.082677 3.603323
vt 1.968504 -0.4321106
vt 1.082677 3.603323
vt 1.968504 -1.968504
vt -1.968504 -1.968504
vt 1.968504 1.968504
vt -1.968504 1.968504

usemtl sand

f 21/17/9 20/16/9 19/15/9
f 20/16/9 21/17/9 22/18/9
f 24/21/10 21/20/10 23/19/10
f 21/20/10 24/21/10 22/22/10
f 20/22/11 24/19/11 25/21/11
f 24/19/11 20/22/11 22/20/11
f 19/22/12 25/19/12 26/21/12
f 25/19/12 19/22/12 20/20/12
f 21/22/13 26/19/13 23/21/13
f 26/19/13 21/22/13 19/20/13
f 25/25/14 23/24/14 26/23/14
f 23/24/14 25/25/14 24/26/14

g rock

v 0.3900259 0.2435 -0.2166959
v 0.4149079 0.2435 -0.1735991
v 0.3465146 0.2435 -0.1915747
v 0.3713967 0.2435 -0.1484778
v 0.3185356 0.2 -0.1989284
v 0.3637756 0.2 -0.1205704
v 0.442887 0.2 -0.1662454
v 0.397647 0.2 -0.2446034

vn 0 0.435 0
vn -0.7718188 0.0954878 0.4456098
vn 0.4413659 0.0954878 0.7644681
vn 0.7718188 0.0954878 -0.4456098
vn -0.4413659 0.0954878 -0.7644681
vn 0 -0.435 0


usemtl sand

f 29/17/15 28/16/15 27/15/15
f 28/16/15 29/17/15 30/18/15
f 32/21/16 29/20/16 31/19/16
f 29/20/16 32/21/16 30/22/16
f 28/22/17 32/19/17 33/21/17
f 32/19/17 28/22/17 30/20/17
f 27/22/18 33/19/18 34/21/18
f 33/19/18 27/22/18 28/20/18
f 29/22/19 34/19/19 31/21/19
f 34/19/19 29/22/19 27/20/19
f 32/26/20 34/23/20 33/25/20
f 34/23/20 32/26/20 31/24/20

g rock

v 0.3817476 0.23306 -0.06557913
v 0.3817476 0.23306 -0.02775849
v 0.3435633 0.23306 -0.06557913
v 0.3435633 0.23306 -0.02775849
v 0.3279425 0.2 -0.08105122
v 0.3279425 0.2 -0.01228641
v 0.3973685 0.2 -0.01228641
v 0.3973685 0.2 -0.08105122



usemtl sand

f 37/17/9 36/16/9 35/15/9
f 36/16/9 37/17/9 38/18/9
f 40/21/10 37/20/10 39/19/10
f 37/20/10 40/21/10 38/22/10
f 36/22/11 40/19/11 41/21/11
f 40/19/11 36/22/11 38/20/11
f 35/22/12 41/19/12 42/21/12
f 41/19/12 35/22/12 36/20/12
f 37/22/13 42/19/13 39/21/13
f 42/19/13 37/22/13 35/20/13
f 41/25/14 39/24/14 42/23/14
f 39/24/14 41/25/14 40/26/14

g rock

v -0.004861634 0.23306 0.3981245
v 0.004927069 0.23306 0.4346564
v -0.04174483 0.23306 0.4080073
v -0.03195613 0.23306 0.4445392
v -0.06083789 0.2 0.3971054
v -0.04304025 0.2 0.4635271
v 0.02402012 0.2 0.4455583
v 0.006222481 0.2 0.3791367

vn -0.6542475 0.07257073 0.1753051
vn 0.1736355 0.07257073 0.6480165
vn 0.6542475 0.07257073 -0.1753051
vn -0.1736355 0.07257073 -0.6480165


usemtl sand

f 45/17/9 44/16/9 43/15/9
f 44/16/9 45/17/9 46/18/9
f 48/21/21 45/20/21 47/19/21
f 45/20/21 48/21/21 46/22/21
f 44/22/22 48/19/22 49/21/22
f 48/19/22 44/22/22 46/20/22
f 43/22/23 49/19/23 50/21/23
f 49/19/23 43/22/23 44/20/23
f 45/22/24 50/19/24 47/21/24
f 50/19/24 45/22/24 43/20/24
f 48/26/14 50/23/14 49/25/14
f 50/23/14 48/26/14 47/24/14

g rock

v -0.3460486 0.2435 -0.2169462
v -0.3853166 0.2435 -0.1863769
v -0.3769118 0.2435 -0.2565917
v -0.4161798 0.2435 -0.2260225
v -0.3734735 0.2 -0.285316
v -0.4448698 0.2 -0.2297355
v -0.3887549 0.2 -0.1576526
v -0.3173586 0.2 -0.2132332

vn -0.5474629 0.0954878 -0.7032471
vn -0.6965495 0.0954878 0.5422491
vn 0.5474629 0.0954878 0.7032471
vn 0.6965495 0.0954878 -0.5422491


usemtl sand

f 53/17/15 52/16/15 51/15/15
f 52/16/15 53/17/15 54/18/15
f 56/21/25 53/20/25 55/19/25
f 53/20/25 56/21/25 54/22/25
f 52/22/26 56/19/26 57/21/26
f 56/19/26 52/22/26 54/20/26
f 51/22/27 57/19/27 58/21/27
f 57/19/27 51/22/27 52/20/27
f 53/22/28 58/19/28 55/21/28
f 58/19/28 53/22/28 51/20/28
f 56/26/20 58/23/20 57/25/20
f 58/23/20 56/26/20 55/24/20

