# Created by Kenney (www.kenney.nl)

mtllib unit_boat.mtl

g unit_boat

v 0.2193 0.0822375 -0.03703427
v 0.054825 0.0822375 -0.03703427
v 0.2193 0.10965 -0.03703427
v -0.054825 0.0822375 -0.03703427
v -0.2193 0.0822375 -0.03703427
v -0.2193 0.10965 -0.03703427
v -0.2193 0.054825 -0.03703427
v -0.054825 0.054825 -0.03703427
v 0.054825 0.054825 -0.03703427
v 0.2193 0.054825 -0.03703427
v 0.2193 0.10965 -0.0731
v -0.2193 0.10965 -0.0731
v -0.3225 0.10965 -2.649415E-13
v -0.2193 0.10965 0.03703427
v -0.2193 0.10965 0.0731
v 0.3225 0.10965 -1.516014E-13
v 0.2193 0.10965 0.0731
v 0.2193 0.10965 0.03703427
v -0.2193 1.680831E-25 0.054825
v 0.054825 0.0822375 0.03703427
v -0.054825 0.0822375 0.03703427
v 0.2193 1.680831E-25 -0.054825
v -0.2193 1.680831E-25 -0.054825
v 0.2193 1.680831E-25 0.054825
v -0.2193 0.054825 0.03703427
v 0.054825 0.054825 0.03703427
v 0.2193 0.054825 0.03703427
v -0.054825 0.054825 0.03703427

vn 0 0 1
vn 0 1 0
vn -0.5727445 -0.1347634 0.8085805
vn 0 -1 0
vn -0.5727445 -0.1347634 -0.8085805
vn 1 0 0
vn -0.7282 -0.6853647 0
vn 0.7282 -0.6853647 0
vn -1 0 0
vn 0 -0.164399 0.986394
vn 0.5727445 -0.1347634 -0.8085805
vn 0.5727445 -0.1347634 0.8085805
vn 0 -0.164399 -0.986394
vn 0 0 -1

vt 8.633859 3.237697
vt 2.158465 3.237697
vt 8.633859 4.316929
vt -2.158465 3.237697
vt -8.633859 3.237697
vt -8.633859 4.316929
vt -8.633859 2.158465
vt -2.158465 2.158465
vt 2.158465 2.158465
vt 8.633859 2.158465
vt -8.633859 -2.877953
vt -8.633859 -1.458042
vt 8.633859 -2.877953
vt 8.633859 -1.458042
vt 12.69685 -1.043077E-11
vt 8.633859 1.458042
vt 8.633859 2.877953
vt -12.69685 -5.968559E-12
vt -8.633859 2.877953
vt -8.633859 1.458042
vt -5.381933 5.266578
vt -5.79781 0.9099064
vt -10.36094 5.266578
vt -2.158465 -1.458042
vt -2.158465 1.458042
vt 2.158465 -1.458042
vt 2.158465 1.458042
vt 8.633859 -2.158465
vt -8.633859 -2.158465
vt 5.79781 0.9099064
vt 5.381933 5.266578
vt 10.36094 5.266578
vt 1.458042 4.316929
vt 1.458042 3.237697
vt -1.458042 4.316929
vt 1.458042 2.158465
vt -1.458042 2.158465
vt -1.458042 3.237697
vt -2.158465 5.917342
vt -8.269031E-12 11.84556
vt 2.158465 5.917342
vt 8.127633E-12 11.84556
vt 8.633859 0.3548494
vt -8.633859 0.3548494
vt 8.633859 4.731325
vt -8.633859 4.731325

usemtl dirt

f 3/3/1 2/2/1 1/1/1
f 2/2/1 3/3/1 4/4/1
f 4/4/1 3/3/1 5/5/1
f 5/5/1 3/3/1 6/6/1
f 7/7/1 4/4/1 5/5/1
f 4/4/1 7/7/1 8/8/1
f 9/9/1 1/1/1 2/2/1
f 1/1/1 9/9/1 10/10/1
f 12/13/2 3/12/2 11/11/2
f 3/12/2 12/13/2 6/14/2
f 6/14/2 12/13/2 13/15/2
f 6/14/2 13/15/2 14/16/2
f 14/16/2 13/15/2 15/17/2
f 3/12/2 16/18/2 11/11/2
f 16/18/2 3/12/2 17/19/2
f 17/19/2 14/16/2 15/17/2
f 17/19/2 3/12/2 18/20/2
f 17/19/2 18/20/2 14/16/2
f 13/23/3 19/22/3 15/21/3
f 4/26/2 20/25/2 2/24/2
f 20/25/2 4/26/2 21/27/2
f 24/10/4 23/29/4 22/28/4
f 23/29/4 24/10/4 19/7/4
f 13/32/5 12/31/5 23/30/5
f 14/35/6 5/34/6 6/33/6
f 5/34/6 14/35/6 7/36/6
f 7/36/6 14/35/6 25/37/6
f 20/38/6 9/36/6 2/34/6
f 9/36/6 20/38/6 26/37/6
f 19/41/7 13/40/7 23/39/7
f 9/24/2 27/20/2 10/12/2
f 27/20/2 9/24/2 26/25/2
f 7/14/2 28/27/2 8/26/2
f 28/27/2 7/14/2 25/16/2
f 24/39/8 22/41/8 16/42/8
f 27/36/9 1/38/9 10/37/9
f 1/38/9 27/36/9 3/35/9
f 3/35/9 27/36/9 18/33/9
f 17/45/10 19/44/10 24/43/10
f 19/44/10 17/45/10 15/46/10
f 16/23/11 22/22/11 11/21/11
f 17/31/12 24/30/12 16/32/12
f 12/45/13 22/44/13 23/43/13
f 22/44/13 12/45/13 11/46/13
f 25/10/14 21/2/14 28/9/14
f 21/2/14 25/10/14 14/3/14
f 21/2/14 14/3/14 20/4/14
f 18/6/14 20/4/14 14/3/14
f 27/7/14 20/4/14 18/6/14
f 20/4/14 27/7/14 26/8/14
f 28/36/9 4/38/9 8/37/9
f 4/38/9 28/36/9 21/34/9

g Group

v 0.1333 0.1400556 0.04269441
v 0.1118 0.1400556 0.04269441
v 0.1333 0 0.18275
v 0.1118 7.450581E-09 0.18275
v 0.1118 0.1552584 0.05789721
v 0.1333 0.1552584 0.05789721
v 0.1118 0.0152028 0.1979528
v 0.1333 0.0152028 0.1979528

vn 2.980232E-08 -0.1520279 -0.152028
vn -2.980232E-08 0.1520279 0.152028
vn -8.543332E-09 0.202704 -0.2027039
vn -0.43 -5.960464E-08 -1.2815E-08
vn 0.43 5.960464E-08 1.2815E-08
vn 8.543332E-09 -0.202704 0.2027039

vt -5.905512 -6.424591E-14
vt -5.905512 1.968504
vt 21.29672 2.768146E-13
vt 21.29672 1.968504
vt 5.905512 1.968504
vt 5.905512 -5.684342E-14
vt -21.29672 1.968504
vt -21.29672 2.842171E-13
vt 3.937008 -5.678182E-14
vt -5.659755E-14 -5.678182E-14
vt 3.937008 1.968504
vt -5.659755E-14 1.968504
vt -4.412618E-14 -5.905512
vt -4.412618E-14 21.29672
vt 3.937008 -5.905512
vt 3.937008 21.29672
vt 5.684342E-14 21.29672
vt 5.684342E-14 -5.905512
vt -3.937008 21.29672
vt -3.937008 -5.905512
vt 6.305E-14 3.850735E-13
vt -3.937008 3.850735E-13
vt 6.305E-14 1.968504
vt -3.937008 1.968504

usemtl dirt

f 31/49/15 30/48/15 29/47/15
f 30/48/15 31/49/15 32/50/15
f 35/53/16 34/52/16 33/51/16
f 34/52/16 35/53/16 36/54/16
f 30/57/17 34/56/17 29/55/17
f 34/56/17 30/57/17 33/58/17
f 30/61/18 35/60/18 33/59/18
f 35/60/18 30/61/18 32/62/18
f 31/65/19 34/64/19 36/63/19
f 34/64/19 31/65/19 29/66/19
f 35/69/20 31/68/20 36/67/20
f 31/68/20 35/69/20 32/70/20

g Group

v -0.1118 0.1400556 0.04269441
v -0.1333 0.1400556 0.04269441
v -0.1118 0 0.18275
v -0.1333 7.450581E-09 0.18275
v -0.1333 0.1552584 0.05789721
v -0.1118 0.1552584 0.05789721
v -0.1333 0.0152028 0.1979528
v -0.1118 0.0152028 0.1979528



usemtl dirt

f 39/49/15 38/48/15 37/47/15
f 38/48/15 39/49/15 40/50/15
f 43/53/16 42/52/16 41/51/16
f 42/52/16 43/53/16 44/54/16
f 38/57/17 42/56/17 37/55/17
f 42/56/17 38/57/17 41/58/17
f 38/61/18 43/60/18 41/59/18
f 43/60/18 38/61/18 40/62/18
f 39/65/19 42/64/19 44/63/19
f 42/64/19 39/65/19 37/66/19
f 43/69/20 39/68/20 44/67/20
f 39/68/20 43/69/20 40/70/20

g Group

v 0.0172 0.1400556 -0.04269441
v -0.004300002 0.1400556 -0.04269441
v 0.0172 0 -0.18275
v -0.004299996 7.450581E-09 -0.18275
v -0.004300004 0.1552584 -0.05789721
v 0.0172 0.1552584 -0.05789721
v -0.004299998 0.0152028 -0.1979528
v 0.0172 0.0152028 -0.1979528

vn 2.980232E-08 -0.1520279 0.152028
vn -2.980232E-08 0.1520279 -0.152028
vn -8.543332E-09 0.202704 0.202704
vn -0.43 -5.960464E-08 1.2815E-08
vn 0.43 5.960464E-08 -1.2815E-08
vn 8.543332E-09 -0.202704 -0.202704


usemtl dirt

f 45/47/21 46/48/21 47/49/21
f 48/50/21 47/49/21 46/48/21
f 49/51/22 50/52/22 51/53/22
f 52/54/22 51/53/22 50/52/22
f 45/55/23 50/56/23 46/57/23
f 49/58/23 46/57/23 50/56/23
f 49/59/24 51/60/24 46/61/24
f 48/62/24 46/61/24 51/60/24
f 52/63/25 50/64/25 47/65/25
f 45/66/25 47/65/25 50/64/25
f 52/67/26 47/68/26 51/69/26
f 48/70/26 51/69/26 47/68/26

g Group

v 0.1333 0.1400556 -0.04269441
v 0.1118 0.1400556 -0.04269441
v 0.1333 0 -0.18275
v 0.1118 7.450581E-09 -0.18275
v 0.1118 0.1552584 -0.05789721
v 0.1333 0.1552584 -0.05789721
v 0.1118 0.0152028 -0.1979528
v 0.1333 0.0152028 -0.1979528



usemtl dirt

f 53/47/21 54/48/21 55/49/21
f 56/50/21 55/49/21 54/48/21
f 57/51/22 58/52/22 59/53/22
f 60/54/22 59/53/22 58/52/22
f 53/55/23 58/56/23 54/57/23
f 57/58/23 54/57/23 58/56/23
f 57/59/24 59/60/24 54/61/24
f 56/62/24 54/61/24 59/60/24
f 60/63/25 58/64/25 55/65/25
f 53/66/25 55/65/25 58/64/25
f 60/67/26 55/68/26 59/69/26
f 56/70/26 59/69/26 55/68/26

g Group

v -0.1118 0.1400556 -0.04269441
v -0.1333 0.1400556 -0.04269441
v -0.1118 0 -0.18275
v -0.1333 7.450581E-09 -0.18275
v -0.1333 0.1552584 -0.05789721
v -0.1118 0.1552584 -0.05789721
v -0.1333 0.0152028 -0.1979528
v -0.1118 0.0152028 -0.1979528



usemtl dirt

f 61/47/21 62/48/21 63/49/21
f 64/50/21 63/49/21 62/48/21
f 65/51/22 66/52/22 67/53/22
f 68/54/22 67/53/22 66/52/22
f 61/55/23 66/56/23 62/57/23
f 65/58/23 62/57/23 66/56/23
f 65/59/24 67/60/24 62/61/24
f 64/62/24 62/61/24 67/60/24
f 68/63/25 66/64/25 63/65/25
f 61/66/25 63/65/25 66/64/25
f 68/67/26 63/68/26 67/69/26
f 64/70/26 67/69/26 63/68/26

g Group

v 0.0172 0.1400556 0.04269441
v -0.004300002 0.1400556 0.04269441
v 0.0172 0 0.18275
v -0.004299996 7.450581E-09 0.18275
v -0.004300004 0.1552584 0.05789721
v 0.0172 0.1552584 0.05789721
v -0.004299998 0.0152028 0.1979528
v 0.0172 0.0152028 0.1979528



usemtl dirt

f 71/49/15 70/48/15 69/47/15
f 70/48/15 71/49/15 72/50/15
f 75/53/16 74/52/16 73/51/16
f 74/52/16 75/53/16 76/54/16
f 70/57/17 74/56/17 69/55/17
f 74/56/17 70/57/17 73/58/17
f 70/61/18 75/60/18 73/59/18
f 75/60/18 70/61/18 72/62/18
f 71/65/19 74/64/19 76/63/19
f 74/64/19 71/65/19 69/66/19
f 75/69/20 71/68/20 76/67/20
f 71/68/20 75/69/20 72/70/20

