# Created by Kenney (www.kenney.nl)

mtllib unit_tree.mtl

g unit_tree

v 0.03 0 0.03
v -0.03 0 0.03
v 0.03 0.08 0.03
v -0.03 0.08 0.03
v -0.03 0 -0.03
v -0.03 0.08 -0.03
v 0.03 0.08 -0.03
v 0.03 0 -0.03
v -0.1 0.08 -0.1
v -0.075 0.18 -0.075
v -0.1 0.08 0.1
v -0.075 0.18 0.075
v 0.1 0.08 -0.1
v 0.075 0.18 -0.075
v 0.01875 0.38 -0.01875
v 0.01875 0.38 0.01875
v -0.01875 0.38 -0.01875
v -0.01875 0.38 0.01875
v 0.1 0.18 -0.1
v 0.1 0.18 0.1
v -0.1 0.18 -0.1
v -0.1 0.18 0.1
v 0.1 0.08 0.1
v 0.075 0.18 0.075

vn 0 0 1
vn -1 0 0
vn 1 0 0
vn 0 -1 0
vn 0 0 -1
vn -0.9701425 0.2425356 0
vn 0 0.2425356 -0.9701425
vn 0 1 0
vn 0.9264665 0.376377 0
vn -0.9264665 0.376377 0
vn 0 0.2425356 0.9701425
vn 0.9701425 0.2425356 0
vn 0 0.376377 0.9264665
vn 0 0.376377 -0.9264665

vt 1.181102 0
vt -1.181102 0
vt 1.181102 3.149606
vt -1.181102 3.149606
vt 1.181102 1.181102
vt 1.181102 -1.181102
vt -1.181102 1.181102
vt -1.181102 -1.181102
vt -3.937008 2.100702
vt -2.952756 6.158877
vt 3.937008 2.100702
vt 2.952756 6.158877
vt -0.738189 -0.738189
vt -0.738189 0.738189
vt 0.738189 -0.738189
vt 0.738189 0.738189
vt 3.937008 5.083712
vt -3.937008 5.083712
vt 0.738189 13.58269
vt -0.738189 13.58269
vt 3.937008 -3.937008
vt 3.937008 3.937008
vt -3.937008 3.937008
vt -3.937008 -3.937008
vt 2.952756 2.952756
vt 2.952756 -2.952756
vt -2.952756 2.952756
vt -2.952756 -2.952756

usemtl wood

f 3/3/1 2/2/1 1/1/1
f 2/2/1 3/3/1 4/4/1
f 2/1/2 6/4/2 5/2/2
f 6/4/2 2/1/2 4/3/2
f 3/4/3 8/1/3 7/3/3
f 8/1/3 3/4/3 1/2/3
f 2/7/4 8/6/4 1/5/4
f 8/6/4 2/7/4 5/8/4
f 6/3/5 8/2/5 5/1/5
f 8/2/5 6/3/5 7/4/5

usemtl foliage

f 11/11/6 10/10/6 9/9/6
f 10/10/6 11/11/6 12/12/6
f 10/12/7 13/9/7 9/11/7
f 13/9/7 10/12/7 14/10/7
f 17/15/8 16/14/8 15/13/8
f 16/14/8 17/15/8 18/16/8
f 15/19/9 20/18/9 19/17/9
f 20/18/9 15/19/9 16/20/9
f 22/17/10 17/20/10 21/18/10
f 17/20/10 22/17/10 18/19/10
f 23/22/4 3/5/4 13/21/4
f 3/5/4 23/22/4 11/23/4
f 3/5/4 11/23/4 4/7/4
f 4/7/4 11/23/4 6/8/4
f 7/6/4 13/21/4 3/5/4
f 13/21/4 7/6/4 9/24/4
f 9/24/4 7/6/4 6/8/4
f 9/24/4 6/8/4 11/23/4
f 24/12/11 11/9/11 23/11/11
f 11/9/11 24/12/11 12/10/11
f 14/12/12 23/9/12 13/11/12
f 23/9/12 14/12/12 24/10/12
f 20/22/4 24/25/4 19/21/4
f 24/25/4 20/22/4 22/23/4
f 19/21/4 24/25/4 14/26/4
f 24/25/4 22/23/4 12/27/4
f 12/27/4 22/23/4 10/28/4
f 14/26/4 21/24/4 19/21/4
f 21/24/4 14/26/4 10/28/4
f 21/24/4 10/28/4 22/23/4
f 16/19/13 22/18/13 20/17/13
f 22/18/13 16/19/13 18/20/13
f 17/19/14 19/18/14 21/17/14
f 19/18/14 17/19/14 15/20/14

