# Created by Kenney (www.kenney.nl)

mtllib unit_houseLarge.mtl

g unit_houseLarge

v 0.10965 -1.090945E-17 0.28275
v -0.10965 -1.090945E-17 0.28275
v 0.10965 0.047515 0.28275
v -0.10965 0.047515 0.28275
v -0.10965 -1.090945E-17 -0.28275
v 0.10965 -1.090945E-17 -0.28275
v -0.10965 0.047515 -0.28275
v 0.10965 0.047515 -0.28275
v -0.15 -1.090945E-17 -0.15
v -0.10965 -1.090945E-17 -0.15
v -0.15 0.065 -0.15
v -0.10965 0.047515 -0.15
v -0.122808 0.055556 -0.15
v -0.1354 0.065 -0.15
v -0.10965 0.065 -0.15
v -0.115725 0.065 -0.15
v -0.10965 0.047515 0.15
v -0.122808 0.055556 0.15
v -0.10965 0.065 0.15
v -0.115725 0.065 0.15
v -0.15 0.065 0.15
v -0.10965 -1.090945E-17 0.15
v -0.15 -1.090945E-17 0.15
v -0.1354 0.065 0.15
v 0.15 -1.090945E-17 0.15
v 0.15 -1.090945E-17 -0.15
v 0.10965 -1.090945E-17 0.15
v 0.10965 -1.090945E-17 -0.15
v -0.15 -1.090945E-17 0.1
v -0.15 -1.090945E-17 0.05
v -0.15 -1.090945E-17 -0.05
v -0.15 -1.090945E-17 -0.1
v 0.10965 0.047515 -0.15
v 0.122808 0.055556 -0.15
v 0.10965 0.065 -0.15
v 0.115725 0.065 -0.15
v 0.15 0.065 -0.15
v 0.1354 0.065 -0.15
v -0.15 0.125 -0.05
v -0.15 0.125 0.05
v -0.15 0.065 0.1
v 0.10965 0.047515 0.15
v -0.15 0.065 -0.1
v 0.15 0.065 0.15
v 0.122808 0.055556 0.15
v 0.1354 0.065 0.15
v 0.10965 0.065 0.15
v 0.115725 0.065 0.15
v 0.122808 0.055556 0.30468
v -3.259439E-09 0.2193 0.30468
v 0.140352 0.068714 0.30468
v 0.070176 0.162282 0.30468
v 0.08002526 0.1696689 0.30468
v -3.259439E-09 0.2763693 0.30468
v -0.08002527 0.1696689 0.30468
v -0.07017601 0.162282 0.30468
v -0.140352 0.068714 0.30468
v -0.122808 0.055556 0.30468
v -0.122808 0.055556 -0.30468
v 3.259803E-09 0.2193 -0.30468
v -0.140352 0.068714 -0.30468
v -0.070176 0.162282 -0.30468
v -0.08002526 0.1696689 -0.30468
v 3.259803E-09 0.2763693 -0.30468
v 0.08002527 0.1696689 -0.30468
v 0.07017601 0.162282 -0.30468
v 0.140352 0.068714 -0.30468
v 0.122808 0.055556 -0.30468
v -0.04077698 0.222 0.096
v -0.03319803 0.2321053 0.1094737
v -0.08002526 0.1696689 0.1352483
v -8.872515E-10 0.2763693 0.07627565
v -0.1168875 0.1 0.15
v -0.1348875 0.076 0.168
v -0.140352 0.068714 0.15
v -0.1213875 0.094 0.192
v -0.07017601 0.162282 0.1407885
v 8.876154E-10 0.2763693 -0.07627565
v 0.03319803 0.2321053 -0.1094737
v 0.08002526 0.1696689 -0.1352483
v 0.04077698 0.222 -0.096
v 0.18 0.2321053 0.1094737
v 0.18 0.222 0.096
v 0.03319803 0.2321053 0.1094737
v 0.04077697 0.222 0.096
v -0.18 0.094 0.192
v -0.18 0.222 0.096
v 0.07017601 0.162282 -0.1407885
v 0.1213875 0.094 -0.192
v 0.1348875 0.076 -0.168
v 0.140352 0.068714 -0.15
v 0.1168875 0.1 -0.15
v -0.10965 0.0731 -0.28275
v 2.797666E-09 0.2193 -0.28275
v -0.10965 0.0731 -0.15
v -0.140352 0.068714 -0.15
v -0.1348875 0.076 -0.168
v -0.18 0.076 -0.168
v -0.1168875 0.1 -0.15
v -0.15 0.1 -0.15
v -0.18 0.3 -1.516014E-13
v -0.15 0.3 -1.516014E-13
v 0.18 0.222 -0.096
v 0.18 0.2321053 -0.1094737
v -0.070176 0.162282 -0.1407885
v -0.08002526 0.1696689 -0.1352483
v 0.070176 0.162282 0.1407885
v 0.1213875 0.094 0.192
v 0.1348875 0.076 0.168
v 0.140352 0.068714 0.15
v 0.1168875 0.1 0.15
v -0.03319803 0.2321053 -0.1094737
v -0.04077697 0.222 -0.096
v -0.18 0.076 0.168
v -0.15 0.1 0.15
v 0.18 0.094 0.192
v 0.18 0.076 0.168
v -0.18 0.2321053 0.1094737
v 0.18 0.094 -0.192
v 0.15 0.1 0.15
v 0.18 0.3 -1.516014E-13
v 0.15 0.3 -1.516014E-13
v -0.10965 0.0731 0.15
v -0.10965 0.0731 0.28275
v -2.797301E-09 0.2193 0.28275
v -0.18 0.2321053 -0.1094737
v -0.18 0.3780701 -1.516014E-13
v 0.18 0.3780701 -1.516014E-13
v 0.18 0.076 -0.168
v 0.15 0.1 -0.15
v 0.08002526 0.1696689 0.1352483
v -0.1213875 0.094 -0.192
v -0.18 0.094 -0.192
v 0.10965 0.0731 0.15
v 0.10965 0.0731 0.28275
v 0.10965 0.0731 -0.28275
v 0.10965 0.0731 -0.15
v -0.18 0.222 -0.096

vn 0 0 1
vn 0 0 -1
vn -1 0 0
vn 0 -1 0
vn 1 0 0
vn -0.8 0.6 0
vn 0.8 0.6 0
vn 0 -0.8 0.6
vn 0 0.6 0.8
vn 0.8 -0.6 0
vn -0.6 -0.8 0
vn 0 -0.6 0.8
vn 0 -0.8 -0.6
vn 0 -0.6 -0.8
vn 0 0.6 -0.8
vn 0.6 -0.8 0
vn -0.8 -0.6 0

vt 4.316929 -4.295057E-16
vt -4.316929 -4.295057E-16
vt 4.316929 1.870669
vt -4.316929 1.870669
vt 5.905512 -7.619935E-15
vt 4.316929 -7.619935E-15
vt 5.905512 2.559055
vt 4.316929 1.870669
vt 4.83496 2.187244
vt 5.330709 2.559055
vt 4.316929 2.559055
vt 4.556102 2.559055
vt -4.316929 1.870669
vt -4.83496 2.187244
vt -4.316929 2.559055
vt -4.556102 2.559055
vt -5.905512 2.559055
vt -4.316929 1.359019E-14
vt -5.905512 1.359019E-14
vt -5.330709 2.559055
vt 5.905512 -4.295057E-16
vt 5.905512 1.870669
vt 11.13189 -4.295057E-16
vt 11.13189 1.870669
vt 5.905512 5.905512
vt 5.905512 -5.905512
vt 4.316929 5.905512
vt 4.316929 -5.905512
vt -4.316929 -11.13189
vt 4.316929 -11.13189
vt 4.316929 11.13189
vt -4.316929 11.13189
vt -4.316929 5.905512
vt -4.316929 -5.905512
vt -5.905512 -5.905512
vt -5.905512 5.905512
vt -5.905512 3.937008
vt -5.905512 1.968504
vt -5.905512 -1.968504
vt -5.905512 -3.937008
vt -5.905512 -7.619935E-15
vt -4.316929 -7.619935E-15
vt -1.968504 4.92126
vt 1.968504 4.92126
vt -1.968504 -4.295057E-16
vt 1.968504 -4.295057E-16
vt -11.13189 -4.295057E-16
vt -11.13189 1.870669
vt -5.905512 -4.295057E-16
vt -5.905512 1.870669
vt 3.937008 -4.295057E-16
vt 3.937008 2.559055
vt -3.937008 -4.295057E-16
vt -3.937008 2.559055
vt 5.905512 6.760923E-15
vt 4.316929 6.760923E-15
vt 4.834961 2.187244
vt 1.244559E-07 8.633859
vt 5.52567 2.705276
vt 2.762835 6.389055
vt 3.150601 6.67988
vt 1.244559E-07 10.88068
vt -3.150601 6.67988
vt -2.762835 6.389055
vt -5.525669 2.705276
vt 1.244416E-07 8.633859
vt 1.244416E-07 10.88068
vt 3.779528 6.028891
vt 4.309988 6.526196
vt 5.324736 3.453543
vt 11.99528 8.704545
vt 3.002979 8.704545
vt 11.99528 3.453543
vt 5.905512 0.3884842
vt 6.614173 -0.7926181
vt 5.905512 -1.151181
vt 11.99528 -1.151181
vt 7.559055 0.09320865
vt 5.542854 3.453543
vt 7.086614 8.930792
vt 7.086614 8.267716
vt 1.307009 8.930792
vt 1.605393 8.267716
vt -4.779036 -1.574803
vt -7.086614 -1.574803
vt -2.762835 1.785532
vt -7.086614 4.72441
vt -3.150601 2.149062
vt -1.605393 4.72441
vt 7.559055 0.09320864
vt 6.614173 -0.7926182
vt 11.99528 6.907087
vt 11.13189 -0.2877953
vt 11.13189 6.907087
vt 5.905512 -0.2877953
vt 5.905512 -0.6864173
vt -11.99528 5.180315
vt -11.99528 6.043701
vt -5.905512 5.180315
vt -5.905512 5.8
vt -5.905512 6.043701
vt -5.310532 -1.574803
vt -4.60187 -0.3937008
vt -5.905512 -0.3937008
vt -7.086614 9.448819
vt -5.905512 9.448819
vt -7.086614 8.267716
vt -7.086614 8.930792
vt -1.605393 8.267716
vt -1.307009 8.930792
vt -11.99528 6.528409
vt -5.542854 6.043701
vt -5.324736 6.528409
vt -5.542854 3.453543
vt -7.559055 0.09320868
vt -11.99528 3.453543
vt -11.99528 -1.151181
vt -6.614173 -0.7926181
vt -5.905512 -1.151181
vt -5.905512 0.3884843
vt 5.542854 6.043701
vt 5.324736 6.528409
vt 11.99528 6.043701
vt 11.99528 6.528409
vt -5.324736 3.453543
vt -4.309988 6.526196
vt -3.779527 6.028891
vt -11.99528 8.704545
vt -3.002979 8.704545
vt -4.779036 8.267716
vt -5.310532 7.086614
vt -7.086614 7.086614
vt 5.905512 -0.3937008
vt 5.310532 -1.574803
vt 4.60187 -0.3937008
vt 7.086614 -1.574803
vt 7.086614 9.448819
vt 5.905512 9.448819
vt 7.086614 7.086614
vt 4.779036 8.267716
vt 5.310532 7.086614
vt -5.905512 -0.2877953
vt -5.905512 -0.6864173
vt -11.13189 -0.2877953
vt -11.13189 6.907086
vt -11.99528 6.907086
vt 5.905512 5.180315
vt 5.905512 5.8
vt 11.99528 5.180315
vt 5.905512 6.043701
vt 1.307009 4.72441
vt -3.494549E-08 6.902758
vt 7.086614 4.72441
vt 7.086614 11.90772
vt -7.086614 11.90772
vt -1.307009 4.72441
vt -3.493116E-08 6.902758
vt 4.779036 -1.574803
vt 2.762835 1.785532
vt 3.150601 2.149062
vt 1.605393 4.72441
vt 4.309988 9.138002
vt 3.779528 8.740157
vt 5.968559E-12 14.88465
vt 5.968559E-12 11.81102
vt 6.614173 2.992126
vt 7.559055 3.700787
vt -4.309988 9.138002
vt -3.779528 8.740157
vt -6.614173 2.992126
vt -7.559055 3.700787
vt -5.968559E-12 11.81102
vt -5.968559E-12 14.88465
vt 4.316929 2.877953
vt -4.316929 2.877953
vt 1.24456E-07 8.633859
vt 1.244416E-07 8.633859
vt -5.52567 2.705276
vt -4.60187 3.937008
vt 11.13189 2.877953
vt 5.905512 2.877953
vt -11.13189 2.877953
vt -5.905512 2.877953
vt 4.316929 2.877953
vt 5.525669 2.705276
vt 5.905512 3.937008
vt 4.60187 3.937008
vt -4.316929 2.877953

usemtl wood

f 3/3/1 2/2/1 1/1/1
f 2/2/1 3/3/1 4/4/1
f 7/3/2 6/2/2 5/1/2
f 6/2/2 7/3/2 8/4/2
f 11/7/2 10/6/2 9/5/2
f 10/6/2 11/7/2 12/8/2
f 12/8/2 11/7/2 13/9/2
f 13/9/2 11/7/2 14/10/2
f 13/9/2 15/11/2 12/8/2
f 15/11/2 13/9/2 16/12/2
f 19/15/1 18/14/1 17/13/1
f 18/14/1 19/15/1 20/16/1
f 21/17/1 17/13/1 18/14/1
f 21/17/1 22/18/1 17/13/1
f 22/18/1 21/17/1 23/19/1
f 21/17/1 18/14/1 24/20/1
f 2/23/3 17/22/3 22/21/3
f 17/22/3 2/23/3 4/24/3
f 27/27/4 26/26/4 25/25/4
f 26/26/4 27/27/4 28/28/4
f 5/29/4 28/28/4 27/27/4
f 28/28/4 5/29/4 6/30/4
f 5/29/4 27/27/4 1/31/4
f 5/29/4 1/31/4 2/32/4
f 5/29/4 2/32/4 22/33/4
f 22/33/4 9/35/4 10/34/4
f 9/35/4 22/33/4 23/36/4
f 9/35/4 23/36/4 29/37/4
f 9/35/4 29/37/4 30/38/4
f 9/35/4 30/38/4 31/39/4
f 9/35/4 31/39/4 32/40/4
f 5/29/4 22/33/4 10/34/4
f 35/15/2 34/14/2 33/13/2
f 34/14/2 35/15/2 36/16/2
f 37/17/2 33/13/2 34/14/2
f 26/41/2 33/13/2 37/17/2
f 33/13/2 26/41/2 28/42/2
f 37/17/2 34/14/2 38/20/2
f 33/22/5 6/23/5 8/24/5
f 6/23/5 33/22/5 28/21/5
f 31/45/3 40/44/3 39/43/3
f 40/44/3 31/45/3 30/46/3
f 10/49/3 7/48/3 5/47/3
f 7/48/3 10/49/3 12/50/3
f 23/21/3 41/52/3 29/51/3
f 41/52/3 23/21/3 21/7/3
f 3/48/5 27/49/5 42/50/5
f 27/49/5 3/48/5 1/47/5
f 32/53/3 11/17/3 9/49/3
f 11/17/3 32/53/3 43/54/3
f 44/17/5 26/21/5 37/7/5
f 26/21/5 44/17/5 25/49/5
f 44/7/1 27/56/1 25/55/1
f 27/56/1 44/7/1 42/8/1
f 42/8/1 44/7/1 45/9/1
f 45/9/1 44/7/1 46/10/1
f 45/9/1 47/11/1 42/8/1
f 47/11/1 45/9/1 48/12/1

usemtl roof

f 51/59/1 50/58/1 49/57/1
f 50/58/1 51/59/1 52/60/1
f 50/58/1 52/60/1 53/61/1
f 50/58/1 53/61/1 54/62/1
f 55/63/1 50/58/1 54/62/1
f 56/64/1 50/58/1 55/63/1
f 57/65/1 50/58/1 56/64/1
f 50/58/1 57/65/1 58/14/1
f 61/59/2 60/66/2 59/57/2
f 60/66/2 61/59/2 62/60/2
f 60/66/2 62/60/2 63/61/2
f 60/66/2 63/61/2 64/67/2
f 65/63/2 60/66/2 64/67/2
f 66/64/2 60/66/2 65/63/2
f 67/65/2 60/66/2 66/64/2
f 60/66/2 67/65/2 68/14/2
f 71/70/6 70/69/6 69/68/6
f 54/71/6 70/69/6 71/70/6
f 70/69/6 54/71/6 72/72/6
f 54/71/6 71/70/6 55/73/6
f 75/76/6 74/75/6 73/74/6
f 74/75/6 75/76/6 57/77/6
f 74/75/6 57/77/6 76/78/6
f 56/73/6 76/78/6 57/77/6
f 76/78/6 56/73/6 77/79/6
f 78/72/7 65/73/7 64/71/7
f 65/73/7 78/72/7 79/69/7
f 65/73/7 79/69/7 80/70/7
f 81/68/7 80/70/7 79/69/7
f 84/82/8 83/81/8 82/80/8
f 83/81/8 84/82/8 85/83/8
f 77/86/9 86/85/9 76/84/9
f 86/85/9 77/86/9 87/87/9
f 87/87/9 77/86/9 71/88/9
f 87/87/9 71/88/9 69/89/9
f 88/79/7 67/77/7 66/73/7
f 67/77/7 88/79/7 89/90/7
f 90/91/7 67/77/7 89/90/7
f 67/77/7 90/91/7 91/76/7
f 91/76/7 90/91/7 92/74/7
f 94/94/10 93/93/10 60/92/10
f 93/93/10 59/77/10 60/92/10
f 59/77/10 93/93/10 13/76/10
f 13/76/10 93/93/10 95/95/10
f 13/76/10 95/95/10 16/96/10
f 13/99/11 61/98/11 59/97/11
f 61/98/11 13/99/11 14/100/11
f 61/98/11 14/100/11 96/101/11
f 99/103/12 98/85/12 97/102/12
f 98/85/12 99/103/12 100/104/12
f 98/85/12 100/104/12 101/105/12
f 101/105/12 100/104/12 102/106/12
f 81/109/13 104/108/13 103/107/13
f 104/108/13 81/109/13 79/110/13
f 105/112/11 63/111/11 62/98/11
f 63/111/11 105/112/11 106/113/11
f 52/116/7 108/115/7 107/114/7
f 51/117/7 108/115/7 52/116/7
f 51/117/7 109/118/7 108/115/7
f 110/119/7 109/118/7 51/117/7
f 109/118/7 110/119/7 111/120/7
f 56/123/11 71/122/11 77/121/11
f 71/122/11 56/123/11 55/124/11
f 113/127/6 112/126/6 106/125/6
f 64/128/6 106/125/6 112/126/6
f 106/125/6 64/128/6 63/116/6
f 64/128/6 112/126/6 78/129/6
f 86/107/8 74/131/8 76/130/8
f 74/131/8 86/107/8 114/132/8
f 73/135/14 74/134/14 115/133/14
f 114/136/14 115/133/14 74/134/14
f 115/133/14 114/136/14 101/137/14
f 115/133/14 101/137/14 102/138/14
f 108/140/8 117/139/8 116/81/8
f 117/139/8 108/140/8 109/141/8
f 118/108/8 69/109/8 70/110/8
f 69/109/8 118/108/8 87/107/8
f 88/86/15 119/85/15 89/84/15
f 119/85/15 88/86/15 103/87/15
f 103/87/15 88/86/15 80/88/15
f 103/87/15 80/88/15 81/89/15
f 111/103/14 120/104/14 109/102/14
f 120/104/14 117/85/14 109/102/14
f 117/85/14 120/104/14 121/105/14
f 121/105/14 120/104/14 122/106/14
f 51/98/16 46/100/16 110/101/16
f 46/100/16 51/98/16 49/97/16
f 46/100/16 49/97/16 45/99/16
f 124/144/10 20/143/10 123/142/10
f 58/117/10 20/143/10 124/144/10
f 20/143/10 58/117/10 18/119/10
f 58/117/10 124/144/10 125/145/10
f 58/117/10 125/145/10 50/146/10
f 58/149/11 24/148/11 18/147/11
f 24/148/11 58/149/11 57/123/11
f 24/148/11 57/123/11 75/150/11
f 126/153/15 78/152/15 112/151/15
f 78/152/15 126/153/15 127/154/15
f 128/155/15 78/152/15 127/154/15
f 128/155/15 79/156/15 78/152/15
f 79/156/15 128/155/15 104/87/15
f 121/137/12 130/133/12 129/136/12
f 130/133/12 121/137/12 122/138/12
f 92/135/12 129/136/12 130/133/12
f 129/136/12 92/135/12 90/134/12
f 53/111/16 107/112/16 131/113/16
f 107/112/16 53/111/16 52/98/16
f 97/141/13 133/81/13 132/140/13
f 133/81/13 97/141/13 98/139/13
f 82/153/9 72/157/9 84/151/9
f 72/157/9 82/153/9 128/154/9
f 127/155/9 72/157/9 128/154/9
f 118/87/9 72/157/9 127/155/9
f 72/157/9 118/87/9 70/156/9
f 49/77/17 48/96/17 45/76/17
f 48/96/17 49/77/17 134/95/17
f 134/95/17 49/77/17 135/93/17
f 135/93/17 49/77/17 50/92/17
f 50/92/17 125/94/17 135/93/17
f 91/150/16 68/149/16 67/123/16
f 68/149/16 91/150/16 38/148/16
f 68/149/16 38/148/16 34/147/16
f 68/117/17 94/145/17 60/146/17
f 94/145/17 68/117/17 136/144/17
f 136/144/17 68/117/17 34/119/17
f 136/144/17 34/119/17 137/142/17
f 137/142/17 34/119/17 36/143/17
f 61/117/6 97/118/6 62/116/6
f 97/118/6 61/117/6 96/119/6
f 62/116/6 97/118/6 132/115/6
f 97/118/6 96/119/6 99/120/6
f 105/114/6 62/116/6 132/115/6
f 133/136/15 105/159/15 132/158/15
f 105/159/15 133/136/15 138/153/15
f 105/159/15 138/153/15 106/160/15
f 106/160/15 138/153/15 113/161/15
f 90/131/13 119/107/13 129/132/13
f 119/107/13 90/131/13 89/130/13
f 128/164/5 103/163/5 104/162/5
f 121/165/5 103/163/5 128/164/5
f 129/166/5 103/163/5 121/165/5
f 103/163/5 129/166/5 119/167/5
f 121/165/5 128/164/5 82/168/5
f 121/165/5 82/168/5 83/169/5
f 83/169/5 117/170/5 121/165/5
f 117/170/5 83/169/5 116/171/5
f 98/170/3 138/169/3 133/171/3
f 138/169/3 98/170/3 101/172/3
f 127/173/3 138/169/3 101/172/3
f 138/169/3 127/173/3 126/168/3
f 127/173/3 101/172/3 114/166/3
f 127/173/3 114/166/3 87/163/3
f 87/163/3 114/166/3 86/167/3
f 118/162/3 127/173/3 87/163/3
f 113/83/13 126/80/13 112/82/13
f 126/80/13 113/83/13 138/81/13
f 54/128/7 84/126/7 72/129/7
f 84/126/7 54/128/7 131/125/7
f 131/125/7 54/128/7 53/116/7
f 131/125/7 85/127/7 84/126/7
f 80/122/16 66/123/16 65/124/16
f 66/123/16 80/122/16 88/121/16
f 83/153/9 108/158/9 116/136/9
f 108/158/9 83/153/9 107/159/9
f 107/159/9 83/153/9 131/160/9
f 131/160/9 83/153/9 85/161/9

usemtl dirt

f 135/174/1 4/4/1 3/3/1
f 4/4/1 135/174/1 124/175/1
f 124/175/1 135/174/1 125/176/1
f 93/174/2 8/4/2 7/3/2
f 8/4/2 93/174/2 136/175/2
f 136/175/2 93/174/2 94/177/2
f 91/178/2 37/17/2 38/20/2
f 37/17/2 91/178/2 130/37/2
f 130/37/2 91/178/2 92/179/2
f 75/178/1 21/17/1 24/20/1
f 21/17/1 75/178/1 115/37/1
f 115/37/1 75/178/1 73/179/1
f 137/181/5 8/24/5 136/180/5
f 8/24/5 137/181/5 33/22/5
f 33/22/5 137/181/5 35/7/5
f 4/24/3 19/7/3 17/22/3
f 19/7/3 4/24/3 123/181/3
f 123/181/3 4/24/3 124/180/3
f 12/50/3 93/182/3 7/48/3
f 93/182/3 12/50/3 95/183/3
f 95/183/3 12/50/3 15/17/3
f 95/184/2 15/11/2 16/12/2
f 11/7/2 96/185/2 14/10/2
f 96/185/2 11/7/2 100/186/2
f 96/185/2 100/186/2 99/187/2
f 137/188/2 36/16/2 35/15/2
f 123/188/1 20/16/1 19/15/1
f 31/45/3 43/54/3 32/53/3
f 43/54/3 31/45/3 39/43/3
f 102/172/3 43/54/3 39/43/3
f 100/37/3 43/54/3 102/172/3
f 43/54/3 100/37/3 11/17/3
f 102/172/3 39/43/3 40/44/3
f 102/172/3 40/44/3 115/186/3
f 115/186/3 40/44/3 41/52/3
f 41/52/3 40/44/3 29/51/3
f 29/51/3 40/44/3 30/46/3
f 115/186/3 41/52/3 21/7/3
f 135/182/5 47/17/5 134/183/5
f 47/17/5 135/182/5 42/50/5
f 42/50/5 135/182/5 3/48/5
f 44/7/1 110/185/1 46/10/1
f 110/185/1 44/7/1 120/186/1
f 110/185/1 120/186/1 111/187/1
f 122/165/5 37/7/5 130/186/5
f 37/7/5 122/165/5 44/17/5
f 44/17/5 122/165/5 120/37/5
f 134/184/1 47/11/1 48/12/1

