# Created by Kenney (www.kenney.nl)

mtllib unit_house.mtl

g unit_house

v 0.18 0.2321053 -0.1094737
v 0.18 0.222 -0.096
v 0.18 0.3780701 -1.516014E-13
v 0.18 0.3 -1.516014E-13
v 0.18 0.076 -0.168
v 0.18 0.094 -0.192
v 0.18 0.2321053 0.1094737
v 0.18 0.222 0.096
v 0.18 0.076 0.168
v 0.18 0.094 0.192
v -0.18 0.076 -0.168
v 0.15 0.1 -0.15
v 0.15 0.3 -1.516014E-13
v -0.15 0.1 -0.15
v -0.18 0.3 -1.516014E-13
v -0.15 0.3 -1.516014E-13
v -0.18 0.094 -0.192
v -0.18 0.222 -0.096
v -0.18 0.3780701 -1.516014E-13
v -0.18 0.2321053 -0.1094737
v -0.18 0.076 0.168
v -0.18 0.222 0.096
v -0.18 0.094 0.192
v -0.18 0.2321053 0.1094737
v -0.15 0.1 0.15
v 0.15 0.1 0.15
v -0.15 0.065 -0.15
v 0.15 0.065 -0.15
v -0.15 -1.090945E-17 -0.1
v -0.15 0.065 -0.1
v -0.15 -1.090945E-17 -0.05
v -0.15 0.125 -0.05
v -0.15 0.125 0.05
v -0.15 0.065 0.1
v -0.15 -1.090945E-17 0.1
v -0.15 -1.090945E-17 0.05
v -0.15 0.065 0.15
v 0.15 0.065 0.15
v -0.15 -1.090945E-17 0.15
v 0.15 -1.090945E-17 -0.15
v 0.15 -1.090945E-17 0.15
v -0.15 -1.090945E-17 -0.15

vn 1 0 0
vn 0 -0.6 0.8
vn -1 0 0
vn 0 -0.6 -0.8
vn 0 0.6 -0.8
vn 0 -0.8 0.6
vn 0 0.6 0.8
vn 0 -0.8 -0.6
vn 0 0 -1
vn 0 0 1
vn 0 -1 0

vt 4.309988 9.138002
vt 3.779528 8.740157
vt 5.968559E-12 14.88465
vt 5.968559E-12 11.81102
vt 6.614173 2.992126
vt 7.559055 3.700787
vt -4.309988 9.138002
vt -3.779528 8.740157
vt -6.614173 2.992126
vt -7.559055 3.700787
vt -7.086614 -1.574803
vt 5.905512 -0.3937008
vt 7.086614 -1.574803
vt 7.086614 9.448819
vt 5.905512 9.448819
vt -5.905512 -0.3937008
vt -7.086614 9.448819
vt -5.905512 9.448819
vt -5.968559E-12 11.81102
vt -5.968559E-12 14.88465
vt 7.086614 4.72441
vt -7.086614 4.72441
vt 7.086614 8.930792
vt 7.086614 8.267716
vt -7.086614 8.930792
vt -7.086614 8.267716
vt 7.086614 7.086614
vt -7.086614 7.086614
vt 7.086614 11.90772
vt -7.086614 11.90772
vt 5.905512 2.559055
vt -5.905512 2.559055
vt 5.905512 3.937008
vt -5.905512 3.937008
vt -3.937008 -4.295057E-16
vt -3.937008 2.559055
vt -1.968504 -4.295057E-16
vt -1.968504 4.92126
vt 1.968504 4.92126
vt 3.937008 2.559055
vt 3.937008 -4.295057E-16
vt 1.968504 -4.295057E-16
vt 5.905512 -4.295057E-16
vt -5.905512 -4.295057E-16
vt 5.905512 5.905512
vt 5.905512 -5.905512
vt -5.905512 5.905512
vt -5.905512 -5.905512
vt -5.905512 1.968504
vt -5.905512 -1.968504
vt -5.905512 -3.937008

usemtl roof

f 3/3/1 2/2/1 1/1/1
f 4/4/1 2/2/1 3/3/1
f 5/5/1 2/2/1 4/4/1
f 2/2/1 5/5/1 6/6/1
f 4/4/1 3/3/1 7/7/1
f 4/4/1 7/7/1 8/8/1
f 8/8/1 9/9/1 4/4/1
f 9/9/1 8/8/1 10/10/1
f 5/13/2 12/12/2 11/11/2
f 12/12/2 5/13/2 4/14/2
f 12/12/2 4/14/2 13/15/2
f 14/16/2 11/11/2 12/12/2
f 11/11/2 14/16/2 15/17/2
f 15/17/2 14/16/2 16/18/2
f 11/9/3 18/8/3 17/10/3
f 18/8/3 11/9/3 15/19/3
f 19/20/3 18/8/3 15/19/3
f 18/8/3 19/20/3 20/7/3
f 19/20/3 15/19/3 21/5/3
f 19/20/3 21/5/3 22/2/3
f 22/2/3 21/5/3 23/6/3
f 24/1/3 19/20/3 22/2/3
f 21/13/4 25/12/4 9/11/4
f 25/12/4 21/13/4 15/14/4
f 25/12/4 15/14/4 16/15/4
f 26/16/4 9/11/4 25/12/4
f 9/11/4 26/16/4 4/17/4
f 4/17/4 26/16/4 13/18/4
f 18/21/5 6/11/5 17/13/5
f 6/11/5 18/21/5 2/22/5
f 24/25/6 8/24/6 7/23/6
f 8/24/6 24/25/6 22/26/6
f 23/26/6 9/27/6 10/24/6
f 9/27/6 23/26/6 21/28/6
f 3/29/7 24/22/7 7/21/7
f 24/22/7 3/29/7 19/30/7
f 11/27/8 6/26/8 5/28/8
f 6/26/8 11/27/8 17/24/8
f 18/24/8 1/25/8 2/26/8
f 1/25/8 18/24/8 20/23/8
f 8/21/7 23/11/7 10/13/7
f 23/11/7 8/21/7 22/22/7
f 19/29/5 1/22/5 20/21/5
f 1/22/5 19/29/5 3/30/5

usemtl dirt

f 14/33/9 28/32/9 27/31/9
f 28/32/9 14/33/9 12/34/9
f 31/37/3 30/36/3 29/35/3
f 30/36/3 31/37/3 32/38/3
f 16/19/3 30/36/3 32/38/3
f 14/34/3 30/36/3 16/19/3
f 30/36/3 14/34/3 27/32/3
f 16/19/3 32/38/3 33/39/3
f 16/19/3 33/39/3 25/33/3
f 25/33/3 33/39/3 34/40/3
f 34/40/3 33/39/3 35/41/3
f 35/41/3 33/39/3 36/42/3
f 25/33/3 34/40/3 37/31/3
f 13/4/1 28/31/1 12/33/1
f 28/31/1 13/4/1 38/32/1
f 38/32/1 13/4/1 26/34/1
f 26/33/10 37/32/10 38/31/10
f 37/32/10 26/33/10 25/34/10

usemtl wood

f 39/43/3 34/40/3 35/41/3
f 34/40/3 39/43/3 37/31/3
f 38/32/1 40/43/1 28/31/1
f 40/43/1 38/32/1 41/44/1
f 29/35/3 27/32/3 42/44/3
f 27/32/3 29/35/3 30/36/3
f 27/31/9 40/44/9 42/43/9
f 40/44/9 27/31/9 28/32/9
f 39/47/11 40/46/11 41/45/11
f 40/46/11 39/47/11 42/48/11
f 42/48/11 39/47/11 35/34/11
f 42/48/11 35/34/11 36/49/11
f 42/48/11 36/49/11 31/50/11
f 42/48/11 31/50/11 29/51/11
f 38/31/10 39/44/10 41/43/10
f 39/44/10 38/31/10 37/32/10
f 31/37/3 33/39/3 32/38/3
f 33/39/3 31/37/3 36/42/3

