# Created by Kenney (www.kenney.nl)

mtllib water.mtl

g water

v 0.5 0 0.2886751
v 0.5 0 -0.2886751
v 1.198373E-13 0 0.5773503
v -1.349974E-13 0 -0.5773503
v -0.5 0 0.2886751
v -0.5 0 -0.2886751
v 0.5 0.1 0.2886751
v 1.198373E-13 0.1 0.5773503
v 0.5 0.1 -0.2886751
v -1.349974E-13 0.1 -0.5773503
v -0.5 0.1 0.2886751
v -0.5 0.1 -0.2886751

vn 0 -1 0
vn 0 1 0
vn -1 0 0
vn -0.5 0 0.8660254
vn 0.5 0 0.8660254
vn 1 0 0
vn 0.5 0 -0.8660254
vn -0.5 0 -0.8660254

vt 19.68504 11.36516
vt 19.68504 -11.36516
vt 4.718004E-12 22.73033
vt -5.31486E-12 -22.73033
vt -19.68504 11.36516
vt -19.68504 -11.36516
vt -4.718004E-12 22.73033
vt 5.31486E-12 -22.73033
vt -11.36516 0
vt -11.36516 3.937008
vt 11.36516 0
vt 11.36516 3.937008

usemtl water

f 3/3/1 2/2/1 1/1/1
f 2/2/1 3/3/1 4/4/1
f 4/4/1 3/3/1 5/5/1
f 4/4/1 5/5/1 6/6/1
f 9/6/2 8/7/2 7/5/2
f 8/7/2 9/6/2 10/8/2
f 8/7/2 10/8/2 11/1/2
f 11/1/2 10/8/2 12/2/2
f 5/11/3 12/10/3 6/9/3
f 12/10/3 5/11/3 11/12/3
f 8/12/4 5/9/4 3/11/4
f 5/9/4 8/12/4 11/10/4
f 7/12/5 3/9/5 1/11/5
f 3/9/5 7/12/5 8/10/5
f 7/10/6 2/11/6 9/12/6
f 2/11/6 7/10/6 1/9/6
f 10/12/7 2/9/7 4/11/7
f 2/9/7 10/12/7 9/10/7
f 12/12/8 4/9/8 6/11/8
f 4/9/8 12/12/8 10/10/8

