{
  "accessors": [
    {
      "bufferView": 1,
      "componentType": 5126,
      "count": 27,
      "max": [
        1.2399100065231323,
        4.4780998229980469,
        0.47407999634742737
      ],
      "min": [
        -0.65329998731613159,
        -3.5686099529266357,
        -1.2063900232315063
      ],
      "type": "VEC3"
    },
    {
      "bufferView": 1,
      "byteOffset": 324,
      "componentType": 5126,
      "count": 27,
      "max": [
        0.98606860637664795,
        0.95039349794387817,
        0.95929950475692749
      ],
      "min": [
        -0.76707643270492554,
        -0.75325655937194824,
        -0.92795091867446899
      ],
      "type": "VEC3"
    },
    {
      "bufferView": 0,
      "componentType": 5125,
      "count": 150,
      "max": [
        26
      ],
      "min": [
        0
      ],
      "type": "SCALAR"
    }
  ],
  "asset": {
    "extras": {
      "author": "Inuciian (https://sketchfab.com/Inuciian)",
      "license": "CC-BY-4.0 (http://creativecommons.org/licenses/by/4.0/)",
      "source": "https://sketchfab.com/models/5c6a93ed0dcf4a5c9994138f04d1d974",
      "title": "Fog"
    },
    "generator": "Sketchfab-3.18.7",
    "version": "2.0"
  },
  "bufferViews": [
    {
      "buffer": 0,
      "byteLength": 600,
      "byteOffset": 0,
      "name": "floatBufferViews",
      "target": 34963
    },
    {
      "buffer": 0,
      "byteLength": 648,
      "byteOffset": 600,
      "byteStride": 12,
      "name": "floatBufferViews",
      "target": 34962
    }
  ],
  "buffers": [
    {
      "byteLength": 1248,
      "uri": "scene.bin"
    }
  ],
  "materials": [
    {
      "alphaMode": "BLEND",
      "doubleSided": true,
      "emissiveFactor": [
        0,
        0,
        0
      ],
      "name": "Smoke_mat",
      "pbrMetallicRoughness": {
        "baseColorFactor": [
          0.4617982209,
          0.52350229020000005,
          0.80000007149999997,
          0.25
        ],
        "metallicFactor": 0,
        "roughnessFactor": 1
      }
    }
  ],
  "meshes": [
    {
      "name": "Plane.005_0",
      "primitives": [
        {
          "attributes": {
            "NORMAL": 1,
            "POSITION": 0
          },
          "indices": 2,
          "material": 0,
          "mode": 4
        }
      ]
    }
  ],
  "nodes": [
    {
      "children": [
        1
      ],
      "name": "RootNode (gltf orientation matrix)",
      "rotation": [
        -0.70710678118654746,
        -0,
        -0,
        0.70710678118654757
      ]
    },
    {
      "children": [
        2
      ],
      "name": "RootNode (model correction matrix)"
    },
    {
      "children": [
        3
      ],
      "name": "Root"
    },
    {
      "children": [
        4
      ],
      "matrix": [
        1,
        0,
        0,
        0,
        0,
        1,
        0,
        0,
        0,
        0,
        1,
        0,
        -8.1730099999999997,
        7.1892600000000009,
        1.1772,
        1
      ],
      "name": "Plane.005"
    },
    {
      "mesh": 0,
      "name": "Plane.005_0"
    }
  ],
  "scene": 0,
  "scenes": [
    {
      "name": "OSG_Scene",
      "nodes": [
        0
      ]
    }
  ]
}

